M48
; DRILL file KiCad 10.0.6 date 2026-09-12T10:58:33
; FORMAT={-:-/ absolute / metric / decimal}
; #@! TF.CreationDate,2026-09-12T10:58:33+02:00
; #@! TF.GenerationSoftware,Kicad,Pcbnew,10.0.6
; #@! TF.FileFunction,Plated,1,2,PTH
FMAT,2
METRIC
; #@! TA.AperFunction,Plated,PTH,ViaDrill
T1C0.400
; #@! TA.AperFunction,Plated,PTH,ComponentDrill
T2C0.800
; #@! TA.AperFunction,Plated,PTH,ComponentDrill
T3C0.900
; #@! TA.AperFunction,Plated,PTH,ComponentDrill
T4C1.000
; #@! TA.AperFunction,Plated,PTH,ComponentDrill
T5C1.100
; #@! TA.AperFunction,Plated,PTH,ComponentDrill
T6C1.300
; #@! TA.AperFunction,Plated,PTH,ComponentDrill
T7C1.600
%
G90
G05
T1
X52.019Y-86.36
X56.54Y-128.88
X58.318Y-108.763
X58.776Y-117.145
X58.826Y-101.854
X59.284Y-81.636
X62.103Y-123.825
X62.535Y-97.434
X63.551Y-120.802
X64.465Y-84.785
X66.802Y-117.094
X68.021Y-109.474
X68.732Y-84.785
X68.936Y-135.534
X69.444Y-102.362
X71.12Y-104.14
X72.796Y-131.978
X72.898Y-128.016
X74.295Y-128.016
X74.371Y-109.474
X75.54Y-116.891
X76.454Y-121.818
X76.835Y-129.54
X76.911Y-85.598
X77.673Y-110.896
X78.435Y-90.983
X79.502Y-111.506
X79.502Y-116.078
X79.654Y-127.66
X79.908Y-134.569
X80.391Y-95.504
X80.67Y-117.45
X81.636Y-124.917
X81.788Y-111.76
X81.788Y-116.078
X83.871Y-116.942
X85.496Y-79.096
X85.852Y-96.622
X86.36Y-126.746
X86.36Y-129.286
X86.462Y-91.796
X86.462Y-108.763
X86.512Y-124.155
X86.614Y-87.122
X87.376Y-125.476
X87.63Y-104.14
X88.773Y-119.253
X88.9Y-81.153
X88.9Y-98.044
X89.789Y-119.253
X90.043Y-81.153
X90.043Y-98.044
X90.297Y-95.504
X91.694Y-130.556
X92.456Y-87.122
X92.456Y-106.68
X92.456Y-110.49
X92.862Y-81.28
X93.98Y-90.932
X95.758Y-129.896
X95.809Y-77.267
X96.622Y-95.047
X96.622Y-112.624
X96.926Y-90.17
X98.044Y-101.6
X98.044Y-104.902
X98.044Y-121.539
X98.044Y-124.714
X100.381Y-111.1
X102.464Y-110.236
X104.013Y-92.837
X104.013Y-118.364
X105.156Y-82.499
X105.562Y-104.191
X105.969Y-93.32
X106.629Y-84.48
X107.34Y-124.257
X107.34Y-130.404
X107.544Y-82.499
X108.153Y-77.419
X109.068Y-117.348
X109.271Y-122.834
X109.677Y-84.48
X112.776Y-80.213
X113.386Y-128.88
X113.589Y-91.186
T2
X60.706Y-133.096
X63.246Y-133.096
X65.786Y-133.096
X79.502Y-106.455
X79.502Y-108.995
X87.122Y-113.71
X87.122Y-116.25
X90.932Y-113.694
X90.932Y-116.234
X99.01Y-106.807
X99.028Y-126.822
X101.55Y-106.807
X101.568Y-126.822
T3
X53.975Y-83.82
X53.975Y-88.9
X56.515Y-83.82
X56.515Y-88.9
X112.014Y-118.11
X112.014Y-120.65
T4
X66.802Y-66.964
X66.802Y-71.964
X78.232Y-71.094
X78.232Y-76.094
X89.916Y-71.186
X89.916Y-76.186
X101.219Y-94.361
X101.219Y-113.919
X101.6Y-71.348
X101.6Y-76.348
T5
X63.083Y-88.9
X63.754Y-107.061
X63.754Y-112.141
X65.623Y-88.9
X66.294Y-107.061
X66.294Y-112.141
X69.977Y-112.141
X69.977Y-107.061
X72.517Y-112.141
X72.517Y-107.061
X73.243Y-88.9
X75.692Y-65.024
X75.783Y-88.9
X78.232Y-65.024
X80.772Y-65.024
X87.376Y-65.024
X89.916Y-65.024
X92.456Y-65.024
X99.06Y-65.024
X101.6Y-65.024
X104.14Y-65.024
T6
X55.88Y-72.39
X55.88Y-77.39
X55.88Y-94.695
X55.88Y-99.695
X55.88Y-106.76
X55.88Y-111.76
X55.88Y-118.872
X55.88Y-123.872
X110.49Y-106.807
X110.49Y-111.807
T7
X62.865Y-93.98
X62.865Y-100.965
X75.565Y-93.98
X75.565Y-100.965
M30
