%TF.GenerationSoftware,KiCad,Pcbnew,10.0.6*%
%TF.CreationDate,2026-09-12T10:57:15+02:00*%
%TF.ProjectId,controller,636f6e74-726f-46c6-9c65-722e6b696361,rev?*%
%TF.SameCoordinates,Original*%
%TF.FileFunction,Copper,L2,Bot*%
%TF.FilePolarity,Positive*%
%FSLAX46Y46*%
G04 Gerber Fmt 4.6, Leading zero omitted, Abs format (unit mm)*
G04 Created by KiCad (PCBNEW 10.0.6) date 2026-09-12 10:57:15*
%MOMM*%
%LPD*%
G01*
G04 APERTURE LIST*
G04 Aperture macros list*
%AMRoundRect*
0 Rectangle with rounded corners*
0 $1 Rounding radius*
0 $2 $3 $4 $5 $6 $7 $8 $9 X,Y pos of 4 corners*
0 Add a 4 corners polygon primitive as box body*
4,1,4,$2,$3,$4,$5,$6,$7,$8,$9,$2,$3,0*
0 Add four circle primitives for the rounded corners*
1,1,$1+$1,$2,$3*
1,1,$1+$1,$4,$5*
1,1,$1+$1,$6,$7*
1,1,$1+$1,$8,$9*
0 Add four rect primitives between the rounded corners*
20,1,$1+$1,$2,$3,$4,$5,0*
20,1,$1+$1,$4,$5,$6,$7,0*
20,1,$1+$1,$6,$7,$8,$9,0*
20,1,$1+$1,$8,$9,$2,$3,0*%
G04 Aperture macros list end*
%TA.AperFunction,ComponentPad*%
%ADD10RoundRect,0.249999X0.850001X0.850001X-0.850001X0.850001X-0.850001X-0.850001X0.850001X-0.850001X0*%
%TD*%
%TA.AperFunction,ComponentPad*%
%ADD11C,2.200000*%
%TD*%
%TA.AperFunction,ComponentPad*%
%ADD12RoundRect,0.250001X1.149999X-1.149999X1.149999X1.149999X-1.149999X1.149999X-1.149999X-1.149999X0*%
%TD*%
%TA.AperFunction,ComponentPad*%
%ADD13C,2.800000*%
%TD*%
%TA.AperFunction,ComponentPad*%
%ADD14R,1.800000X1.800000*%
%TD*%
%TA.AperFunction,ComponentPad*%
%ADD15C,1.800000*%
%TD*%
%TA.AperFunction,ComponentPad*%
%ADD16RoundRect,0.250000X0.750000X-0.750000X0.750000X0.750000X-0.750000X0.750000X-0.750000X-0.750000X0*%
%TD*%
%TA.AperFunction,ComponentPad*%
%ADD17C,2.000000*%
%TD*%
%TA.AperFunction,ComponentPad*%
%ADD18R,1.905000X2.000000*%
%TD*%
%TA.AperFunction,ComponentPad*%
%ADD19O,1.905000X2.000000*%
%TD*%
%TA.AperFunction,ComponentPad*%
%ADD20RoundRect,0.250000X-0.550000X-0.550000X0.550000X-0.550000X0.550000X0.550000X-0.550000X0.550000X0*%
%TD*%
%TA.AperFunction,ComponentPad*%
%ADD21C,1.600000*%
%TD*%
%TA.AperFunction,ComponentPad*%
%ADD22RoundRect,0.250000X0.550000X-0.550000X0.550000X0.550000X-0.550000X0.550000X-0.550000X-0.550000X0*%
%TD*%
%TA.AperFunction,ComponentPad*%
%ADD23RoundRect,0.250001X-1.149999X1.149999X-1.149999X-1.149999X1.149999X-1.149999X1.149999X1.149999X0*%
%TD*%
%TA.AperFunction,ComponentPad*%
%ADD24RoundRect,0.250000X-1.350000X-1.350000X1.350000X-1.350000X1.350000X1.350000X-1.350000X1.350000X0*%
%TD*%
%TA.AperFunction,ComponentPad*%
%ADD25C,3.200000*%
%TD*%
%TA.AperFunction,ComponentPad*%
%ADD26C,1.440000*%
%TD*%
%TA.AperFunction,ComponentPad*%
%ADD27RoundRect,0.250000X1.350000X1.350000X-1.350000X1.350000X-1.350000X-1.350000X1.350000X-1.350000X0*%
%TD*%
%TA.AperFunction,ViaPad*%
%ADD28C,0.800000*%
%TD*%
%TA.AperFunction,Conductor*%
%ADD29C,1.000000*%
%TD*%
%TA.AperFunction,Conductor*%
%ADD30C,0.500000*%
%TD*%
%TA.AperFunction,Conductor*%
%ADD31C,0.400000*%
%TD*%
%TA.AperFunction,Conductor*%
%ADD32C,0.600000*%
%TD*%
G04 APERTURE END LIST*
D10*
%TO.P,D9,1,K_1*%
%TO.N,Net-(D7-K)*%
X72517000Y-112141000D03*
D11*
%TO.P,D9,2,A_2*%
%TO.N,Net-(D10-K)*%
X69977000Y-112141000D03*
%TD*%
D12*
%TO.P,J5,1,Pin_1_1*%
%TO.N,Net-(J5-Pin_1)*%
X55880000Y-77390000D03*
D13*
%TO.P,J5,2,Pin_2_2*%
%TO.N,Net-(J5-Pin_2)*%
X55880000Y-72390000D03*
%TD*%
D10*
%TO.P,D8,1,K_1*%
%TO.N,Net-(D7-A)*%
X66294000Y-107061000D03*
D11*
%TO.P,D8,2,A_2*%
%TO.N,GND*%
X63754000Y-107061000D03*
%TD*%
D12*
%TO.P,J1,1,Pin_1_1*%
%TO.N,GND*%
X55880000Y-99695000D03*
D13*
%TO.P,J1,2,Pin_2_2*%
%TO.N,Net-(D1-A)*%
X55880000Y-94695000D03*
%TD*%
D14*
%TO.P,D17,1,K_1*%
%TO.N,Net-(D17-K)*%
X53975000Y-88900000D03*
D15*
%TO.P,D17,2,A_2*%
%TO.N,+5V*%
X56515000Y-88900000D03*
%TD*%
D16*
%TO.P,C12,1*%
%TO.N,Net-(D14-+)*%
X66802000Y-71963677D03*
D17*
%TO.P,C12,2*%
%TO.N,GND*%
X66802000Y-66963677D03*
%TD*%
D12*
%TO.P,J3,1,Pin_1_1*%
%TO.N,Net-(D7-A)*%
X55880000Y-123872000D03*
D13*
%TO.P,J3,2,Pin_2_2*%
%TO.N,Net-(D10-K)*%
X55880000Y-118872000D03*
%TD*%
D18*
%TO.P,U10,1,VI_1*%
%TO.N,Net-(D14-+)*%
X99060000Y-65024000D03*
D19*
%TO.P,U10,2,GND_2*%
%TO.N,GND*%
X101600000Y-65024000D03*
%TO.P,U10,3,VO_3*%
%TO.N,+24V*%
X104140000Y-65024000D03*
%TD*%
D20*
%TO.P,D13,1,K_1*%
%TO.N,+24V*%
X99009815Y-106807000D03*
D21*
%TO.P,D13,2,A_2*%
%TO.N,Net-(D13-A)*%
X101549815Y-106807000D03*
%TD*%
D14*
%TO.P,D16,1,K_1*%
%TO.N,Net-(D16-K)*%
X53975000Y-83820000D03*
D15*
%TO.P,D16,2,A_2*%
%TO.N,+9V*%
X56515000Y-83820000D03*
%TD*%
D22*
%TO.P,D5,1,K_1*%
%TO.N,Net-(D5-K)*%
X87122000Y-116249685D03*
D21*
%TO.P,D5,2,A_2*%
%TO.N,GND*%
X87122000Y-113709685D03*
%TD*%
D23*
%TO.P,J4,1,Pin_1_1*%
%TO.N,Net-(J4-Pin_1)*%
X110490000Y-106807000D03*
D13*
%TO.P,J4,2,Pin_2_2*%
%TO.N,Net-(J4-Pin_2)*%
X110490000Y-111807000D03*
%TD*%
D22*
%TO.P,D6,1,K_1*%
%TO.N,+5V*%
X90932000Y-116233685D03*
D21*
%TO.P,D6,2,A_2*%
%TO.N,Net-(D5-K)*%
X90932000Y-113693685D03*
%TD*%
D16*
%TO.P,C13,1*%
%TO.N,+5V*%
X78232000Y-76093677D03*
D17*
%TO.P,C13,2*%
%TO.N,GND*%
X78232000Y-71093677D03*
%TD*%
D12*
%TO.P,J2,1,Pin_1_1*%
%TO.N,GND*%
X55880000Y-111760000D03*
D13*
%TO.P,J2,2,Pin_2_2*%
%TO.N,Net-(J2-Pin_2)*%
X55880000Y-106760000D03*
%TD*%
D24*
%TO.P,D18,1,K_1*%
%TO.N,Net-(D1-K)*%
X62865000Y-100965000D03*
D25*
%TO.P,D18,2,A_2*%
%TO.N,GND*%
X75565000Y-100965000D03*
%TD*%
D17*
%TO.P,TP3,1,1_1*%
%TO.N,Net-(Q2A-G1)*%
X101219000Y-113919000D03*
%TD*%
D16*
%TO.P,C15,1*%
%TO.N,+24V*%
X101600000Y-76347677D03*
D17*
%TO.P,C15,2*%
%TO.N,GND*%
X101600000Y-71347677D03*
%TD*%
D22*
%TO.P,D12,1,K_1*%
%TO.N,Net-(D12-K)*%
X79502000Y-108994685D03*
D21*
%TO.P,D12,2,A_2*%
%TO.N,Net-(D12-A)*%
X79502000Y-106454685D03*
%TD*%
D10*
%TO.P,D4,1,K_1*%
%TO.N,Net-(D19-K)*%
X75782818Y-88900000D03*
D11*
%TO.P,D4,2,A_2*%
%TO.N,GND*%
X73242818Y-88900000D03*
%TD*%
D26*
%TO.P,RV1,1,1_1*%
%TO.N,Net-(R9-Pad1)*%
X60706000Y-133096000D03*
%TO.P,RV1,2,2_2*%
%TO.N,Net-(U5-+)*%
X63246000Y-133096000D03*
%TO.P,RV1,3,3_3*%
%TO.N,GND*%
X65786000Y-133096000D03*
%TD*%
D16*
%TO.P,C14,1*%
%TO.N,+9V*%
X89916000Y-76186000D03*
D17*
%TO.P,C14,2*%
%TO.N,GND*%
X89916000Y-71186000D03*
%TD*%
D10*
%TO.P,D7,1,K_1*%
%TO.N,Net-(D7-K)*%
X72517001Y-107061000D03*
D11*
%TO.P,D7,2,A_2*%
%TO.N,Net-(D7-A)*%
X69977001Y-107061000D03*
%TD*%
D18*
%TO.P,U3,1,VI_1*%
%TO.N,Net-(D14-+)*%
X87376000Y-65024000D03*
D19*
%TO.P,U3,2,GND_2*%
%TO.N,GND*%
X89916000Y-65024000D03*
%TO.P,U3,3,VO_3*%
%TO.N,+9V*%
X92456000Y-65024000D03*
%TD*%
D20*
%TO.P,D15,1,K_1*%
%TO.N,+24V*%
X99028315Y-126821750D03*
D21*
%TO.P,D15,2,A_2*%
%TO.N,Net-(D15-A)*%
X101568315Y-126821750D03*
%TD*%
D10*
%TO.P,D10,1,K_1*%
%TO.N,Net-(D10-K)*%
X66294000Y-112141000D03*
D11*
%TO.P,D10,2,A_2*%
%TO.N,GND*%
X63754000Y-112141000D03*
%TD*%
D27*
%TO.P,D19,1,K_1*%
%TO.N,Net-(D19-K)*%
X75565000Y-93980000D03*
D25*
%TO.P,D19,2,A_2*%
%TO.N,Net-(D1-A)*%
X62865000Y-93980000D03*
%TD*%
D17*
%TO.P,TP1,1,1_1*%
%TO.N,Net-(Q1A-G1)*%
X101219000Y-94361000D03*
%TD*%
D14*
%TO.P,D11,1,K_1*%
%TO.N,GND*%
X112014000Y-118110000D03*
D15*
%TO.P,D11,2,A_2*%
%TO.N,Net-(D11-A)*%
X112014000Y-120650000D03*
%TD*%
D10*
%TO.P,D1,1,K_1*%
%TO.N,Net-(D1-K)*%
X65622818Y-88900000D03*
D11*
%TO.P,D1,2,A_2*%
%TO.N,Net-(D1-A)*%
X63082818Y-88900000D03*
%TD*%
D18*
%TO.P,U8,1,VI_1*%
%TO.N,Net-(D14-+)*%
X75692000Y-65024000D03*
D19*
%TO.P,U8,2,GND_2*%
%TO.N,GND*%
X78232000Y-65024000D03*
%TO.P,U8,3,VO_3*%
%TO.N,+5V*%
X80772000Y-65024000D03*
%TD*%
D28*
%TO.N,GND*%
X95758000Y-129895600D03*
X77673200Y-110896400D03*
X76454000Y-121818400D03*
X113588800Y-91186000D03*
X81635600Y-124917200D03*
X102463600Y-110236000D03*
X106629200Y-84480400D03*
X79908400Y-134569200D03*
X109677200Y-84480400D03*
X75539600Y-116890800D03*
X52019200Y-86360000D03*
X112776000Y-80213200D03*
X109067600Y-117348000D03*
X58318400Y-108762800D03*
X59283600Y-81635600D03*
X85852000Y-96621600D03*
X109270800Y-122834400D03*
X56540400Y-128879600D03*
X92862400Y-81280000D03*
X69443600Y-102362000D03*
X86461600Y-91795600D03*
X96926400Y-90170000D03*
X113385600Y-128879600D03*
X72796400Y-131978400D03*
X64465200Y-84785200D03*
X86512400Y-124155200D03*
X79654400Y-127660400D03*
X96621600Y-95046800D03*
X66802000Y-117094000D03*
X105562400Y-104190800D03*
X74371200Y-109474000D03*
X62534800Y-97434400D03*
X95808800Y-77266800D03*
X68732400Y-84785200D03*
X107340400Y-124256800D03*
X96621600Y-112623600D03*
X76911200Y-85598000D03*
X105968800Y-93319600D03*
X108153200Y-77419200D03*
X85496400Y-79095600D03*
X58826400Y-101854000D03*
X63550800Y-120802400D03*
X80670400Y-117449600D03*
X86461600Y-108762800D03*
X105156000Y-82499200D03*
X58775600Y-117144800D03*
X107543600Y-82499200D03*
X83870800Y-116941600D03*
X78435200Y-90982800D03*
X68021200Y-109474000D03*
X100380800Y-111099600D03*
X68935600Y-135534400D03*
X107340400Y-130403600D03*
%TO.N,+5V*%
X90043000Y-81153000D03*
X90043000Y-98044000D03*
X88900000Y-81153000D03*
X88773000Y-119253000D03*
X74295000Y-128016000D03*
X72898000Y-128016000D03*
X88900000Y-98044000D03*
X89789000Y-119253000D03*
X62103000Y-123825000D03*
%TO.N,Net-(D12-K)*%
X79502000Y-111506000D03*
X79502000Y-116078000D03*
%TO.N,Net-(U7A-~{R})*%
X81788000Y-116078000D03*
X81788000Y-111760000D03*
%TO.N,Net-(U7A-C)*%
X92456000Y-110490000D03*
X92456000Y-106680000D03*
X86360000Y-126746000D03*
X92456000Y-87122000D03*
%TO.N,/INT_IN*%
X90297000Y-95504000D03*
X80391000Y-95504000D03*
%TO.N,Net-(J2-Pin_2)*%
X71120000Y-104140000D03*
X87630000Y-104140000D03*
%TO.N,Net-(Q2A-G1)*%
X104013000Y-118364000D03*
X104013000Y-92837000D03*
%TO.N,+24V*%
X98044000Y-104902000D03*
X98044000Y-101600000D03*
X98044000Y-121539000D03*
X98044000Y-124714000D03*
%TO.N,Net-(U7B-~{R})*%
X76835000Y-129540000D03*
X87376000Y-125476000D03*
%TO.N,Net-(U7A-Q)*%
X86360000Y-129286000D03*
X93980000Y-90932000D03*
%TO.N,/COMP_OUT*%
X91694000Y-130556000D03*
X86614000Y-87122000D03*
%TD*%
%TO.N,+5V*%
D29*
X89789000Y-117376685D02*
X90932000Y-116233685D01*
X89789000Y-119253000D02*
X89789000Y-117376685D01*
X63881000Y-118491000D02*
X64350107Y-118960107D01*
X72898000Y-128016000D02*
X74295000Y-128016000D01*
X59944000Y-114139786D02*
X59944000Y-106967214D01*
X88900000Y-81153000D02*
X90043000Y-81153000D01*
X69469000Y-98044000D02*
X88900000Y-98044000D01*
X88773000Y-119253000D02*
X89789000Y-119253000D01*
D30*
X59405714Y-86423500D02*
X70929500Y-86423500D01*
D29*
X72605107Y-127215107D02*
X63881000Y-118491000D01*
X69761893Y-87591107D02*
X70929500Y-86423500D01*
X65189893Y-103974107D02*
X69176107Y-99987893D01*
X65057214Y-119253000D02*
X88773000Y-119253000D01*
X88900000Y-98044000D02*
X90043000Y-98044000D01*
D30*
X56515000Y-88900000D02*
X58698607Y-86716393D01*
D29*
X69469000Y-99280786D02*
X69469000Y-88298214D01*
X76614214Y-81153000D02*
X88900000Y-81153000D01*
D31*
X62103000Y-120683214D02*
X62103000Y-123825000D01*
D29*
X72898000Y-128016000D02*
X72898000Y-127922214D01*
X60236893Y-106260107D02*
X61937107Y-104559893D01*
X62644214Y-104267000D02*
X64482786Y-104267000D01*
D31*
X63881000Y-118491000D02*
X62395893Y-119976107D01*
D29*
X70929500Y-86423500D02*
X75907107Y-81445893D01*
X63881000Y-118491000D02*
X60236893Y-114846893D01*
X78232000Y-76093677D02*
X78232000Y-81153000D01*
X64482786Y-104267000D02*
G75*
G03*
X65189900Y-103974114I14J1000000D01*
G01*
X60236893Y-114846893D02*
G75*
G02*
X59944010Y-114139786I707107J707093D01*
G01*
X72898000Y-127922214D02*
G75*
G03*
X72605114Y-127215100I-1000000J14D01*
G01*
X69469000Y-88298214D02*
G75*
G02*
X69761886Y-87591100I1000000J14D01*
G01*
D30*
X58698607Y-86716393D02*
G75*
G02*
X59405714Y-86423510I707093J-707107D01*
G01*
D29*
X65057214Y-119253000D02*
G75*
G02*
X64350100Y-118960114I-14J1000000D01*
G01*
X76614214Y-81153000D02*
G75*
G03*
X75907100Y-81445886I-14J-1000000D01*
G01*
X69469000Y-99280786D02*
G75*
G02*
X69176114Y-99987900I-1000000J-14D01*
G01*
D31*
X62103000Y-120683214D02*
G75*
G02*
X62395886Y-119976100I1000000J14D01*
G01*
D29*
X59944000Y-106967214D02*
G75*
G02*
X60236886Y-106260100I1000000J14D01*
G01*
X62644214Y-104267000D02*
G75*
G03*
X61937100Y-104559886I-14J-1000000D01*
G01*
%TO.N,Net-(D12-K)*%
D31*
X79502000Y-111506000D02*
X79502000Y-116078000D01*
%TO.N,Net-(U7A-~{R})*%
X81788000Y-111760000D02*
X81788000Y-116078000D01*
%TO.N,Net-(U7A-C)*%
X92456000Y-124299786D02*
X92456000Y-87122000D01*
X90716893Y-126453107D02*
X92163107Y-125006893D01*
X86360000Y-126746000D02*
X90009786Y-126746000D01*
X92456000Y-124299786D02*
G75*
G02*
X92163114Y-125006900I-1000000J-14D01*
G01*
X90009786Y-126746000D02*
G75*
G03*
X90716900Y-126453114I14J1000000D01*
G01*
%TO.N,/INT_IN*%
X80391000Y-95504000D02*
X90297000Y-95504000D01*
%TO.N,Net-(J2-Pin_2)*%
X71120000Y-104140000D02*
X87630000Y-104140000D01*
%TO.N,Net-(Q2A-G1)*%
X104013000Y-118364000D02*
X104013000Y-92837000D01*
%TO.N,+24V*%
D29*
X98044000Y-94013214D02*
X98044000Y-101600000D01*
X101600000Y-76347677D02*
X101600000Y-89628786D01*
X98337104Y-93306107D02*
X98336893Y-93306107D01*
X98044000Y-106807000D02*
X99009815Y-106807000D01*
X98044000Y-106807000D02*
X98044000Y-121539000D01*
X98044000Y-124714000D02*
X98044000Y-125423221D01*
X101307107Y-90335893D02*
X101307107Y-90336104D01*
X98044000Y-104902000D02*
X98044000Y-106807000D01*
X98336893Y-126130328D02*
X99028315Y-126821750D01*
X98044000Y-121539000D02*
X98044000Y-124714000D01*
X101307107Y-90336104D02*
X98337104Y-93306107D01*
X98044000Y-101600000D02*
X98044000Y-104902000D01*
X101600000Y-89628786D02*
G75*
G02*
X101307114Y-90335900I-1000000J-14D01*
G01*
X98044000Y-125423221D02*
G75*
G03*
X98336904Y-126130317I1000000J21D01*
G01*
X98336893Y-93306107D02*
G75*
G03*
X98044010Y-94013214I707107J-707093D01*
G01*
%TO.N,Net-(U7B-~{R})*%
D31*
X81627786Y-129540000D02*
X76835000Y-129540000D01*
X87376000Y-125476000D02*
X86520214Y-125476000D01*
X85813107Y-125768893D02*
X82334893Y-129247107D01*
X81627786Y-129540000D02*
G75*
G03*
X82334900Y-129247114I14J1000000D01*
G01*
X86520214Y-125476000D02*
G75*
G03*
X85813100Y-125768886I-14J-1000000D01*
G01*
%TO.N,Net-(U7A-Q)*%
X90970893Y-128993107D02*
X93687107Y-126276893D01*
X86360000Y-129286000D02*
X90263786Y-129286000D01*
X93980000Y-125569786D02*
X93980000Y-90932000D01*
X90263786Y-129286000D02*
G75*
G03*
X90970900Y-128993114I14J1000000D01*
G01*
X93687107Y-126276893D02*
G75*
G03*
X93979990Y-125569786I-707107J707093D01*
G01*
%TO.N,/COMP_OUT*%
X88806214Y-85344000D02*
X92549786Y-85344000D01*
X86614000Y-87122000D02*
X88099107Y-85636893D01*
X95504000Y-88298214D02*
X95504000Y-126331786D01*
X93256893Y-85636893D02*
X95211107Y-87591107D01*
X95211107Y-127038893D02*
X91694000Y-130556000D01*
X95504000Y-88298214D02*
G75*
G03*
X95211114Y-87591100I-1000000J14D01*
G01*
X92549786Y-85344000D02*
G75*
G02*
X93256900Y-85636886I14J-1000000D01*
G01*
X88806214Y-85344000D02*
G75*
G03*
X88099100Y-85636886I-14J-1000000D01*
G01*
X95504000Y-126331786D02*
G75*
G02*
X95211114Y-127038900I-1000000J-14D01*
G01*
%TO.N,Net-(D1-K)*%
D32*
X62865000Y-100965000D02*
X65329925Y-98500075D01*
X65622818Y-97792968D02*
X65622818Y-88900000D01*
X65329925Y-98500075D02*
G75*
G03*
X65622790Y-97792968I-707125J707075D01*
G01*
%TD*%
%TA.AperFunction,Conductor*%
%TO.N,GND*%
G36*
X111684677Y-61466447D02*
G01*
X111694070Y-61468964D01*
X111694108Y-61468974D01*
X111755435Y-61468974D01*
X111764541Y-61469212D01*
X112095959Y-61486580D01*
X112114045Y-61488481D01*
X112437330Y-61539684D01*
X112455120Y-61543466D01*
X112771280Y-61628182D01*
X112788571Y-61633800D01*
X113025527Y-61724759D01*
X113094137Y-61751096D01*
X113110775Y-61758504D01*
X113402384Y-61907085D01*
X113418155Y-61916190D01*
X113692652Y-62094450D01*
X113707378Y-62105150D01*
X113961731Y-62311121D01*
X113975266Y-62323307D01*
X114206692Y-62554733D01*
X114218878Y-62568268D01*
X114424849Y-62822621D01*
X114435555Y-62837356D01*
X114613808Y-63111842D01*
X114622914Y-63127615D01*
X114771495Y-63419224D01*
X114778903Y-63435862D01*
X114834311Y-63580204D01*
X114895540Y-63739711D01*
X114896194Y-63741413D01*
X114901822Y-63758734D01*
X114986530Y-64074867D01*
X114990317Y-64092682D01*
X115041516Y-64415940D01*
X115043420Y-64434054D01*
X115060788Y-64765458D01*
X115061026Y-64774564D01*
X115061026Y-133345435D01*
X115060788Y-133354541D01*
X115043420Y-133685945D01*
X115041516Y-133704059D01*
X114990317Y-134027317D01*
X114986530Y-134045132D01*
X114901822Y-134361265D01*
X114896194Y-134378586D01*
X114778903Y-134684137D01*
X114771495Y-134700775D01*
X114622914Y-134992384D01*
X114613808Y-135008157D01*
X114435555Y-135282643D01*
X114424849Y-135297378D01*
X114218878Y-135551731D01*
X114206692Y-135565266D01*
X113975266Y-135796692D01*
X113961731Y-135808878D01*
X113707378Y-136014849D01*
X113692643Y-136025555D01*
X113418157Y-136203808D01*
X113402384Y-136212914D01*
X113110775Y-136361495D01*
X113094137Y-136368903D01*
X112788586Y-136486194D01*
X112771265Y-136491822D01*
X112455132Y-136576530D01*
X112437317Y-136580317D01*
X112114059Y-136631516D01*
X112095945Y-136633420D01*
X111764541Y-136650788D01*
X111755435Y-136651026D01*
X54614565Y-136651026D01*
X54605459Y-136650788D01*
X54274054Y-136633420D01*
X54255940Y-136631516D01*
X53932682Y-136580317D01*
X53914867Y-136576530D01*
X53805149Y-136547131D01*
X53598731Y-136491821D01*
X53581416Y-136486195D01*
X53507106Y-136457670D01*
X53275862Y-136368903D01*
X53259224Y-136361495D01*
X52967615Y-136212914D01*
X52951842Y-136203808D01*
X52793949Y-136101271D01*
X52677351Y-136025551D01*
X52662621Y-136014849D01*
X52408268Y-135808878D01*
X52394733Y-135796692D01*
X52163307Y-135565266D01*
X52151121Y-135551731D01*
X51945150Y-135297378D01*
X51934450Y-135282652D01*
X51756190Y-135008155D01*
X51747085Y-134992384D01*
X51598504Y-134700775D01*
X51591096Y-134684137D01*
X51548334Y-134572738D01*
X51473800Y-134378571D01*
X51468182Y-134361280D01*
X51383466Y-134045120D01*
X51379684Y-134027330D01*
X51328481Y-133704045D01*
X51326580Y-133685959D01*
X51308974Y-133350000D01*
X51308974Y-133284108D01*
X51302688Y-133260648D01*
X51300915Y-133235032D01*
X51301087Y-133234040D01*
X51300500Y-133229575D01*
X51300500Y-133228718D01*
X52759500Y-133228718D01*
X52759500Y-133471281D01*
X52759501Y-133471303D01*
X52791159Y-133711773D01*
X52791163Y-133711792D01*
X52853647Y-133944987D01*
X52853946Y-133946100D01*
X52934205Y-134139864D01*
X52946778Y-134170216D01*
X52946781Y-134170223D01*
X53013884Y-134286447D01*
X53068064Y-134380289D01*
X53215735Y-134572738D01*
X53387262Y-134744265D01*
X53579711Y-134891936D01*
X53649736Y-134932365D01*
X53789776Y-135013218D01*
X53789782Y-135013220D01*
X53789788Y-135013224D01*
X54013900Y-135106054D01*
X54248211Y-135168838D01*
X54248225Y-135168839D01*
X54248226Y-135168840D01*
X54488696Y-135200498D01*
X54488698Y-135200498D01*
X54488712Y-135200500D01*
X54488719Y-135200500D01*
X54731281Y-135200500D01*
X54731288Y-135200500D01*
X54971789Y-135168838D01*
X55206100Y-135106054D01*
X55430212Y-135013224D01*
X55430220Y-135013219D01*
X55430223Y-135013218D01*
X55483156Y-134982656D01*
X55640289Y-134891936D01*
X55832738Y-134744265D01*
X56004265Y-134572738D01*
X56151936Y-134380289D01*
X56273224Y-134170212D01*
X56366054Y-133946100D01*
X56428838Y-133711789D01*
X56460500Y-133471288D01*
X56460500Y-133228712D01*
X56449961Y-133148661D01*
X56432473Y-133015821D01*
X56432472Y-133015818D01*
X56430383Y-132999945D01*
X59485500Y-132999945D01*
X59485500Y-133192055D01*
X59491306Y-133228712D01*
X59512788Y-133364347D01*
X59515553Y-133381801D01*
X59564725Y-133533139D01*
X59574917Y-133564505D01*
X59574919Y-133564511D01*
X59662135Y-133735681D01*
X59662138Y-133735686D01*
X59751304Y-133858411D01*
X59775055Y-133891102D01*
X59910898Y-134026945D01*
X60066319Y-134139865D01*
X60237491Y-134227082D01*
X60420199Y-134286447D01*
X60609945Y-134316500D01*
X60609949Y-134316500D01*
X60802051Y-134316500D01*
X60802055Y-134316500D01*
X60991801Y-134286447D01*
X61174509Y-134227082D01*
X61345681Y-134139865D01*
X61501102Y-134026945D01*
X61636945Y-133891102D01*
X61749865Y-133735681D01*
X61820966Y-133596137D01*
X61875434Y-133533139D01*
X61952941Y-133502669D01*
X62035731Y-133511708D01*
X62104837Y-133558186D01*
X62131032Y-133596135D01*
X62138568Y-133610924D01*
X62202135Y-133735681D01*
X62202138Y-133735686D01*
X62291304Y-133858411D01*
X62315055Y-133891102D01*
X62450898Y-134026945D01*
X62606319Y-134139865D01*
X62777491Y-134227082D01*
X62960199Y-134286447D01*
X63149945Y-134316500D01*
X63149949Y-134316500D01*
X63342051Y-134316500D01*
X63342055Y-134316500D01*
X63531801Y-134286447D01*
X63714509Y-134227082D01*
X63885681Y-134139865D01*
X64041102Y-134026945D01*
X64176945Y-133891102D01*
X64289865Y-133735681D01*
X64377082Y-133564509D01*
X64436447Y-133381801D01*
X64466500Y-133192055D01*
X64466500Y-133005390D01*
X64866000Y-133005390D01*
X64866000Y-133186609D01*
X64901356Y-133364355D01*
X64970705Y-133531780D01*
X64970709Y-133531787D01*
X65023586Y-133610924D01*
X65407100Y-133227410D01*
X65413259Y-133250394D01*
X65465920Y-133341606D01*
X65540394Y-133416080D01*
X65631606Y-133468741D01*
X65654587Y-133474898D01*
X65271074Y-133858411D01*
X65271074Y-133858412D01*
X65350216Y-133911292D01*
X65517645Y-133980643D01*
X65517644Y-133980643D01*
X65695391Y-134016000D01*
X65876609Y-134016000D01*
X66054355Y-133980643D01*
X66221777Y-133911295D01*
X66300923Y-133858411D01*
X65917411Y-133474899D01*
X65940394Y-133468741D01*
X66031606Y-133416080D01*
X66106080Y-133341606D01*
X66158741Y-133250394D01*
X66164899Y-133227411D01*
X66548411Y-133610923D01*
X66601295Y-133531777D01*
X66670643Y-133364354D01*
X66670645Y-133364347D01*
X66697624Y-133228718D01*
X109909500Y-133228718D01*
X109909500Y-133471281D01*
X109909501Y-133471303D01*
X109941159Y-133711773D01*
X109941163Y-133711792D01*
X110003647Y-133944987D01*
X110003946Y-133946100D01*
X110084205Y-134139864D01*
X110096778Y-134170216D01*
X110096781Y-134170223D01*
X110163884Y-134286447D01*
X110218064Y-134380289D01*
X110365735Y-134572738D01*
X110537262Y-134744265D01*
X110729711Y-134891936D01*
X110799736Y-134932365D01*
X110939776Y-135013218D01*
X110939782Y-135013220D01*
X110939788Y-135013224D01*
X111163900Y-135106054D01*
X111398211Y-135168838D01*
X111398225Y-135168839D01*
X111398226Y-135168840D01*
X111638696Y-135200498D01*
X111638698Y-135200498D01*
X111638712Y-135200500D01*
X111638719Y-135200500D01*
X111881281Y-135200500D01*
X111881288Y-135200500D01*
X112121789Y-135168838D01*
X112356100Y-135106054D01*
X112580212Y-135013224D01*
X112580220Y-135013219D01*
X112580223Y-135013218D01*
X112633156Y-134982656D01*
X112790289Y-134891936D01*
X112982738Y-134744265D01*
X113154265Y-134572738D01*
X113301936Y-134380289D01*
X113423224Y-134170212D01*
X113516054Y-133946100D01*
X113578838Y-133711789D01*
X113610500Y-133471288D01*
X113610500Y-133228712D01*
X113593028Y-133096000D01*
X113578840Y-132988226D01*
X113578839Y-132988225D01*
X113578838Y-132988211D01*
X113516054Y-132753900D01*
X113423224Y-132529788D01*
X113423220Y-132529782D01*
X113423218Y-132529776D01*
X113342365Y-132389736D01*
X113301936Y-132319711D01*
X113154265Y-132127262D01*
X112982738Y-131955735D01*
X112790289Y-131808064D01*
X112784028Y-131804449D01*
X112580223Y-131686781D01*
X112580216Y-131686778D01*
X112580214Y-131686777D01*
X112580212Y-131686776D01*
X112356100Y-131593946D01*
X112356101Y-131593946D01*
X112356098Y-131593945D01*
X112191399Y-131549814D01*
X112121789Y-131531162D01*
X112121784Y-131531161D01*
X112121773Y-131531159D01*
X111881303Y-131499501D01*
X111881291Y-131499500D01*
X111881288Y-131499500D01*
X111638712Y-131499500D01*
X111638708Y-131499500D01*
X111638696Y-131499501D01*
X111398226Y-131531159D01*
X111398213Y-131531161D01*
X111398211Y-131531162D01*
X111398208Y-131531162D01*
X111398207Y-131531163D01*
X111163901Y-131593945D01*
X110939783Y-131686778D01*
X110939776Y-131686781D01*
X110729717Y-131808060D01*
X110729711Y-131808064D01*
X110537264Y-131955733D01*
X110365733Y-132127264D01*
X110218064Y-132319711D01*
X110218060Y-132319717D01*
X110096781Y-132529776D01*
X110096778Y-132529783D01*
X110003945Y-132753901D01*
X109941163Y-132988207D01*
X109941159Y-132988226D01*
X109909501Y-133228696D01*
X109909500Y-133228718D01*
X66697624Y-133228718D01*
X66705509Y-133189079D01*
X66705510Y-133189076D01*
X66705999Y-133186613D01*
X66706000Y-133186610D01*
X66706000Y-133005390D01*
X66670643Y-132827644D01*
X66601292Y-132660216D01*
X66601292Y-132660215D01*
X66548411Y-132581074D01*
X66164898Y-132964587D01*
X66158741Y-132941606D01*
X66106080Y-132850394D01*
X66031606Y-132775920D01*
X65940394Y-132723259D01*
X65917410Y-132717100D01*
X66300924Y-132333586D01*
X66221787Y-132280709D01*
X66221780Y-132280705D01*
X66054354Y-132211356D01*
X66054355Y-132211356D01*
X65876609Y-132176000D01*
X65695391Y-132176000D01*
X65517644Y-132211356D01*
X65350219Y-132280705D01*
X65271075Y-132333586D01*
X65654589Y-132717100D01*
X65631606Y-132723259D01*
X65540394Y-132775920D01*
X65465920Y-132850394D01*
X65413259Y-132941606D01*
X65407100Y-132964589D01*
X65023586Y-132581075D01*
X64970705Y-132660219D01*
X64901356Y-132827644D01*
X64866000Y-133005390D01*
X64466500Y-133005390D01*
X64466500Y-132999945D01*
X64436447Y-132810199D01*
X64377082Y-132627491D01*
X64289865Y-132456319D01*
X64176945Y-132300898D01*
X64041102Y-132165055D01*
X64041098Y-132165052D01*
X64041097Y-132165051D01*
X64041095Y-132165050D01*
X63885686Y-132052138D01*
X63885681Y-132052135D01*
X63714511Y-131964919D01*
X63714510Y-131964918D01*
X63714509Y-131964918D01*
X63626846Y-131936434D01*
X63531802Y-131905553D01*
X63493851Y-131899542D01*
X63342055Y-131875500D01*
X63149945Y-131875500D01*
X63023447Y-131895535D01*
X62960197Y-131905553D01*
X62777494Y-131964917D01*
X62777488Y-131964919D01*
X62606318Y-132052135D01*
X62606313Y-132052138D01*
X62450904Y-132165050D01*
X62450902Y-132165051D01*
X62315051Y-132300902D01*
X62315050Y-132300904D01*
X62202138Y-132456313D01*
X62202135Y-132456318D01*
X62131035Y-132595860D01*
X62076566Y-132658860D01*
X61999058Y-132689330D01*
X61916268Y-132680291D01*
X61847162Y-132633813D01*
X61820965Y-132595860D01*
X61813431Y-132581074D01*
X61749865Y-132456319D01*
X61636945Y-132300898D01*
X61501102Y-132165055D01*
X61501098Y-132165052D01*
X61501097Y-132165051D01*
X61501095Y-132165050D01*
X61345686Y-132052138D01*
X61345681Y-132052135D01*
X61174511Y-131964919D01*
X61174510Y-131964918D01*
X61174509Y-131964918D01*
X61086846Y-131936434D01*
X60991802Y-131905553D01*
X60953851Y-131899542D01*
X60802055Y-131875500D01*
X60609945Y-131875500D01*
X60483447Y-131895535D01*
X60420197Y-131905553D01*
X60237494Y-131964917D01*
X60237488Y-131964919D01*
X60066318Y-132052135D01*
X60066313Y-132052138D01*
X59910904Y-132165050D01*
X59910902Y-132165051D01*
X59775051Y-132300902D01*
X59775050Y-132300904D01*
X59662138Y-132456313D01*
X59662135Y-132456318D01*
X59574919Y-132627488D01*
X59574917Y-132627494D01*
X59515553Y-132810197D01*
X59515553Y-132810199D01*
X59485500Y-132999945D01*
X56430383Y-132999945D01*
X56428838Y-132988211D01*
X56366054Y-132753900D01*
X56273224Y-132529788D01*
X56273220Y-132529782D01*
X56273218Y-132529776D01*
X56192365Y-132389736D01*
X56151936Y-132319711D01*
X56004265Y-132127262D01*
X55832738Y-131955735D01*
X55640289Y-131808064D01*
X55634028Y-131804449D01*
X55430223Y-131686781D01*
X55430216Y-131686778D01*
X55430214Y-131686777D01*
X55430212Y-131686776D01*
X55206100Y-131593946D01*
X55206101Y-131593946D01*
X55206098Y-131593945D01*
X55041399Y-131549814D01*
X54971789Y-131531162D01*
X54971784Y-131531161D01*
X54971773Y-131531159D01*
X54731303Y-131499501D01*
X54731291Y-131499500D01*
X54731288Y-131499500D01*
X54488712Y-131499500D01*
X54488708Y-131499500D01*
X54488696Y-131499501D01*
X54248226Y-131531159D01*
X54248213Y-131531161D01*
X54248211Y-131531162D01*
X54248208Y-131531162D01*
X54248207Y-131531163D01*
X54013901Y-131593945D01*
X53789783Y-131686778D01*
X53789776Y-131686781D01*
X53579717Y-131808060D01*
X53579711Y-131808064D01*
X53387264Y-131955733D01*
X53215733Y-132127264D01*
X53068064Y-132319711D01*
X53068060Y-132319717D01*
X52946781Y-132529776D01*
X52946778Y-132529783D01*
X52853945Y-132753901D01*
X52791163Y-132988207D01*
X52791159Y-132988226D01*
X52759501Y-133228696D01*
X52759500Y-133228718D01*
X51300500Y-133228718D01*
X51300500Y-122671992D01*
X53979500Y-122671992D01*
X53979500Y-125072007D01*
X53989999Y-125174790D01*
X53990000Y-125174796D01*
X54045186Y-125341334D01*
X54045188Y-125341337D01*
X54137287Y-125490653D01*
X54261346Y-125614712D01*
X54314184Y-125647303D01*
X54410666Y-125706814D01*
X54567685Y-125758845D01*
X54577203Y-125761999D01*
X54577209Y-125762000D01*
X54658528Y-125770307D01*
X54679992Y-125772500D01*
X54679993Y-125772500D01*
X57080007Y-125772500D01*
X57080008Y-125772500D01*
X57107137Y-125769728D01*
X57182790Y-125762000D01*
X57182794Y-125761999D01*
X57182797Y-125761999D01*
X57349334Y-125706814D01*
X57498655Y-125614711D01*
X57622711Y-125490655D01*
X57714814Y-125341334D01*
X57769999Y-125174797D01*
X57780500Y-125072008D01*
X57780500Y-122671992D01*
X57769999Y-122569203D01*
X57714814Y-122402666D01*
X57622711Y-122253345D01*
X57498655Y-122129289D01*
X57498653Y-122129287D01*
X57349337Y-122037188D01*
X57349334Y-122037186D01*
X57182796Y-121982000D01*
X57182790Y-121981999D01*
X57087577Y-121972273D01*
X57080008Y-121971500D01*
X54679992Y-121971500D01*
X54672941Y-121972220D01*
X54577209Y-121981999D01*
X54577203Y-121982000D01*
X54410665Y-122037186D01*
X54410662Y-122037188D01*
X54261346Y-122129287D01*
X54137287Y-122253346D01*
X54045188Y-122402662D01*
X54045186Y-122402665D01*
X53990000Y-122569203D01*
X53989999Y-122569209D01*
X53979500Y-122671992D01*
X51300500Y-122671992D01*
X51300500Y-118747441D01*
X53979500Y-118747441D01*
X53979500Y-118996558D01*
X53979501Y-118996580D01*
X54012015Y-119243553D01*
X54012017Y-119243563D01*
X54012018Y-119243565D01*
X54017628Y-119264500D01*
X54076496Y-119484203D01*
X54101611Y-119544835D01*
X54163309Y-119693788D01*
X54171837Y-119714375D01*
X54288232Y-119915978D01*
X54296401Y-119930127D01*
X54448062Y-120127776D01*
X54624224Y-120303938D01*
X54821873Y-120455599D01*
X55037627Y-120580164D01*
X55267793Y-120675502D01*
X55267794Y-120675502D01*
X55267796Y-120675503D01*
X55296571Y-120683213D01*
X55508435Y-120739982D01*
X55508442Y-120739982D01*
X55508446Y-120739984D01*
X55755419Y-120772498D01*
X55755421Y-120772498D01*
X55755435Y-120772500D01*
X55755442Y-120772500D01*
X56004558Y-120772500D01*
X56004565Y-120772500D01*
X56018565Y-120770656D01*
X56251553Y-120739984D01*
X56251555Y-120739983D01*
X56251565Y-120739982D01*
X56492207Y-120675502D01*
X56722373Y-120580164D01*
X56938127Y-120455599D01*
X57135776Y-120303938D01*
X57311938Y-120127776D01*
X57463599Y-119930127D01*
X57588164Y-119714373D01*
X57683502Y-119484207D01*
X57747982Y-119243565D01*
X57752182Y-119211667D01*
X57780498Y-118996580D01*
X57780497Y-118996580D01*
X57780500Y-118996565D01*
X57780500Y-118747435D01*
X57780498Y-118747419D01*
X57747984Y-118500446D01*
X57747982Y-118500442D01*
X57747982Y-118500435D01*
X57694076Y-118299257D01*
X57683503Y-118259796D01*
X57667723Y-118221699D01*
X57588164Y-118029627D01*
X57463599Y-117813873D01*
X57311938Y-117616224D01*
X57135776Y-117440062D01*
X56938127Y-117288401D01*
X56903382Y-117268341D01*
X56722375Y-117163837D01*
X56492203Y-117068496D01*
X56305469Y-117018461D01*
X56251565Y-117004018D01*
X56251563Y-117004017D01*
X56251553Y-117004015D01*
X56004580Y-116971501D01*
X56004568Y-116971500D01*
X56004565Y-116971500D01*
X55755435Y-116971500D01*
X55755431Y-116971500D01*
X55755419Y-116971501D01*
X55508446Y-117004015D01*
X55508435Y-117004018D01*
X55267796Y-117068496D01*
X55037624Y-117163837D01*
X54821877Y-117288398D01*
X54821874Y-117288400D01*
X54624226Y-117440060D01*
X54448060Y-117616226D01*
X54296400Y-117813874D01*
X54296398Y-117813877D01*
X54171837Y-118029624D01*
X54076496Y-118259796D01*
X54012018Y-118500435D01*
X54012015Y-118500446D01*
X53979501Y-118747419D01*
X53979500Y-118747441D01*
X51300500Y-118747441D01*
X51300500Y-110555799D01*
X54280000Y-110555799D01*
X54280000Y-111584999D01*
X54280001Y-111585000D01*
X55252075Y-111585000D01*
X55230000Y-111695981D01*
X55230000Y-111824019D01*
X55252075Y-111935000D01*
X54280001Y-111935000D01*
X54280000Y-111935001D01*
X54280000Y-112964200D01*
X54282851Y-112994606D01*
X54327655Y-113122646D01*
X54327655Y-113122647D01*
X54408203Y-113231786D01*
X54408213Y-113231796D01*
X54517352Y-113312344D01*
X54645393Y-113357148D01*
X54675799Y-113360000D01*
X55704999Y-113360000D01*
X55705000Y-113359999D01*
X55705000Y-112387924D01*
X55815981Y-112410000D01*
X55944019Y-112410000D01*
X56055000Y-112387924D01*
X56055000Y-113359999D01*
X56055001Y-113360000D01*
X57084201Y-113360000D01*
X57114606Y-113357148D01*
X57242646Y-113312344D01*
X57242647Y-113312344D01*
X57351786Y-113231796D01*
X57351796Y-113231786D01*
X57432344Y-113122647D01*
X57432344Y-113122646D01*
X57477148Y-112994606D01*
X57480000Y-112964200D01*
X57480000Y-111935001D01*
X57479999Y-111935000D01*
X56507925Y-111935000D01*
X56530000Y-111824019D01*
X56530000Y-111695981D01*
X56507925Y-111585000D01*
X57479999Y-111585000D01*
X57480000Y-111584999D01*
X57480000Y-110555799D01*
X57477148Y-110525393D01*
X57432344Y-110397353D01*
X57432344Y-110397352D01*
X57351796Y-110288213D01*
X57351786Y-110288203D01*
X57242647Y-110207655D01*
X57114606Y-110162851D01*
X57084201Y-110160000D01*
X56055001Y-110160000D01*
X56055000Y-110160001D01*
X56055000Y-111132075D01*
X55944019Y-111110000D01*
X55815981Y-111110000D01*
X55705000Y-111132075D01*
X55705000Y-110160001D01*
X55704999Y-110160000D01*
X54675799Y-110160000D01*
X54645393Y-110162851D01*
X54517353Y-110207655D01*
X54517352Y-110207655D01*
X54408213Y-110288203D01*
X54408203Y-110288213D01*
X54327655Y-110397352D01*
X54327655Y-110397353D01*
X54282851Y-110525393D01*
X54280000Y-110555799D01*
X51300500Y-110555799D01*
X51300500Y-106635441D01*
X53979500Y-106635441D01*
X53979500Y-106884558D01*
X53979501Y-106884580D01*
X54012015Y-107131553D01*
X54012017Y-107131563D01*
X54012018Y-107131565D01*
X54020524Y-107163309D01*
X54076496Y-107372203D01*
X54171837Y-107602375D01*
X54253507Y-107743832D01*
X54296401Y-107818127D01*
X54448062Y-108015776D01*
X54624224Y-108191938D01*
X54821873Y-108343599D01*
X55037627Y-108468164D01*
X55267793Y-108563502D01*
X55267794Y-108563502D01*
X55267796Y-108563503D01*
X55307257Y-108574076D01*
X55508435Y-108627982D01*
X55508442Y-108627982D01*
X55508446Y-108627984D01*
X55755419Y-108660498D01*
X55755421Y-108660498D01*
X55755435Y-108660500D01*
X55755442Y-108660500D01*
X56004558Y-108660500D01*
X56004565Y-108660500D01*
X56018565Y-108658656D01*
X56251553Y-108627984D01*
X56251555Y-108627983D01*
X56251565Y-108627982D01*
X56492207Y-108563502D01*
X56722373Y-108468164D01*
X56938127Y-108343599D01*
X57135776Y-108191938D01*
X57311938Y-108015776D01*
X57463599Y-107818127D01*
X57588164Y-107602373D01*
X57683502Y-107372207D01*
X57747982Y-107131565D01*
X57750620Y-107111534D01*
X57780498Y-106884580D01*
X57780497Y-106884580D01*
X57780500Y-106884565D01*
X57780500Y-106635435D01*
X57774691Y-106591309D01*
X57747984Y-106388446D01*
X57747982Y-106388442D01*
X57747982Y-106388435D01*
X57683502Y-106147793D01*
X57588164Y-105917627D01*
X57463599Y-105701873D01*
X57311938Y-105504224D01*
X57135776Y-105328062D01*
X56938127Y-105176401D01*
X56868945Y-105136459D01*
X56722375Y-105051837D01*
X56695005Y-105040500D01*
X56617017Y-105008196D01*
X56492203Y-104956496D01*
X56285459Y-104901100D01*
X56251565Y-104892018D01*
X56251563Y-104892017D01*
X56251553Y-104892015D01*
X56004580Y-104859501D01*
X56004568Y-104859500D01*
X56004565Y-104859500D01*
X55755435Y-104859500D01*
X55755431Y-104859500D01*
X55755419Y-104859501D01*
X55508446Y-104892015D01*
X55508435Y-104892018D01*
X55267796Y-104956496D01*
X55037624Y-105051837D01*
X54821877Y-105176398D01*
X54821874Y-105176400D01*
X54624226Y-105328060D01*
X54448060Y-105504226D01*
X54296400Y-105701874D01*
X54296398Y-105701877D01*
X54171837Y-105917624D01*
X54076496Y-106147796D01*
X54012018Y-106388435D01*
X54012015Y-106388446D01*
X53979501Y-106635419D01*
X53979500Y-106635441D01*
X51300500Y-106635441D01*
X51300500Y-98490799D01*
X54280000Y-98490799D01*
X54280000Y-99519999D01*
X54280001Y-99520000D01*
X55252075Y-99520000D01*
X55230000Y-99630981D01*
X55230000Y-99759019D01*
X55252075Y-99870000D01*
X54280001Y-99870000D01*
X54280000Y-99870001D01*
X54280000Y-100899200D01*
X54282851Y-100929606D01*
X54327655Y-101057646D01*
X54327655Y-101057647D01*
X54408203Y-101166786D01*
X54408213Y-101166796D01*
X54517352Y-101247344D01*
X54645393Y-101292148D01*
X54675799Y-101295000D01*
X55704999Y-101295000D01*
X55705000Y-101294999D01*
X55705000Y-100322924D01*
X55815981Y-100345000D01*
X55944019Y-100345000D01*
X56055000Y-100322924D01*
X56055000Y-101294999D01*
X56055001Y-101295000D01*
X57084201Y-101295000D01*
X57114606Y-101292148D01*
X57242646Y-101247344D01*
X57242647Y-101247344D01*
X57351786Y-101166796D01*
X57351796Y-101166786D01*
X57432344Y-101057647D01*
X57432344Y-101057646D01*
X57477148Y-100929606D01*
X57480000Y-100899200D01*
X57480000Y-99870001D01*
X57479999Y-99870000D01*
X56507925Y-99870000D01*
X56530000Y-99759019D01*
X56530000Y-99630981D01*
X56507925Y-99520000D01*
X57479999Y-99520000D01*
X57480000Y-99519999D01*
X57480000Y-98490799D01*
X57477148Y-98460393D01*
X57432344Y-98332353D01*
X57432344Y-98332352D01*
X57351796Y-98223213D01*
X57351786Y-98223203D01*
X57242647Y-98142655D01*
X57114606Y-98097851D01*
X57084201Y-98095000D01*
X56055001Y-98095000D01*
X56055000Y-98095001D01*
X56055000Y-99067075D01*
X55944019Y-99045000D01*
X55815981Y-99045000D01*
X55705000Y-99067075D01*
X55705000Y-98095001D01*
X55704999Y-98095000D01*
X54675799Y-98095000D01*
X54645393Y-98097851D01*
X54517353Y-98142655D01*
X54517352Y-98142655D01*
X54408213Y-98223203D01*
X54408203Y-98223213D01*
X54327655Y-98332352D01*
X54327655Y-98332353D01*
X54282851Y-98460393D01*
X54280000Y-98490799D01*
X51300500Y-98490799D01*
X51300500Y-94570441D01*
X53979500Y-94570441D01*
X53979500Y-94819558D01*
X53979501Y-94819580D01*
X54012015Y-95066553D01*
X54012017Y-95066563D01*
X54012018Y-95066565D01*
X54014936Y-95077455D01*
X54076496Y-95307203D01*
X54111707Y-95392209D01*
X54171836Y-95537373D01*
X54296401Y-95753127D01*
X54448062Y-95950776D01*
X54624224Y-96126938D01*
X54821873Y-96278599D01*
X55037627Y-96403164D01*
X55267793Y-96498502D01*
X55267794Y-96498502D01*
X55267796Y-96498503D01*
X55307257Y-96509076D01*
X55508435Y-96562982D01*
X55508442Y-96562982D01*
X55508446Y-96562984D01*
X55755419Y-96595498D01*
X55755421Y-96595498D01*
X55755435Y-96595500D01*
X55755442Y-96595500D01*
X56004558Y-96595500D01*
X56004565Y-96595500D01*
X56018565Y-96593656D01*
X56251553Y-96562984D01*
X56251555Y-96562983D01*
X56251565Y-96562982D01*
X56492207Y-96498502D01*
X56722373Y-96403164D01*
X56938127Y-96278599D01*
X57135776Y-96126938D01*
X57311938Y-95950776D01*
X57463599Y-95753127D01*
X57588164Y-95537373D01*
X57683502Y-95307207D01*
X57747982Y-95066565D01*
X57765966Y-94929967D01*
X57780498Y-94819580D01*
X57780497Y-94819580D01*
X57780500Y-94819565D01*
X57780500Y-94570435D01*
X57768474Y-94479089D01*
X57747984Y-94323446D01*
X57747982Y-94323442D01*
X57747982Y-94323435D01*
X57692848Y-94117674D01*
X57683503Y-94082796D01*
X57683502Y-94082793D01*
X57588164Y-93852627D01*
X57463599Y-93636873D01*
X57311938Y-93439224D01*
X57135776Y-93263062D01*
X56938127Y-93111401D01*
X56917801Y-93099666D01*
X56722375Y-92986837D01*
X56682777Y-92970435D01*
X56574756Y-92925691D01*
X56492203Y-92891496D01*
X56305469Y-92841461D01*
X56251565Y-92827018D01*
X56251563Y-92827017D01*
X56251553Y-92827015D01*
X56004580Y-92794501D01*
X56004568Y-92794500D01*
X56004565Y-92794500D01*
X55755435Y-92794500D01*
X55755431Y-92794500D01*
X55755419Y-92794501D01*
X55508446Y-92827015D01*
X55508435Y-92827018D01*
X55267796Y-92891496D01*
X55037624Y-92986837D01*
X54821877Y-93111398D01*
X54821874Y-93111400D01*
X54624226Y-93263060D01*
X54448060Y-93439226D01*
X54296400Y-93636874D01*
X54296398Y-93636877D01*
X54171837Y-93852624D01*
X54076496Y-94082796D01*
X54012018Y-94323435D01*
X54012015Y-94323446D01*
X53979501Y-94570419D01*
X53979500Y-94570441D01*
X51300500Y-94570441D01*
X51300500Y-87952129D01*
X52574500Y-87952129D01*
X52574500Y-89847873D01*
X52580907Y-89907474D01*
X52580908Y-89907480D01*
X52631205Y-90042334D01*
X52631206Y-90042335D01*
X52717448Y-90157539D01*
X52717451Y-90157542D01*
X52717454Y-90157546D01*
X52717457Y-90157548D01*
X52717460Y-90157551D01*
X52832664Y-90243793D01*
X52832671Y-90243797D01*
X52892236Y-90266013D01*
X52967517Y-90294091D01*
X53027127Y-90300500D01*
X54922872Y-90300499D01*
X54922873Y-90300499D01*
X54982474Y-90294092D01*
X54982474Y-90294091D01*
X54982483Y-90294091D01*
X55117331Y-90243796D01*
X55232546Y-90157546D01*
X55318796Y-90042331D01*
X55321413Y-90035313D01*
X55368342Y-89966518D01*
X55441870Y-89927408D01*
X55525150Y-89926949D01*
X55597452Y-89963814D01*
X55602631Y-89968238D01*
X55602635Y-89968242D01*
X55602639Y-89968245D01*
X55602645Y-89968250D01*
X55741785Y-90069340D01*
X55780978Y-90097815D01*
X55977394Y-90197895D01*
X56187049Y-90266015D01*
X56404778Y-90300500D01*
X56404782Y-90300500D01*
X56625218Y-90300500D01*
X56625222Y-90300500D01*
X56842951Y-90266015D01*
X57052606Y-90197895D01*
X57249022Y-90097815D01*
X57427365Y-89968242D01*
X57583242Y-89812365D01*
X57712815Y-89634022D01*
X57812895Y-89437606D01*
X57881015Y-89227951D01*
X57915500Y-89010222D01*
X57915500Y-88789778D01*
X57898070Y-88679731D01*
X57905106Y-88596747D01*
X57946889Y-88529477D01*
X59173512Y-87302854D01*
X59173515Y-87302853D01*
X59221236Y-87255131D01*
X59238331Y-87240139D01*
X59262795Y-87221367D01*
X59302125Y-87198660D01*
X59319975Y-87191266D01*
X59363850Y-87179511D01*
X59394412Y-87175488D01*
X59417120Y-87174000D01*
X59484593Y-87174000D01*
X62220118Y-87174000D01*
X62300980Y-87193931D01*
X62363317Y-87249157D01*
X62392849Y-87327027D01*
X62382811Y-87409701D01*
X62335501Y-87478241D01*
X62299113Y-87503035D01*
X62243972Y-87531130D01*
X62243967Y-87531133D01*
X62040168Y-87679202D01*
X62040166Y-87679203D01*
X61862021Y-87857348D01*
X61862020Y-87857350D01*
X61713951Y-88061149D01*
X61713948Y-88061154D01*
X61599578Y-88285617D01*
X61599577Y-88285620D01*
X61578659Y-88350000D01*
X61521728Y-88525215D01*
X61482318Y-88774038D01*
X61482318Y-89025962D01*
X61521728Y-89274785D01*
X61566480Y-89412518D01*
X61599577Y-89514379D01*
X61599578Y-89514382D01*
X61713948Y-89738845D01*
X61713951Y-89738850D01*
X61836464Y-89907474D01*
X61862025Y-89942656D01*
X62040162Y-90120793D01*
X62142067Y-90194831D01*
X62240040Y-90266013D01*
X62243973Y-90268870D01*
X62468439Y-90383241D01*
X62708033Y-90461090D01*
X62956856Y-90500500D01*
X62956860Y-90500500D01*
X63208776Y-90500500D01*
X63208780Y-90500500D01*
X63457603Y-90461090D01*
X63697197Y-90383241D01*
X63921663Y-90268870D01*
X63980208Y-90226334D01*
X64057337Y-90194930D01*
X64140230Y-90202967D01*
X64205516Y-90244067D01*
X64255538Y-90294088D01*
X64304162Y-90342712D01*
X64369867Y-90383239D01*
X64453477Y-90434811D01*
X64453481Y-90434813D01*
X64453483Y-90434814D01*
X64532776Y-90461089D01*
X64620020Y-90489999D01*
X64620027Y-90490000D01*
X64642641Y-90492310D01*
X64666000Y-90494696D01*
X64744417Y-90522740D01*
X64800820Y-90584014D01*
X64822286Y-90664482D01*
X64822318Y-90667795D01*
X64822318Y-92567790D01*
X64802387Y-92648652D01*
X64747161Y-92710989D01*
X64669291Y-92740521D01*
X64586617Y-92730483D01*
X64518077Y-92683173D01*
X64510275Y-92673715D01*
X64473592Y-92625910D01*
X64447628Y-92592072D01*
X64252928Y-92397372D01*
X64034479Y-92229751D01*
X63796021Y-92092077D01*
X63764349Y-92078958D01*
X63541632Y-91986704D01*
X63541629Y-91986703D01*
X63324339Y-91928481D01*
X63275666Y-91915440D01*
X63275663Y-91915439D01*
X63275656Y-91915438D01*
X63002687Y-91879501D01*
X63002678Y-91879500D01*
X63002674Y-91879500D01*
X62727326Y-91879500D01*
X62727322Y-91879500D01*
X62727312Y-91879501D01*
X62454343Y-91915438D01*
X62454334Y-91915440D01*
X62188370Y-91986703D01*
X62188367Y-91986704D01*
X61933988Y-92092073D01*
X61933971Y-92092081D01*
X61695527Y-92229747D01*
X61695521Y-92229751D01*
X61477074Y-92397370D01*
X61282370Y-92592074D01*
X61114751Y-92810521D01*
X61114747Y-92810527D01*
X60977081Y-93048971D01*
X60977073Y-93048988D01*
X60871704Y-93303367D01*
X60871703Y-93303370D01*
X60800440Y-93569334D01*
X60800438Y-93569343D01*
X60764501Y-93842312D01*
X60764500Y-93842332D01*
X60764500Y-94117667D01*
X60764501Y-94117687D01*
X60800438Y-94390656D01*
X60800440Y-94390665D01*
X60871703Y-94656629D01*
X60871704Y-94656632D01*
X60963958Y-94879349D01*
X60977077Y-94911021D01*
X61114751Y-95149479D01*
X61282372Y-95367928D01*
X61477072Y-95562628D01*
X61695521Y-95730249D01*
X61933979Y-95867923D01*
X62066251Y-95922712D01*
X62188367Y-95973295D01*
X62188370Y-95973296D01*
X62272677Y-95995885D01*
X62454334Y-96044560D01*
X62727326Y-96080500D01*
X62727333Y-96080500D01*
X63002667Y-96080500D01*
X63002674Y-96080500D01*
X63275666Y-96044560D01*
X63505995Y-95982843D01*
X63541629Y-95973296D01*
X63541632Y-95973295D01*
X63595997Y-95950776D01*
X63796021Y-95867923D01*
X64034479Y-95730249D01*
X64252928Y-95562628D01*
X64447628Y-95367928D01*
X64510275Y-95286283D01*
X64575312Y-95234266D01*
X64657074Y-95218429D01*
X64736830Y-95242404D01*
X64796310Y-95300697D01*
X64821886Y-95379954D01*
X64822318Y-95392209D01*
X64822318Y-97781567D01*
X64820829Y-97804275D01*
X64818510Y-97821894D01*
X64806755Y-97865761D01*
X64804356Y-97871553D01*
X64781643Y-97910894D01*
X64770832Y-97924983D01*
X64755826Y-97942095D01*
X63884384Y-98813537D01*
X63813113Y-98856621D01*
X63761347Y-98864500D01*
X61464992Y-98864500D01*
X61362207Y-98875000D01*
X61362204Y-98875000D01*
X61195667Y-98930185D01*
X61195662Y-98930187D01*
X61046345Y-99022287D01*
X60922287Y-99146345D01*
X60830187Y-99295662D01*
X60830186Y-99295664D01*
X60775000Y-99462203D01*
X60774999Y-99462209D01*
X60764500Y-99564991D01*
X60764500Y-102365007D01*
X60775000Y-102467792D01*
X60775000Y-102467795D01*
X60830185Y-102634332D01*
X60830187Y-102634337D01*
X60891783Y-102734199D01*
X60922288Y-102783656D01*
X61046344Y-102907712D01*
X61131306Y-102960117D01*
X61195662Y-102999812D01*
X61195664Y-102999813D01*
X61195666Y-102999814D01*
X61362203Y-103054999D01*
X61362209Y-103055000D01*
X61390888Y-103057929D01*
X61464991Y-103065500D01*
X61854654Y-103065499D01*
X61935512Y-103085429D01*
X61997850Y-103140655D01*
X62027382Y-103218525D01*
X62017344Y-103301200D01*
X61970035Y-103369740D01*
X61912123Y-103403733D01*
X61877453Y-103415865D01*
X61877452Y-103415865D01*
X61675017Y-103513352D01*
X61675016Y-103513352D01*
X61484757Y-103632900D01*
X61309082Y-103772995D01*
X61309081Y-103772997D01*
X61274863Y-103807211D01*
X61274853Y-103807225D01*
X59594989Y-105487091D01*
X59449988Y-105632091D01*
X59309900Y-105807757D01*
X59190352Y-105998016D01*
X59190352Y-105998017D01*
X59092869Y-106200445D01*
X59092867Y-106200450D01*
X59085272Y-106222155D01*
X59018653Y-106412539D01*
X58968658Y-106631581D01*
X58968658Y-106631582D01*
X58943500Y-106854861D01*
X58943500Y-114252136D01*
X58968658Y-114475416D01*
X58968659Y-114475422D01*
X59018652Y-114694457D01*
X59018654Y-114694462D01*
X59018655Y-114694467D01*
X59092866Y-114906550D01*
X59190356Y-115108991D01*
X59309900Y-115299243D01*
X59376337Y-115382552D01*
X59449997Y-115474919D01*
X59529433Y-115554354D01*
X59570982Y-115595902D01*
X59570983Y-115595904D01*
X59570984Y-115595904D01*
X62555175Y-118580096D01*
X62598258Y-118651365D01*
X62603287Y-118734495D01*
X62569107Y-118810440D01*
X62555174Y-118826167D01*
X61851779Y-119529561D01*
X61851780Y-119529562D01*
X61821751Y-119559591D01*
X61686052Y-119736439D01*
X61686048Y-119736445D01*
X61582395Y-119915978D01*
X61574595Y-119929488D01*
X61574592Y-119929493D01*
X61574592Y-119929495D01*
X61489289Y-120135433D01*
X61489288Y-120135436D01*
X61431596Y-120350751D01*
X61431593Y-120350762D01*
X61402501Y-120571742D01*
X61402500Y-120571764D01*
X61402500Y-123199732D01*
X61382569Y-123280594D01*
X61373176Y-123296401D01*
X61304987Y-123398452D01*
X61304985Y-123398455D01*
X61237106Y-123562332D01*
X61237106Y-123562334D01*
X61202500Y-123736309D01*
X61202500Y-123913691D01*
X61230184Y-124052871D01*
X61237106Y-124087667D01*
X61304985Y-124251544D01*
X61304988Y-124251550D01*
X61389015Y-124377303D01*
X61403536Y-124399035D01*
X61528965Y-124524464D01*
X61578127Y-124557313D01*
X61676449Y-124623011D01*
X61676453Y-124623013D01*
X61840334Y-124690894D01*
X62014309Y-124725500D01*
X62014312Y-124725500D01*
X62191687Y-124725500D01*
X62191691Y-124725500D01*
X62365666Y-124690894D01*
X62529547Y-124623013D01*
X62677035Y-124524464D01*
X62802464Y-124399035D01*
X62901013Y-124251547D01*
X62968894Y-124087666D01*
X63003500Y-123913691D01*
X63003500Y-123736309D01*
X62968894Y-123562334D01*
X62901013Y-123398453D01*
X62832824Y-123296401D01*
X62804472Y-123218095D01*
X62803500Y-123199732D01*
X62803500Y-120694613D01*
X62804987Y-120671915D01*
X62810715Y-120628402D01*
X62822471Y-120584533D01*
X62827761Y-120571764D01*
X62834860Y-120554622D01*
X62857563Y-120515298D01*
X62884281Y-120480477D01*
X62899277Y-120463379D01*
X63147606Y-120215050D01*
X63545830Y-119816824D01*
X63617101Y-119773740D01*
X63700231Y-119768711D01*
X63776176Y-119802891D01*
X63791904Y-119816824D01*
X71846537Y-127871457D01*
X71889621Y-127942728D01*
X71897500Y-127994494D01*
X71897500Y-128114541D01*
X71928259Y-128269176D01*
X71935949Y-128307836D01*
X72011366Y-128489911D01*
X72011368Y-128489915D01*
X72120857Y-128653777D01*
X72120858Y-128653778D01*
X72120861Y-128653782D01*
X72260218Y-128793139D01*
X72260221Y-128793141D01*
X72260222Y-128793142D01*
X72424084Y-128902631D01*
X72424086Y-128902632D01*
X72606165Y-128978051D01*
X72799459Y-129016500D01*
X72799462Y-129016500D01*
X74393537Y-129016500D01*
X74393541Y-129016500D01*
X74586835Y-128978051D01*
X74768914Y-128902632D01*
X74932782Y-128793139D01*
X75072139Y-128653782D01*
X75181632Y-128489914D01*
X75257051Y-128307835D01*
X75295500Y-128114541D01*
X75295500Y-127917459D01*
X75257051Y-127724165D01*
X75182430Y-127544012D01*
X75181633Y-127542088D01*
X75181631Y-127542084D01*
X75072142Y-127378222D01*
X75072141Y-127378221D01*
X75072139Y-127378218D01*
X74932782Y-127238861D01*
X74932778Y-127238858D01*
X74932777Y-127238857D01*
X74768915Y-127129368D01*
X74768911Y-127129366D01*
X74586836Y-127053949D01*
X74538511Y-127044336D01*
X74393541Y-127015500D01*
X74393538Y-127015500D01*
X73787075Y-127015500D01*
X73706213Y-126995569D01*
X73643876Y-126940343D01*
X73639758Y-126934095D01*
X73532100Y-126762758D01*
X73392008Y-126587087D01*
X73364005Y-126559084D01*
X67355456Y-120550536D01*
X67312373Y-120479266D01*
X67307344Y-120396136D01*
X67341524Y-120320191D01*
X67407082Y-120268829D01*
X67478494Y-120253500D01*
X89887537Y-120253500D01*
X89887541Y-120253500D01*
X90080835Y-120215051D01*
X90262914Y-120139632D01*
X90426782Y-120030139D01*
X90566139Y-119890782D01*
X90675632Y-119726914D01*
X90751051Y-119544835D01*
X90789500Y-119351541D01*
X90789500Y-117863177D01*
X90809431Y-117782315D01*
X90840457Y-117740146D01*
X90995459Y-117585145D01*
X91066727Y-117542063D01*
X91118493Y-117534184D01*
X91532004Y-117534184D01*
X91532008Y-117534184D01*
X91563818Y-117530934D01*
X91646284Y-117542543D01*
X91713912Y-117591147D01*
X91751205Y-117665613D01*
X91755500Y-117704033D01*
X91755500Y-124288386D01*
X91754011Y-124311098D01*
X91748285Y-124354590D01*
X91736529Y-124398465D01*
X91724141Y-124428372D01*
X91701429Y-124467711D01*
X91674724Y-124502513D01*
X91659718Y-124519624D01*
X90229620Y-125949721D01*
X90212509Y-125964726D01*
X90177711Y-125991428D01*
X90138372Y-126014141D01*
X90108465Y-126026529D01*
X90064590Y-126038285D01*
X90036668Y-126041960D01*
X90021096Y-126044011D01*
X89998386Y-126045500D01*
X88375209Y-126045500D01*
X88294347Y-126025569D01*
X88232010Y-125970343D01*
X88202478Y-125892473D01*
X88212516Y-125809799D01*
X88214453Y-125804915D01*
X88215207Y-125803094D01*
X88241894Y-125738666D01*
X88276500Y-125564691D01*
X88276500Y-125387309D01*
X88241894Y-125213334D01*
X88187379Y-125081722D01*
X88174014Y-125049455D01*
X88174011Y-125049449D01*
X88075465Y-124901967D01*
X88075464Y-124901965D01*
X87950035Y-124776536D01*
X87947030Y-124774528D01*
X87802550Y-124677988D01*
X87802544Y-124677985D01*
X87638667Y-124610106D01*
X87595172Y-124601454D01*
X87464691Y-124575500D01*
X87287309Y-124575500D01*
X87182924Y-124596263D01*
X87113332Y-124610106D01*
X86949455Y-124677985D01*
X86949452Y-124677987D01*
X86847401Y-124746176D01*
X86769095Y-124774528D01*
X86750732Y-124775500D01*
X86520215Y-124775500D01*
X86408758Y-124775500D01*
X86408754Y-124775500D01*
X86408742Y-124775501D01*
X86187762Y-124804593D01*
X86187751Y-124804596D01*
X85972436Y-124862288D01*
X85972433Y-124862289D01*
X85766495Y-124947592D01*
X85766488Y-124947595D01*
X85766481Y-124947598D01*
X85766477Y-124947601D01*
X85573445Y-125059048D01*
X85573439Y-125059052D01*
X85396595Y-125194748D01*
X85348168Y-125243176D01*
X81847620Y-128743721D01*
X81830509Y-128758726D01*
X81795711Y-128785428D01*
X81756372Y-128808141D01*
X81726465Y-128820529D01*
X81682590Y-128832285D01*
X81654668Y-128835960D01*
X81639096Y-128838011D01*
X81616386Y-128839500D01*
X77460268Y-128839500D01*
X77379406Y-128819569D01*
X77363599Y-128810176D01*
X77261547Y-128741987D01*
X77261544Y-128741985D01*
X77097667Y-128674106D01*
X77054172Y-128665454D01*
X76923691Y-128639500D01*
X76746309Y-128639500D01*
X76641924Y-128660263D01*
X76572332Y-128674106D01*
X76408455Y-128741985D01*
X76408449Y-128741988D01*
X76260967Y-128840534D01*
X76135534Y-128965967D01*
X76036988Y-129113449D01*
X76036985Y-129113455D01*
X75969106Y-129277332D01*
X75969106Y-129277334D01*
X75934500Y-129451309D01*
X75934500Y-129628691D01*
X75949271Y-129702948D01*
X75969106Y-129802667D01*
X76036985Y-129966544D01*
X76036988Y-129966550D01*
X76105048Y-130068407D01*
X76135536Y-130114035D01*
X76260965Y-130239464D01*
X76306402Y-130269824D01*
X76408449Y-130338011D01*
X76408453Y-130338013D01*
X76572334Y-130405894D01*
X76746309Y-130440500D01*
X76746312Y-130440500D01*
X76923687Y-130440500D01*
X76923691Y-130440500D01*
X77097666Y-130405894D01*
X77261547Y-130338013D01*
X77363599Y-130269824D01*
X77441905Y-130241472D01*
X77460268Y-130240500D01*
X81739235Y-130240500D01*
X81739242Y-130240500D01*
X81751770Y-130238850D01*
X81960237Y-130211406D01*
X81960239Y-130211405D01*
X81960249Y-130211404D01*
X82175567Y-130153710D01*
X82381512Y-130068405D01*
X82574561Y-129956948D01*
X82751410Y-129821247D01*
X82788195Y-129784462D01*
X85347227Y-127225427D01*
X85418498Y-127182344D01*
X85501628Y-127177315D01*
X85577573Y-127211495D01*
X85614939Y-127251795D01*
X85660536Y-127320035D01*
X85785965Y-127445464D01*
X85800847Y-127455408D01*
X85933449Y-127544011D01*
X85933453Y-127544013D01*
X86097334Y-127611894D01*
X86271309Y-127646500D01*
X86271312Y-127646500D01*
X86448687Y-127646500D01*
X86448691Y-127646500D01*
X86622666Y-127611894D01*
X86786547Y-127544013D01*
X86888599Y-127475824D01*
X86966905Y-127447472D01*
X86985268Y-127446500D01*
X90121235Y-127446500D01*
X90121242Y-127446500D01*
X90133770Y-127444850D01*
X90342237Y-127417406D01*
X90342239Y-127417405D01*
X90342249Y-127417404D01*
X90557567Y-127359710D01*
X90763512Y-127274405D01*
X90956561Y-127162948D01*
X91133410Y-127027247D01*
X91163436Y-126997221D01*
X92697621Y-125463035D01*
X92737247Y-125423410D01*
X92872948Y-125246561D01*
X92954814Y-125104764D01*
X93012503Y-125044705D01*
X93091499Y-125018332D01*
X93173702Y-125031691D01*
X93240281Y-125081722D01*
X93275984Y-125156963D01*
X93279500Y-125191768D01*
X93279500Y-125558387D01*
X93278011Y-125581096D01*
X93273671Y-125614060D01*
X93272285Y-125624591D01*
X93260529Y-125668465D01*
X93248141Y-125698372D01*
X93225429Y-125737710D01*
X93198728Y-125772507D01*
X93195742Y-125775910D01*
X93195311Y-125776818D01*
X93194251Y-125777611D01*
X93183722Y-125789619D01*
X90483620Y-128489721D01*
X90466509Y-128504726D01*
X90431711Y-128531428D01*
X90392372Y-128554141D01*
X90362465Y-128566529D01*
X90318590Y-128578285D01*
X90290668Y-128581960D01*
X90275096Y-128584011D01*
X90252386Y-128585500D01*
X86985268Y-128585500D01*
X86904406Y-128565569D01*
X86888599Y-128556176D01*
X86786547Y-128487987D01*
X86786544Y-128487985D01*
X86622667Y-128420106D01*
X86579172Y-128411454D01*
X86448691Y-128385500D01*
X86271309Y-128385500D01*
X86166924Y-128406263D01*
X86097332Y-128420106D01*
X85933455Y-128487985D01*
X85933449Y-128487988D01*
X85785967Y-128586534D01*
X85660534Y-128711967D01*
X85561988Y-128859449D01*
X85561985Y-128859455D01*
X85494106Y-129023332D01*
X85494106Y-129023334D01*
X85459500Y-129197309D01*
X85459500Y-129374691D01*
X85474741Y-129451312D01*
X85494106Y-129548667D01*
X85561985Y-129712544D01*
X85561988Y-129712550D01*
X85634619Y-129821248D01*
X85660536Y-129860035D01*
X85785965Y-129985464D01*
X85831402Y-130015824D01*
X85933449Y-130084011D01*
X85933453Y-130084013D01*
X86097334Y-130151894D01*
X86271309Y-130186500D01*
X86271312Y-130186500D01*
X86448687Y-130186500D01*
X86448691Y-130186500D01*
X86622666Y-130151894D01*
X86786547Y-130084013D01*
X86888599Y-130015824D01*
X86966905Y-129987472D01*
X86985268Y-129986500D01*
X90375235Y-129986500D01*
X90375242Y-129986500D01*
X90409689Y-129981965D01*
X90596237Y-129957406D01*
X90596238Y-129957405D01*
X90596249Y-129957404D01*
X90672760Y-129936902D01*
X90756019Y-129935226D01*
X90830526Y-129972435D01*
X90879207Y-130040008D01*
X90890909Y-130122463D01*
X90878546Y-130171559D01*
X90862042Y-130211404D01*
X90828106Y-130293334D01*
X90793500Y-130467309D01*
X90793500Y-130644691D01*
X90821184Y-130783871D01*
X90828106Y-130818667D01*
X90895985Y-130982544D01*
X90895988Y-130982550D01*
X90994089Y-131129367D01*
X90994536Y-131130035D01*
X91119965Y-131255464D01*
X91169127Y-131288313D01*
X91267449Y-131354011D01*
X91267453Y-131354013D01*
X91431334Y-131421894D01*
X91605309Y-131456500D01*
X91605312Y-131456500D01*
X91782687Y-131456500D01*
X91782691Y-131456500D01*
X91956666Y-131421894D01*
X92120547Y-131354013D01*
X92268035Y-131255464D01*
X92393464Y-131130035D01*
X92492013Y-130982547D01*
X92559894Y-130818666D01*
X92583839Y-130698285D01*
X92619161Y-130622869D01*
X92631449Y-130609206D01*
X95737296Y-127503360D01*
X95785247Y-127455410D01*
X95920948Y-127278561D01*
X96032405Y-127085512D01*
X96117710Y-126879567D01*
X96175404Y-126664249D01*
X96191293Y-126543564D01*
X96204498Y-126443257D01*
X96204497Y-126443257D01*
X96204500Y-126443242D01*
X96204500Y-126331785D01*
X96204500Y-126295935D01*
X96204500Y-93900863D01*
X97043500Y-93900863D01*
X97043500Y-125535573D01*
X97062795Y-125706814D01*
X97066383Y-125738666D01*
X97068658Y-125758852D01*
X97068658Y-125758853D01*
X97118653Y-125977895D01*
X97128269Y-126005375D01*
X97192867Y-126189985D01*
X97192869Y-126189989D01*
X97290352Y-126392417D01*
X97290352Y-126392418D01*
X97290354Y-126392422D01*
X97290356Y-126392425D01*
X97409900Y-126582677D01*
X97549992Y-126758348D01*
X97600896Y-126809251D01*
X97600897Y-126809253D01*
X97600898Y-126809253D01*
X97676852Y-126885207D01*
X97719936Y-126956478D01*
X97727815Y-127008244D01*
X97727815Y-127421757D01*
X97738315Y-127524542D01*
X97738315Y-127524545D01*
X97793500Y-127691082D01*
X97793502Y-127691087D01*
X97813904Y-127724163D01*
X97885603Y-127840406D01*
X98009659Y-127964462D01*
X98058349Y-127994494D01*
X98158977Y-128056562D01*
X98158979Y-128056563D01*
X98158981Y-128056564D01*
X98260566Y-128090226D01*
X98325518Y-128111749D01*
X98325524Y-128111750D01*
X98352808Y-128114537D01*
X98428306Y-128122250D01*
X99628323Y-128122249D01*
X99731112Y-128111749D01*
X99897649Y-128056564D01*
X100046971Y-127964462D01*
X100171027Y-127840406D01*
X100263129Y-127691084D01*
X100263130Y-127691079D01*
X100267010Y-127682759D01*
X100319243Y-127617893D01*
X100395638Y-127584731D01*
X100478693Y-127590870D01*
X100549382Y-127634904D01*
X100565481Y-127654011D01*
X100576344Y-127668963D01*
X100576346Y-127668965D01*
X100576349Y-127668969D01*
X100721096Y-127813716D01*
X100721099Y-127813718D01*
X100721101Y-127813720D01*
X100757829Y-127840404D01*
X100870715Y-127922420D01*
X100886697Y-127934031D01*
X100886703Y-127934036D01*
X100886705Y-127934037D01*
X101069096Y-128026970D01*
X101263781Y-128090227D01*
X101465963Y-128122250D01*
X101465966Y-128122250D01*
X101670664Y-128122250D01*
X101670667Y-128122250D01*
X101872849Y-128090227D01*
X102067534Y-128026970D01*
X102249925Y-127934037D01*
X102415534Y-127813716D01*
X102560281Y-127668969D01*
X102680602Y-127503360D01*
X102773535Y-127320969D01*
X102836792Y-127126284D01*
X102868815Y-126924102D01*
X102868815Y-126719398D01*
X102836792Y-126517216D01*
X102773535Y-126322531D01*
X102680602Y-126140140D01*
X102604428Y-126035295D01*
X102560285Y-125974536D01*
X102560283Y-125974534D01*
X102560281Y-125974531D01*
X102415534Y-125829784D01*
X102415530Y-125829781D01*
X102415528Y-125829779D01*
X102249932Y-125709468D01*
X102249926Y-125709463D01*
X102067537Y-125616531D01*
X102067534Y-125616530D01*
X101976453Y-125586936D01*
X101872849Y-125553273D01*
X101670667Y-125521250D01*
X101465963Y-125521250D01*
X101263781Y-125553273D01*
X101069095Y-125616530D01*
X101069092Y-125616531D01*
X100886703Y-125709463D01*
X100886697Y-125709468D01*
X100721101Y-125829779D01*
X100576345Y-125974535D01*
X100576344Y-125974537D01*
X100565479Y-125989491D01*
X100501824Y-126043194D01*
X100420504Y-126061163D01*
X100340148Y-126039283D01*
X100279164Y-125982565D01*
X100267012Y-125960744D01*
X100263130Y-125952419D01*
X100263129Y-125952416D01*
X100171027Y-125803094D01*
X100046971Y-125679038D01*
X99958698Y-125624591D01*
X99897652Y-125586937D01*
X99897650Y-125586936D01*
X99731111Y-125531750D01*
X99731105Y-125531749D01*
X99635893Y-125522023D01*
X99628324Y-125521250D01*
X99628323Y-125521250D01*
X99218500Y-125521250D01*
X99137638Y-125501319D01*
X99075301Y-125446093D01*
X99045769Y-125368223D01*
X99044500Y-125347250D01*
X99044500Y-120539778D01*
X110613500Y-120539778D01*
X110613500Y-120760222D01*
X110615445Y-120772500D01*
X110647986Y-120977956D01*
X110716106Y-121187609D01*
X110816185Y-121384022D01*
X110816188Y-121384027D01*
X110945753Y-121562359D01*
X110945755Y-121562361D01*
X110945758Y-121562365D01*
X111101635Y-121718242D01*
X111101638Y-121718244D01*
X111101640Y-121718246D01*
X111279972Y-121847811D01*
X111279978Y-121847815D01*
X111476394Y-121947895D01*
X111686049Y-122016015D01*
X111903778Y-122050500D01*
X111903782Y-122050500D01*
X112124218Y-122050500D01*
X112124222Y-122050500D01*
X112341951Y-122016015D01*
X112551606Y-121947895D01*
X112748022Y-121847815D01*
X112926365Y-121718242D01*
X113082242Y-121562365D01*
X113211815Y-121384022D01*
X113311895Y-121187606D01*
X113380015Y-120977951D01*
X113414500Y-120760222D01*
X113414500Y-120539778D01*
X113380015Y-120322049D01*
X113311895Y-120112394D01*
X113211815Y-119915978D01*
X113211811Y-119915972D01*
X113082246Y-119737640D01*
X113082244Y-119737638D01*
X113082242Y-119737635D01*
X112926365Y-119581758D01*
X112846975Y-119524078D01*
X112793272Y-119460424D01*
X112775301Y-119379104D01*
X112797180Y-119298748D01*
X112853896Y-119237763D01*
X112925484Y-119212516D01*
X112925315Y-119211667D01*
X112931231Y-119210490D01*
X112932210Y-119210145D01*
X112933707Y-119209997D01*
X112992037Y-119198395D01*
X113058190Y-119154193D01*
X113058193Y-119154190D01*
X113102395Y-119088037D01*
X113113999Y-119029696D01*
X113114000Y-119029695D01*
X113114000Y-118285001D01*
X113113999Y-118285000D01*
X112432579Y-118285000D01*
X112433333Y-118283694D01*
X112464000Y-118169244D01*
X112464000Y-118050756D01*
X112433333Y-117936306D01*
X112432579Y-117935000D01*
X113113999Y-117935000D01*
X113114000Y-117934999D01*
X113114000Y-117190305D01*
X113113999Y-117190303D01*
X113102395Y-117131962D01*
X113058193Y-117065809D01*
X113058190Y-117065806D01*
X112992037Y-117021604D01*
X112933696Y-117010000D01*
X112189001Y-117010000D01*
X112189000Y-117010001D01*
X112189000Y-117691421D01*
X112187694Y-117690667D01*
X112073244Y-117660000D01*
X111954756Y-117660000D01*
X111840306Y-117690667D01*
X111839000Y-117691421D01*
X111839000Y-117010001D01*
X111838999Y-117010000D01*
X111094303Y-117010000D01*
X111035962Y-117021604D01*
X110969809Y-117065806D01*
X110969806Y-117065809D01*
X110925604Y-117131962D01*
X110914000Y-117190303D01*
X110914000Y-117934999D01*
X110914001Y-117935000D01*
X111595421Y-117935000D01*
X111594667Y-117936306D01*
X111564000Y-118050756D01*
X111564000Y-118169244D01*
X111594667Y-118283694D01*
X111595421Y-118285000D01*
X110914001Y-118285000D01*
X110914000Y-118285001D01*
X110914000Y-119029696D01*
X110925604Y-119088037D01*
X110969806Y-119154190D01*
X110969809Y-119154193D01*
X111035962Y-119198395D01*
X111094302Y-119209999D01*
X111095790Y-119210146D01*
X111096757Y-119210487D01*
X111102685Y-119211667D01*
X111102514Y-119212522D01*
X111174311Y-119237900D01*
X111230940Y-119298966D01*
X111252704Y-119379353D01*
X111234617Y-119460647D01*
X111181024Y-119524077D01*
X111101643Y-119581750D01*
X110945753Y-119737640D01*
X110816188Y-119915972D01*
X110816185Y-119915977D01*
X110716106Y-120112390D01*
X110647986Y-120322043D01*
X110647985Y-120322048D01*
X110647985Y-120322049D01*
X110613500Y-120539778D01*
X99044500Y-120539778D01*
X99044500Y-113800908D01*
X99718500Y-113800908D01*
X99718500Y-114037092D01*
X99755447Y-114270368D01*
X99822069Y-114475409D01*
X99828432Y-114494992D01*
X99828433Y-114494995D01*
X99846154Y-114529774D01*
X99935657Y-114705433D01*
X100074483Y-114896510D01*
X100241490Y-115063517D01*
X100432567Y-115202343D01*
X100643008Y-115309568D01*
X100867632Y-115382553D01*
X101100908Y-115419500D01*
X101100911Y-115419500D01*
X101337089Y-115419500D01*
X101337092Y-115419500D01*
X101570368Y-115382553D01*
X101794992Y-115309568D01*
X102005433Y-115202343D01*
X102196510Y-115063517D01*
X102363517Y-114896510D01*
X102502343Y-114705433D01*
X102609568Y-114494992D01*
X102682553Y-114270368D01*
X102719500Y-114037092D01*
X102719500Y-113800908D01*
X102682553Y-113567632D01*
X102609568Y-113343008D01*
X102502343Y-113132567D01*
X102363517Y-112941490D01*
X102196510Y-112774483D01*
X102005433Y-112635657D01*
X101902144Y-112583028D01*
X101794995Y-112528433D01*
X101794992Y-112528432D01*
X101783774Y-112524787D01*
X101570368Y-112455447D01*
X101337092Y-112418500D01*
X101100908Y-112418500D01*
X100867632Y-112455447D01*
X100766013Y-112488465D01*
X100643007Y-112528432D01*
X100643004Y-112528433D01*
X100432567Y-112635657D01*
X100241488Y-112774484D01*
X100074484Y-112941488D01*
X99935657Y-113132567D01*
X99828433Y-113343004D01*
X99828432Y-113343007D01*
X99812969Y-113390599D01*
X99755447Y-113567632D01*
X99718500Y-113800908D01*
X99044500Y-113800908D01*
X99044500Y-108281499D01*
X99064431Y-108200637D01*
X99119657Y-108138300D01*
X99197527Y-108108768D01*
X99218500Y-108107499D01*
X99609822Y-108107499D01*
X99609823Y-108107499D01*
X99712612Y-108096999D01*
X99879149Y-108041814D01*
X100028471Y-107949712D01*
X100152527Y-107825656D01*
X100244629Y-107676334D01*
X100244630Y-107676329D01*
X100248510Y-107668009D01*
X100300743Y-107603143D01*
X100377138Y-107569981D01*
X100460193Y-107576120D01*
X100530882Y-107620154D01*
X100546981Y-107639261D01*
X100557844Y-107654213D01*
X100557846Y-107654215D01*
X100557849Y-107654219D01*
X100702596Y-107798966D01*
X100702599Y-107798968D01*
X100702601Y-107798970D01*
X100868197Y-107919281D01*
X100868203Y-107919286D01*
X100868205Y-107919287D01*
X101050596Y-108012220D01*
X101245281Y-108075477D01*
X101447463Y-108107500D01*
X101447466Y-108107500D01*
X101652164Y-108107500D01*
X101652167Y-108107500D01*
X101854349Y-108075477D01*
X102049034Y-108012220D01*
X102231425Y-107919287D01*
X102397034Y-107798966D01*
X102541781Y-107654219D01*
X102662102Y-107488610D01*
X102755035Y-107306219D01*
X102818292Y-107111534D01*
X102850315Y-106909352D01*
X102850315Y-106704648D01*
X102818292Y-106502466D01*
X102755035Y-106307781D01*
X102727354Y-106253455D01*
X102662101Y-106125388D01*
X102662096Y-106125382D01*
X102541785Y-105959786D01*
X102541783Y-105959784D01*
X102541781Y-105959781D01*
X102397034Y-105815034D01*
X102397030Y-105815031D01*
X102397028Y-105815029D01*
X102231432Y-105694718D01*
X102231426Y-105694713D01*
X102049037Y-105601781D01*
X102049034Y-105601780D01*
X101957953Y-105572186D01*
X101854349Y-105538523D01*
X101652167Y-105506500D01*
X101447463Y-105506500D01*
X101245281Y-105538523D01*
X101050595Y-105601780D01*
X101050592Y-105601781D01*
X100868203Y-105694713D01*
X100868197Y-105694718D01*
X100702601Y-105815029D01*
X100557845Y-105959785D01*
X100557844Y-105959787D01*
X100546979Y-105974741D01*
X100483324Y-106028444D01*
X100402004Y-106046413D01*
X100321648Y-106024533D01*
X100260664Y-105967815D01*
X100248512Y-105945994D01*
X100244630Y-105937669D01*
X100244629Y-105937666D01*
X100152527Y-105788344D01*
X100028471Y-105664288D01*
X99976265Y-105632087D01*
X99879152Y-105572187D01*
X99879150Y-105572186D01*
X99712611Y-105517000D01*
X99712605Y-105516999D01*
X99617393Y-105507273D01*
X99609824Y-105506500D01*
X99609823Y-105506500D01*
X99218500Y-105506500D01*
X99137638Y-105486569D01*
X99075301Y-105431343D01*
X99045769Y-105353473D01*
X99044500Y-105332500D01*
X99044500Y-94085705D01*
X99064431Y-94004843D01*
X99095460Y-93962671D01*
X99114243Y-93943889D01*
X99114244Y-93943886D01*
X99628490Y-93429639D01*
X99699758Y-93386558D01*
X99782888Y-93381529D01*
X99858833Y-93415709D01*
X99910195Y-93481267D01*
X99925207Y-93563185D01*
X99906559Y-93631673D01*
X99828436Y-93784999D01*
X99828432Y-93785007D01*
X99828432Y-93785008D01*
X99755447Y-94009632D01*
X99718500Y-94242908D01*
X99718500Y-94479092D01*
X99755447Y-94712368D01*
X99819996Y-94911028D01*
X99828432Y-94936992D01*
X99828433Y-94936995D01*
X99883028Y-95044144D01*
X99935657Y-95147433D01*
X100074483Y-95338510D01*
X100241490Y-95505517D01*
X100432567Y-95644343D01*
X100643008Y-95751568D01*
X100867632Y-95824553D01*
X101100908Y-95861500D01*
X101100911Y-95861500D01*
X101337089Y-95861500D01*
X101337092Y-95861500D01*
X101570368Y-95824553D01*
X101794992Y-95751568D01*
X102005433Y-95644343D01*
X102196510Y-95505517D01*
X102363517Y-95338510D01*
X102502343Y-95147433D01*
X102609568Y-94936992D01*
X102682553Y-94712368D01*
X102719500Y-94479092D01*
X102719500Y-94242908D01*
X102682553Y-94009632D01*
X102609568Y-93785008D01*
X102502343Y-93574567D01*
X102363517Y-93383490D01*
X102196510Y-93216483D01*
X102005433Y-93077657D01*
X101827187Y-92986836D01*
X101794995Y-92970433D01*
X101794992Y-92970432D01*
X101570368Y-92897447D01*
X101337092Y-92860500D01*
X101100908Y-92860500D01*
X100867632Y-92897447D01*
X100821584Y-92912409D01*
X100643007Y-92970432D01*
X100642999Y-92970435D01*
X100489674Y-93048559D01*
X100408578Y-93067511D01*
X100327962Y-93046605D01*
X100266297Y-92990630D01*
X100237708Y-92912409D01*
X100248745Y-92829861D01*
X100287641Y-92770489D01*
X100309821Y-92748309D01*
X103112500Y-92748309D01*
X103112500Y-92925691D01*
X103140184Y-93064871D01*
X103147106Y-93099667D01*
X103214985Y-93263544D01*
X103214986Y-93263546D01*
X103214987Y-93263547D01*
X103283176Y-93365598D01*
X103311528Y-93443902D01*
X103312500Y-93462266D01*
X103312500Y-117738732D01*
X103292569Y-117819594D01*
X103283176Y-117835401D01*
X103214987Y-117937452D01*
X103214985Y-117937455D01*
X103147106Y-118101332D01*
X103147106Y-118101334D01*
X103112500Y-118275309D01*
X103112500Y-118452691D01*
X103127745Y-118529333D01*
X103147106Y-118626667D01*
X103214985Y-118790544D01*
X103214988Y-118790550D01*
X103313089Y-118937367D01*
X103313536Y-118938035D01*
X103438965Y-119063464D01*
X103475741Y-119088037D01*
X103586449Y-119162011D01*
X103586453Y-119162013D01*
X103750334Y-119229894D01*
X103924309Y-119264500D01*
X103924312Y-119264500D01*
X104101687Y-119264500D01*
X104101691Y-119264500D01*
X104275666Y-119229894D01*
X104439547Y-119162013D01*
X104587035Y-119063464D01*
X104712464Y-118938035D01*
X104811013Y-118790547D01*
X104878894Y-118626666D01*
X104913500Y-118452691D01*
X104913500Y-118275309D01*
X104878894Y-118101334D01*
X104811013Y-117937453D01*
X104761357Y-117863138D01*
X104742824Y-117835401D01*
X104714472Y-117757095D01*
X104713500Y-117738732D01*
X104713500Y-111682441D01*
X108589500Y-111682441D01*
X108589500Y-111931558D01*
X108589501Y-111931580D01*
X108622015Y-112178553D01*
X108622017Y-112178563D01*
X108622018Y-112178565D01*
X108636461Y-112232469D01*
X108686496Y-112419203D01*
X108781837Y-112649375D01*
X108882364Y-112823494D01*
X108906401Y-112865127D01*
X109058062Y-113062776D01*
X109234224Y-113238938D01*
X109431873Y-113390599D01*
X109647627Y-113515164D01*
X109877793Y-113610502D01*
X109877794Y-113610502D01*
X109877796Y-113610503D01*
X109917257Y-113621076D01*
X110118435Y-113674982D01*
X110118442Y-113674982D01*
X110118446Y-113674984D01*
X110365419Y-113707498D01*
X110365421Y-113707498D01*
X110365435Y-113707500D01*
X110365442Y-113707500D01*
X110614558Y-113707500D01*
X110614565Y-113707500D01*
X110628565Y-113705656D01*
X110861553Y-113674984D01*
X110861555Y-113674983D01*
X110861565Y-113674982D01*
X111102207Y-113610502D01*
X111332373Y-113515164D01*
X111548127Y-113390599D01*
X111745776Y-113238938D01*
X111921938Y-113062776D01*
X112073599Y-112865127D01*
X112198164Y-112649373D01*
X112293502Y-112419207D01*
X112357982Y-112178565D01*
X112378507Y-112022666D01*
X112390498Y-111931580D01*
X112390497Y-111931580D01*
X112390500Y-111931565D01*
X112390500Y-111682435D01*
X112383397Y-111628482D01*
X112357984Y-111435446D01*
X112357982Y-111435442D01*
X112357982Y-111435435D01*
X112293502Y-111194793D01*
X112198164Y-110964627D01*
X112073599Y-110748873D01*
X111921938Y-110551224D01*
X111745776Y-110375062D01*
X111548127Y-110223401D01*
X111443251Y-110162851D01*
X111332375Y-110098837D01*
X111102203Y-110003496D01*
X110915469Y-109953461D01*
X110861565Y-109939018D01*
X110861563Y-109939017D01*
X110861553Y-109939015D01*
X110614580Y-109906501D01*
X110614568Y-109906500D01*
X110614565Y-109906500D01*
X110365435Y-109906500D01*
X110365431Y-109906500D01*
X110365419Y-109906501D01*
X110118446Y-109939015D01*
X110118435Y-109939018D01*
X109877796Y-110003496D01*
X109647624Y-110098837D01*
X109431877Y-110223398D01*
X109431874Y-110223400D01*
X109234226Y-110375060D01*
X109058060Y-110551226D01*
X108906400Y-110748874D01*
X108906398Y-110748877D01*
X108781837Y-110964624D01*
X108686496Y-111194796D01*
X108622018Y-111435435D01*
X108622015Y-111435446D01*
X108589501Y-111682419D01*
X108589500Y-111682441D01*
X104713500Y-111682441D01*
X104713500Y-105606992D01*
X108589500Y-105606992D01*
X108589500Y-108007007D01*
X108599999Y-108109790D01*
X108600000Y-108109796D01*
X108655186Y-108276334D01*
X108655188Y-108276337D01*
X108747287Y-108425653D01*
X108871346Y-108549712D01*
X108893705Y-108563503D01*
X109020666Y-108641814D01*
X109187203Y-108696999D01*
X109187209Y-108697000D01*
X109268528Y-108705307D01*
X109289992Y-108707500D01*
X109289993Y-108707500D01*
X111690007Y-108707500D01*
X111690008Y-108707500D01*
X111717137Y-108704728D01*
X111792790Y-108697000D01*
X111792794Y-108696999D01*
X111792797Y-108696999D01*
X111959334Y-108641814D01*
X112108655Y-108549711D01*
X112232711Y-108425655D01*
X112324814Y-108276334D01*
X112379999Y-108109797D01*
X112380627Y-108103656D01*
X112389604Y-108015776D01*
X112390500Y-108007008D01*
X112390500Y-105606992D01*
X112383505Y-105538523D01*
X112380000Y-105504209D01*
X112379999Y-105504203D01*
X112368997Y-105471001D01*
X112324814Y-105337666D01*
X112232711Y-105188345D01*
X112108655Y-105064289D01*
X112108653Y-105064287D01*
X111959337Y-104972188D01*
X111959334Y-104972186D01*
X111792796Y-104917000D01*
X111792790Y-104916999D01*
X111697577Y-104907273D01*
X111690008Y-104906500D01*
X109289992Y-104906500D01*
X109282941Y-104907220D01*
X109187209Y-104916999D01*
X109187203Y-104917000D01*
X109020665Y-104972186D01*
X109020662Y-104972188D01*
X108871346Y-105064287D01*
X108747287Y-105188346D01*
X108655188Y-105337662D01*
X108655186Y-105337665D01*
X108600000Y-105504203D01*
X108599999Y-105504209D01*
X108589500Y-105606992D01*
X104713500Y-105606992D01*
X104713500Y-93462266D01*
X104733431Y-93381404D01*
X104742816Y-93365608D01*
X104811013Y-93263547D01*
X104878894Y-93099666D01*
X104913500Y-92925691D01*
X104913500Y-92748309D01*
X104878894Y-92574334D01*
X104811013Y-92410453D01*
X104811011Y-92410449D01*
X104712465Y-92262967D01*
X104712464Y-92262965D01*
X104587035Y-92137536D01*
X104586367Y-92137089D01*
X104439550Y-92038988D01*
X104439544Y-92038985D01*
X104275667Y-91971106D01*
X104232172Y-91962454D01*
X104101691Y-91936500D01*
X103924309Y-91936500D01*
X103819924Y-91957263D01*
X103750332Y-91971106D01*
X103586455Y-92038985D01*
X103586449Y-92038988D01*
X103438967Y-92137534D01*
X103313534Y-92262967D01*
X103214988Y-92410449D01*
X103214985Y-92410455D01*
X103147106Y-92574332D01*
X103143577Y-92592074D01*
X103112500Y-92748309D01*
X100309821Y-92748309D01*
X102084247Y-90973885D01*
X102084251Y-90973878D01*
X102089265Y-90968865D01*
X102091286Y-90966634D01*
X102094008Y-90963913D01*
X102234100Y-90788242D01*
X102353644Y-90597990D01*
X102451133Y-90395550D01*
X102525344Y-90183468D01*
X102531260Y-90157551D01*
X102560030Y-90031500D01*
X102575343Y-89964410D01*
X102600500Y-89741131D01*
X102600500Y-89628785D01*
X102600500Y-89536075D01*
X102600500Y-77922061D01*
X102620431Y-77841199D01*
X102675657Y-77778862D01*
X102683155Y-77773966D01*
X102818656Y-77690389D01*
X102942712Y-77566333D01*
X103034814Y-77417011D01*
X103089999Y-77250474D01*
X103100500Y-77147686D01*
X103100499Y-75547669D01*
X103089999Y-75444880D01*
X103034814Y-75278343D01*
X102942712Y-75129021D01*
X102818656Y-75004965D01*
X102757664Y-74967345D01*
X102669337Y-74912864D01*
X102669335Y-74912863D01*
X102502796Y-74857677D01*
X102502790Y-74857676D01*
X102407578Y-74847950D01*
X102400009Y-74847177D01*
X102400008Y-74847177D01*
X100799992Y-74847177D01*
X100697207Y-74857677D01*
X100697204Y-74857677D01*
X100530667Y-74912862D01*
X100530662Y-74912864D01*
X100381345Y-75004964D01*
X100257287Y-75129022D01*
X100165187Y-75278339D01*
X100165186Y-75278341D01*
X100110000Y-75444880D01*
X100109999Y-75444886D01*
X100099500Y-75547668D01*
X100099500Y-77147684D01*
X100110000Y-77250469D01*
X100110000Y-77250472D01*
X100165185Y-77417009D01*
X100165187Y-77417014D01*
X100177138Y-77436389D01*
X100257288Y-77566333D01*
X100381344Y-77690389D01*
X100516845Y-77773966D01*
X100575205Y-77833380D01*
X100599270Y-77913109D01*
X100599500Y-77922061D01*
X100599500Y-89556505D01*
X100579569Y-89637367D01*
X100548539Y-89679539D01*
X100525004Y-89703074D01*
X100522963Y-89705326D01*
X97706312Y-92521977D01*
X97704054Y-92524024D01*
X97549993Y-92678085D01*
X97409898Y-92853759D01*
X97409898Y-92853760D01*
X97290358Y-93044005D01*
X97290356Y-93044008D01*
X97290356Y-93044009D01*
X97192866Y-93246450D01*
X97125412Y-93439224D01*
X97118652Y-93458542D01*
X97068659Y-93677577D01*
X97068658Y-93677583D01*
X97043500Y-93900863D01*
X96204500Y-93900863D01*
X96204500Y-88229221D01*
X96204500Y-88186758D01*
X96194743Y-88112645D01*
X96175406Y-87965762D01*
X96175404Y-87965758D01*
X96175404Y-87965751D01*
X96121529Y-87764685D01*
X96117711Y-87750436D01*
X96117710Y-87750433D01*
X96114854Y-87743539D01*
X96032405Y-87544488D01*
X95920948Y-87351439D01*
X95800088Y-87193931D01*
X95785248Y-87174591D01*
X95785247Y-87174590D01*
X95749415Y-87138757D01*
X95749415Y-87138758D01*
X93703436Y-85092779D01*
X93703434Y-85092778D01*
X93673410Y-85062753D01*
X93496561Y-84927052D01*
X93303512Y-84815595D01*
X93188301Y-84767873D01*
X93097566Y-84730289D01*
X93097563Y-84730288D01*
X92930480Y-84685519D01*
X92882249Y-84672596D01*
X92882247Y-84672595D01*
X92882237Y-84672593D01*
X92661257Y-84643501D01*
X92661245Y-84643500D01*
X92661242Y-84643500D01*
X92618779Y-84643500D01*
X88806215Y-84643500D01*
X88694758Y-84643500D01*
X88694754Y-84643500D01*
X88694742Y-84643501D01*
X88473762Y-84672593D01*
X88473751Y-84672596D01*
X88258436Y-84730288D01*
X88258433Y-84730289D01*
X88052495Y-84815592D01*
X88052488Y-84815595D01*
X88052481Y-84815598D01*
X88052477Y-84815601D01*
X87859445Y-84927048D01*
X87859439Y-84927052D01*
X87682591Y-85062751D01*
X87634170Y-85111174D01*
X87634168Y-85111176D01*
X86560800Y-86184541D01*
X86489529Y-86227626D01*
X86471711Y-86232160D01*
X86351340Y-86256104D01*
X86351332Y-86256106D01*
X86187455Y-86323985D01*
X86187449Y-86323988D01*
X86039967Y-86422534D01*
X85914534Y-86547967D01*
X85815988Y-86695449D01*
X85815985Y-86695455D01*
X85748106Y-86859332D01*
X85748106Y-86859334D01*
X85713500Y-87033309D01*
X85713500Y-87210691D01*
X85733254Y-87309999D01*
X85748106Y-87384667D01*
X85815985Y-87548544D01*
X85815988Y-87548550D01*
X85894737Y-87666404D01*
X85914536Y-87696035D01*
X86039965Y-87821464D01*
X86087102Y-87852960D01*
X86187449Y-87920011D01*
X86187453Y-87920013D01*
X86351334Y-87987894D01*
X86525309Y-88022500D01*
X86525312Y-88022500D01*
X86702687Y-88022500D01*
X86702691Y-88022500D01*
X86876666Y-87987894D01*
X87040547Y-87920013D01*
X87188035Y-87821464D01*
X87313464Y-87696035D01*
X87412013Y-87548547D01*
X87479894Y-87384666D01*
X87503839Y-87264285D01*
X87539161Y-87188869D01*
X87551449Y-87175206D01*
X88586382Y-86140272D01*
X88603473Y-86125284D01*
X88638298Y-86098563D01*
X88677622Y-86075860D01*
X88707536Y-86063470D01*
X88751402Y-86051715D01*
X88794914Y-86045987D01*
X88817614Y-86044500D01*
X88885141Y-86044500D01*
X91874134Y-86044500D01*
X91954996Y-86064431D01*
X92017333Y-86119657D01*
X92046865Y-86197527D01*
X92036827Y-86280201D01*
X91989517Y-86348741D01*
X91970804Y-86363175D01*
X91881967Y-86422534D01*
X91756534Y-86547967D01*
X91657988Y-86695449D01*
X91657985Y-86695455D01*
X91590106Y-86859332D01*
X91590106Y-86859334D01*
X91555500Y-87033309D01*
X91555500Y-87210691D01*
X91575254Y-87309999D01*
X91590106Y-87384667D01*
X91657985Y-87548544D01*
X91657986Y-87548546D01*
X91657987Y-87548547D01*
X91726176Y-87650598D01*
X91754528Y-87728902D01*
X91755500Y-87747266D01*
X91755500Y-106054732D01*
X91735569Y-106135594D01*
X91726176Y-106151401D01*
X91657987Y-106253452D01*
X91657985Y-106253455D01*
X91590106Y-106417332D01*
X91584280Y-106446621D01*
X91555500Y-106591309D01*
X91555500Y-106768691D01*
X91572642Y-106854869D01*
X91590106Y-106942667D01*
X91657985Y-107106544D01*
X91657986Y-107106546D01*
X91657987Y-107106547D01*
X91726176Y-107208598D01*
X91754528Y-107286902D01*
X91755500Y-107305266D01*
X91755500Y-109864732D01*
X91735569Y-109945594D01*
X91726176Y-109961401D01*
X91657987Y-110063452D01*
X91657985Y-110063455D01*
X91590106Y-110227332D01*
X91589675Y-110229499D01*
X91555500Y-110401309D01*
X91555500Y-110578691D01*
X91579290Y-110698289D01*
X91590106Y-110752667D01*
X91657985Y-110916544D01*
X91657986Y-110916546D01*
X91657987Y-110916547D01*
X91726176Y-111018598D01*
X91754528Y-111096902D01*
X91755500Y-111115266D01*
X91755500Y-112369751D01*
X91735569Y-112450613D01*
X91680343Y-112512950D01*
X91602473Y-112542482D01*
X91519799Y-112532444D01*
X91502507Y-112524787D01*
X91431223Y-112488467D01*
X91431219Y-112488465D01*
X91329600Y-112455447D01*
X91236534Y-112425208D01*
X91034352Y-112393185D01*
X90829648Y-112393185D01*
X90627466Y-112425208D01*
X90432780Y-112488465D01*
X90432777Y-112488466D01*
X90250388Y-112581398D01*
X90250382Y-112581403D01*
X90084786Y-112701714D01*
X89940029Y-112846471D01*
X89819718Y-113012067D01*
X89819713Y-113012073D01*
X89726781Y-113194462D01*
X89726780Y-113194465D01*
X89689130Y-113310340D01*
X89663523Y-113389151D01*
X89631500Y-113591333D01*
X89631500Y-113796037D01*
X89663523Y-113998219D01*
X89709454Y-114139579D01*
X89726780Y-114192904D01*
X89726781Y-114192907D01*
X89819713Y-114375296D01*
X89819718Y-114375302D01*
X89940029Y-114540898D01*
X89940031Y-114540900D01*
X89940034Y-114540904D01*
X90084781Y-114685651D01*
X90084784Y-114685653D01*
X90084785Y-114685654D01*
X90099737Y-114696517D01*
X90153441Y-114760170D01*
X90171413Y-114841489D01*
X90149536Y-114921846D01*
X90092820Y-114982832D01*
X90071001Y-114994984D01*
X90062667Y-114998870D01*
X89913345Y-115090972D01*
X89789287Y-115215030D01*
X89697187Y-115364347D01*
X89697186Y-115364349D01*
X89642000Y-115530888D01*
X89641999Y-115530894D01*
X89631500Y-115633676D01*
X89631500Y-116047190D01*
X89611569Y-116128052D01*
X89580537Y-116170227D01*
X89151221Y-116599543D01*
X89151218Y-116599546D01*
X89151217Y-116599545D01*
X89011859Y-116738904D01*
X88902367Y-116902770D01*
X88902366Y-116902772D01*
X88849038Y-117031520D01*
X88826950Y-117084844D01*
X88826948Y-117084851D01*
X88807723Y-117181494D01*
X88807724Y-117181495D01*
X88788500Y-117278143D01*
X88788500Y-118078500D01*
X88768569Y-118159362D01*
X88713343Y-118221699D01*
X88635473Y-118251231D01*
X88614500Y-118252500D01*
X65129494Y-118252500D01*
X65048632Y-118232569D01*
X65006458Y-118201537D01*
X64668061Y-117863141D01*
X64668058Y-117863137D01*
X64668058Y-117863138D01*
X64658141Y-117853221D01*
X64658140Y-117853219D01*
X61009910Y-114204990D01*
X61009908Y-114204987D01*
X61009906Y-114204985D01*
X60995459Y-114190537D01*
X60952377Y-114119265D01*
X60944500Y-114067505D01*
X60944500Y-112038690D01*
X62454000Y-112038690D01*
X62454000Y-112243309D01*
X62486010Y-112445415D01*
X62549243Y-112640027D01*
X62549247Y-112640035D01*
X62642138Y-112822347D01*
X62719156Y-112928353D01*
X63260784Y-112386725D01*
X63313890Y-112478708D01*
X63416292Y-112581110D01*
X63508272Y-112634214D01*
X62966645Y-113175842D01*
X63072652Y-113252861D01*
X63254964Y-113345752D01*
X63254972Y-113345756D01*
X63449584Y-113408989D01*
X63651691Y-113441000D01*
X63856309Y-113441000D01*
X64058415Y-113408989D01*
X64253027Y-113345756D01*
X64253035Y-113345752D01*
X64435346Y-113252861D01*
X64488426Y-113214296D01*
X64565559Y-113182889D01*
X64648453Y-113190926D01*
X64718116Y-113236564D01*
X64755869Y-113300325D01*
X64759186Y-113310335D01*
X64759187Y-113310336D01*
X64759188Y-113310340D01*
X64839781Y-113441000D01*
X64851288Y-113459656D01*
X64975344Y-113583712D01*
X64975346Y-113583713D01*
X65124659Y-113675811D01*
X65124663Y-113675813D01*
X65124665Y-113675814D01*
X65203958Y-113702089D01*
X65291202Y-113730999D01*
X65291208Y-113731000D01*
X65372526Y-113739307D01*
X65393990Y-113741500D01*
X65393991Y-113741500D01*
X67194009Y-113741500D01*
X67194010Y-113741500D01*
X67221139Y-113738728D01*
X67296791Y-113731000D01*
X67296795Y-113730999D01*
X67296798Y-113730999D01*
X67463335Y-113675814D01*
X67612656Y-113583712D01*
X67736712Y-113459656D01*
X67828814Y-113310335D01*
X67883999Y-113143798D01*
X67885147Y-113132567D01*
X67894500Y-113041009D01*
X67894500Y-112015038D01*
X68376500Y-112015038D01*
X68376500Y-112266962D01*
X68415910Y-112515785D01*
X68472841Y-112691000D01*
X68493759Y-112755379D01*
X68493760Y-112755382D01*
X68608130Y-112979845D01*
X68608133Y-112979850D01*
X68738523Y-113159316D01*
X68756207Y-113183656D01*
X68934344Y-113361793D01*
X69011701Y-113417996D01*
X69104016Y-113485067D01*
X69138155Y-113509870D01*
X69362621Y-113624241D01*
X69602215Y-113702090D01*
X69851038Y-113741500D01*
X69851042Y-113741500D01*
X70102958Y-113741500D01*
X70102962Y-113741500D01*
X70351785Y-113702090D01*
X70591379Y-113624241D01*
X70815845Y-113509870D01*
X70874390Y-113467334D01*
X70951519Y-113435930D01*
X71034412Y-113443967D01*
X71099698Y-113485067D01*
X71169923Y-113555291D01*
X71198344Y-113583712D01*
X71264049Y-113624239D01*
X71347659Y-113675811D01*
X71347663Y-113675813D01*
X71347665Y-113675814D01*
X71426958Y-113702089D01*
X71514202Y-113730999D01*
X71514208Y-113731000D01*
X71595526Y-113739307D01*
X71616990Y-113741500D01*
X71616991Y-113741500D01*
X73417009Y-113741500D01*
X73417010Y-113741500D01*
X73444139Y-113738728D01*
X73519791Y-113731000D01*
X73519795Y-113730999D01*
X73519798Y-113730999D01*
X73686335Y-113675814D01*
X73835656Y-113583712D01*
X73959712Y-113459656D01*
X74051814Y-113310335D01*
X74106999Y-113143798D01*
X74108147Y-113132567D01*
X74117500Y-113041009D01*
X74117500Y-111240990D01*
X74107000Y-111138208D01*
X74106999Y-111138202D01*
X74093510Y-111097495D01*
X74051814Y-110971665D01*
X74051813Y-110971663D01*
X74051811Y-110971659D01*
X73959713Y-110822346D01*
X73959712Y-110822344D01*
X73835656Y-110698288D01*
X73835653Y-110698286D01*
X73686340Y-110606188D01*
X73686336Y-110606186D01*
X73519797Y-110551000D01*
X73519791Y-110550999D01*
X73424579Y-110541273D01*
X73417010Y-110540500D01*
X71616990Y-110540500D01*
X71609939Y-110541220D01*
X71514208Y-110550999D01*
X71514202Y-110551000D01*
X71347663Y-110606186D01*
X71347659Y-110606188D01*
X71198345Y-110698287D01*
X71198342Y-110698289D01*
X71099699Y-110796932D01*
X71028428Y-110840017D01*
X70945298Y-110845045D01*
X70874388Y-110814663D01*
X70815852Y-110772133D01*
X70815841Y-110772127D01*
X70591387Y-110657762D01*
X70591379Y-110657759D01*
X70537049Y-110640106D01*
X70351785Y-110579910D01*
X70102962Y-110540500D01*
X69851038Y-110540500D01*
X69602215Y-110579910D01*
X69362620Y-110657759D01*
X69362617Y-110657760D01*
X69138154Y-110772130D01*
X69138149Y-110772133D01*
X68934350Y-110920202D01*
X68934348Y-110920203D01*
X68756203Y-111098348D01*
X68756202Y-111098350D01*
X68608133Y-111302149D01*
X68608130Y-111302154D01*
X68493760Y-111526617D01*
X68493759Y-111526620D01*
X68460662Y-111628482D01*
X68415910Y-111766215D01*
X68376500Y-112015038D01*
X67894500Y-112015038D01*
X67894500Y-111240990D01*
X67884000Y-111138208D01*
X67883999Y-111138202D01*
X67870510Y-111097495D01*
X67828814Y-110971665D01*
X67828813Y-110971663D01*
X67828811Y-110971659D01*
X67736713Y-110822346D01*
X67736712Y-110822344D01*
X67612656Y-110698288D01*
X67612653Y-110698286D01*
X67463340Y-110606188D01*
X67463336Y-110606186D01*
X67296797Y-110551000D01*
X67296791Y-110550999D01*
X67201579Y-110541273D01*
X67194010Y-110540500D01*
X65393990Y-110540500D01*
X65386939Y-110541220D01*
X65291208Y-110550999D01*
X65291202Y-110551000D01*
X65124663Y-110606186D01*
X65124659Y-110606188D01*
X64975346Y-110698286D01*
X64851286Y-110822346D01*
X64759188Y-110971659D01*
X64759185Y-110971667D01*
X64755869Y-110981674D01*
X64711512Y-111052161D01*
X64639479Y-111093960D01*
X64556272Y-111097495D01*
X64488428Y-111067705D01*
X64435344Y-111029137D01*
X64253035Y-110936247D01*
X64253027Y-110936243D01*
X64058415Y-110873010D01*
X63856309Y-110841000D01*
X63651691Y-110841000D01*
X63449584Y-110873010D01*
X63254972Y-110936243D01*
X63254964Y-110936247D01*
X63072655Y-111029137D01*
X63072646Y-111029142D01*
X62966645Y-111106156D01*
X63508273Y-111647785D01*
X63416292Y-111700890D01*
X63313890Y-111803292D01*
X63260784Y-111895273D01*
X62719156Y-111353645D01*
X62642142Y-111459646D01*
X62642137Y-111459655D01*
X62549247Y-111641964D01*
X62549243Y-111641972D01*
X62486010Y-111836584D01*
X62454000Y-112038690D01*
X60944500Y-112038690D01*
X60944500Y-107039494D01*
X60964417Y-106958690D01*
X62454000Y-106958690D01*
X62454000Y-107163309D01*
X62486010Y-107365415D01*
X62549243Y-107560027D01*
X62549247Y-107560035D01*
X62642138Y-107742347D01*
X62719156Y-107848353D01*
X63260784Y-107306724D01*
X63313890Y-107398708D01*
X63416292Y-107501110D01*
X63508272Y-107554214D01*
X62966645Y-108095842D01*
X63072652Y-108172861D01*
X63254964Y-108265752D01*
X63254972Y-108265756D01*
X63449584Y-108328989D01*
X63651691Y-108361000D01*
X63856309Y-108361000D01*
X64058415Y-108328989D01*
X64253027Y-108265756D01*
X64253035Y-108265752D01*
X64435346Y-108172861D01*
X64488426Y-108134296D01*
X64565559Y-108102889D01*
X64648453Y-108110926D01*
X64718116Y-108156564D01*
X64755869Y-108220325D01*
X64759186Y-108230335D01*
X64759187Y-108230336D01*
X64759188Y-108230340D01*
X64839781Y-108361000D01*
X64851288Y-108379656D01*
X64975344Y-108503712D01*
X64975346Y-108503713D01*
X65124659Y-108595811D01*
X65124663Y-108595813D01*
X65124665Y-108595814D01*
X65263475Y-108641811D01*
X65291202Y-108650999D01*
X65291208Y-108651000D01*
X65372526Y-108659307D01*
X65393990Y-108661500D01*
X65393991Y-108661500D01*
X67194009Y-108661500D01*
X67194010Y-108661500D01*
X67221139Y-108658728D01*
X67296791Y-108651000D01*
X67296795Y-108650999D01*
X67296798Y-108650999D01*
X67463335Y-108595814D01*
X67612656Y-108503712D01*
X67736712Y-108379656D01*
X67828814Y-108230335D01*
X67883999Y-108063798D01*
X67894500Y-107961010D01*
X67894500Y-106935038D01*
X68376501Y-106935038D01*
X68376501Y-107186962D01*
X68415911Y-107435785D01*
X68458536Y-107566972D01*
X68493760Y-107675379D01*
X68493761Y-107675382D01*
X68608131Y-107899845D01*
X68608134Y-107899850D01*
X68735734Y-108075476D01*
X68756208Y-108103656D01*
X68934345Y-108281793D01*
X68948248Y-108291894D01*
X69132354Y-108425655D01*
X69138156Y-108429870D01*
X69362622Y-108544241D01*
X69602216Y-108622090D01*
X69851039Y-108661500D01*
X69851043Y-108661500D01*
X70102959Y-108661500D01*
X70102963Y-108661500D01*
X70351786Y-108622090D01*
X70591380Y-108544241D01*
X70815846Y-108429870D01*
X70874391Y-108387334D01*
X70951520Y-108355930D01*
X71034413Y-108363967D01*
X71099699Y-108405067D01*
X71162795Y-108468162D01*
X71198345Y-108503712D01*
X71264050Y-108544239D01*
X71347660Y-108595811D01*
X71347664Y-108595813D01*
X71347666Y-108595814D01*
X71486476Y-108641811D01*
X71514203Y-108650999D01*
X71514209Y-108651000D01*
X71595527Y-108659307D01*
X71616991Y-108661500D01*
X71616992Y-108661500D01*
X73417010Y-108661500D01*
X73417011Y-108661500D01*
X73444140Y-108658728D01*
X73519792Y-108651000D01*
X73519796Y-108650999D01*
X73519799Y-108650999D01*
X73686336Y-108595814D01*
X73835657Y-108503712D01*
X73959713Y-108379656D01*
X74051815Y-108230335D01*
X74107000Y-108063798D01*
X74117501Y-107961010D01*
X74117501Y-106160990D01*
X74107000Y-106058202D01*
X74051815Y-105891665D01*
X74051814Y-105891663D01*
X74051812Y-105891659D01*
X73959714Y-105742346D01*
X73959713Y-105742344D01*
X73835657Y-105618288D01*
X73818112Y-105607466D01*
X73686341Y-105526188D01*
X73686337Y-105526186D01*
X73519798Y-105471000D01*
X73519792Y-105470999D01*
X73424580Y-105461273D01*
X73417011Y-105460500D01*
X71616991Y-105460500D01*
X71609940Y-105461220D01*
X71514209Y-105470999D01*
X71514203Y-105471000D01*
X71347664Y-105526186D01*
X71347660Y-105526188D01*
X71198346Y-105618287D01*
X71198343Y-105618289D01*
X71099700Y-105716932D01*
X71028429Y-105760017D01*
X70945299Y-105765045D01*
X70874389Y-105734663D01*
X70815853Y-105692133D01*
X70815842Y-105692127D01*
X70591388Y-105577762D01*
X70591380Y-105577759D01*
X70432661Y-105526188D01*
X70351786Y-105499910D01*
X70102963Y-105460500D01*
X69851039Y-105460500D01*
X69602216Y-105499910D01*
X69362621Y-105577759D01*
X69362618Y-105577760D01*
X69138155Y-105692130D01*
X69138150Y-105692133D01*
X68934351Y-105840202D01*
X68934349Y-105840203D01*
X68756204Y-106018348D01*
X68756203Y-106018350D01*
X68608134Y-106222149D01*
X68608131Y-106222154D01*
X68493761Y-106446617D01*
X68493760Y-106446620D01*
X68415911Y-106686215D01*
X68376501Y-106935038D01*
X67894500Y-106935038D01*
X67894500Y-106160990D01*
X67883999Y-106058202D01*
X67828814Y-105891665D01*
X67828813Y-105891663D01*
X67828811Y-105891659D01*
X67736713Y-105742346D01*
X67736712Y-105742344D01*
X67612656Y-105618288D01*
X67595111Y-105607466D01*
X67463340Y-105526188D01*
X67463336Y-105526186D01*
X67296797Y-105471000D01*
X67296791Y-105470999D01*
X67201579Y-105461273D01*
X67194010Y-105460500D01*
X65393990Y-105460500D01*
X65383826Y-105461538D01*
X65295138Y-105470598D01*
X65295134Y-105470599D01*
X65291202Y-105471001D01*
X65124665Y-105526186D01*
X65121863Y-105527913D01*
X65121860Y-105527915D01*
X64975346Y-105618286D01*
X64851286Y-105742346D01*
X64759188Y-105891659D01*
X64759185Y-105891667D01*
X64755869Y-105901674D01*
X64711512Y-105972161D01*
X64639479Y-106013960D01*
X64556272Y-106017495D01*
X64488428Y-105987705D01*
X64435344Y-105949137D01*
X64253035Y-105856247D01*
X64253027Y-105856243D01*
X64058415Y-105793010D01*
X63856309Y-105761000D01*
X63651691Y-105761000D01*
X63449584Y-105793010D01*
X63254972Y-105856243D01*
X63254964Y-105856247D01*
X63072655Y-105949137D01*
X63072646Y-105949142D01*
X62966645Y-106026156D01*
X63508273Y-106567785D01*
X63416292Y-106620890D01*
X63313890Y-106723292D01*
X63260784Y-106815273D01*
X62719156Y-106273645D01*
X62642142Y-106379646D01*
X62642137Y-106379655D01*
X62549247Y-106561964D01*
X62549243Y-106561972D01*
X62486010Y-106756584D01*
X62454000Y-106958690D01*
X60964417Y-106958690D01*
X60964431Y-106958632D01*
X60995463Y-106916457D01*
X62593458Y-105318463D01*
X62664730Y-105275379D01*
X62716495Y-105267500D01*
X64595129Y-105267500D01*
X64595131Y-105267500D01*
X64818410Y-105242343D01*
X65037468Y-105192344D01*
X65249550Y-105118133D01*
X65451990Y-105020644D01*
X65642242Y-104901100D01*
X65817913Y-104761008D01*
X65897353Y-104681567D01*
X65962909Y-104616011D01*
X66527611Y-104051309D01*
X70219500Y-104051309D01*
X70219500Y-104228691D01*
X70247184Y-104367871D01*
X70254106Y-104402667D01*
X70321985Y-104566544D01*
X70321988Y-104566550D01*
X70398841Y-104681566D01*
X70420536Y-104714035D01*
X70545965Y-104839464D01*
X70591402Y-104869824D01*
X70693449Y-104938011D01*
X70693453Y-104938013D01*
X70857334Y-105005894D01*
X71031309Y-105040500D01*
X71031312Y-105040500D01*
X71208687Y-105040500D01*
X71208691Y-105040500D01*
X71382666Y-105005894D01*
X71546547Y-104938013D01*
X71648599Y-104869824D01*
X71726905Y-104841472D01*
X71745268Y-104840500D01*
X79169303Y-104840500D01*
X79250165Y-104860431D01*
X79312502Y-104915657D01*
X79342034Y-104993527D01*
X79331996Y-105076201D01*
X79284686Y-105144741D01*
X79210944Y-105183444D01*
X79198551Y-105185947D01*
X79197469Y-105186207D01*
X79002780Y-105249465D01*
X79002777Y-105249466D01*
X78820388Y-105342398D01*
X78820382Y-105342403D01*
X78654786Y-105462714D01*
X78510029Y-105607471D01*
X78389718Y-105773067D01*
X78389713Y-105773073D01*
X78296781Y-105955462D01*
X78296780Y-105955465D01*
X78263399Y-106058202D01*
X78233523Y-106150151D01*
X78201500Y-106352333D01*
X78201500Y-106557037D01*
X78233523Y-106759219D01*
X78274255Y-106884580D01*
X78296780Y-106953904D01*
X78296781Y-106953907D01*
X78389713Y-107136296D01*
X78389718Y-107136302D01*
X78510029Y-107301898D01*
X78510031Y-107301900D01*
X78510034Y-107301904D01*
X78654781Y-107446651D01*
X78654784Y-107446653D01*
X78654785Y-107446654D01*
X78669737Y-107457517D01*
X78723441Y-107521170D01*
X78741413Y-107602489D01*
X78719536Y-107682846D01*
X78662820Y-107743832D01*
X78641001Y-107755984D01*
X78632667Y-107759870D01*
X78483345Y-107851972D01*
X78359287Y-107976030D01*
X78267187Y-108125347D01*
X78267186Y-108125349D01*
X78212000Y-108291888D01*
X78211999Y-108291894D01*
X78201500Y-108394676D01*
X78201500Y-109594692D01*
X78212000Y-109697477D01*
X78212000Y-109697480D01*
X78267185Y-109864017D01*
X78267187Y-109864022D01*
X78327251Y-109961401D01*
X78359288Y-110013341D01*
X78483344Y-110137397D01*
X78524612Y-110162851D01*
X78632662Y-110229497D01*
X78632664Y-110229498D01*
X78632666Y-110229499D01*
X78799203Y-110284684D01*
X78799209Y-110284685D01*
X78827888Y-110287614D01*
X78901991Y-110295185D01*
X79206720Y-110295184D01*
X79287579Y-110315114D01*
X79349917Y-110370340D01*
X79379449Y-110448210D01*
X79369411Y-110530885D01*
X79322102Y-110599424D01*
X79248359Y-110638128D01*
X79240677Y-110639838D01*
X79239342Y-110640103D01*
X79239332Y-110640106D01*
X79075455Y-110707985D01*
X79075449Y-110707988D01*
X78927967Y-110806534D01*
X78802534Y-110931967D01*
X78703988Y-111079449D01*
X78703985Y-111079455D01*
X78636106Y-111243332D01*
X78636106Y-111243334D01*
X78601500Y-111417309D01*
X78601500Y-111594691D01*
X78629184Y-111733871D01*
X78636106Y-111768667D01*
X78703985Y-111932544D01*
X78703986Y-111932546D01*
X78703987Y-111932547D01*
X78772176Y-112034598D01*
X78800528Y-112112902D01*
X78801500Y-112131266D01*
X78801500Y-115452732D01*
X78781569Y-115533594D01*
X78772176Y-115549401D01*
X78703987Y-115651452D01*
X78703985Y-115651455D01*
X78636106Y-115815332D01*
X78636106Y-115815334D01*
X78601500Y-115989309D01*
X78601500Y-116166691D01*
X78629184Y-116305871D01*
X78636106Y-116340667D01*
X78703985Y-116504544D01*
X78703988Y-116504550D01*
X78802089Y-116651367D01*
X78802536Y-116652035D01*
X78927965Y-116777464D01*
X78977127Y-116810313D01*
X79075449Y-116876011D01*
X79075453Y-116876013D01*
X79239334Y-116943894D01*
X79413309Y-116978500D01*
X79413312Y-116978500D01*
X79590687Y-116978500D01*
X79590691Y-116978500D01*
X79764666Y-116943894D01*
X79928547Y-116876013D01*
X80076035Y-116777464D01*
X80201464Y-116652035D01*
X80300013Y-116504547D01*
X80367894Y-116340666D01*
X80402500Y-116166691D01*
X80402500Y-115989309D01*
X80367894Y-115815334D01*
X80300013Y-115651453D01*
X80231824Y-115549401D01*
X80203472Y-115471095D01*
X80202500Y-115452732D01*
X80202500Y-112131266D01*
X80222431Y-112050404D01*
X80231816Y-112034608D01*
X80300013Y-111932547D01*
X80367894Y-111768666D01*
X80387260Y-111671309D01*
X80887500Y-111671309D01*
X80887500Y-111848691D01*
X80907572Y-111949598D01*
X80922106Y-112022667D01*
X80989985Y-112186544D01*
X80989986Y-112186546D01*
X80989987Y-112186547D01*
X81058176Y-112288598D01*
X81086528Y-112366902D01*
X81087500Y-112385266D01*
X81087500Y-115452732D01*
X81067569Y-115533594D01*
X81058176Y-115549401D01*
X80989987Y-115651452D01*
X80989985Y-115651455D01*
X80922106Y-115815332D01*
X80922106Y-115815334D01*
X80887500Y-115989309D01*
X80887500Y-116166691D01*
X80915184Y-116305871D01*
X80922106Y-116340667D01*
X80989985Y-116504544D01*
X80989988Y-116504550D01*
X81088089Y-116651367D01*
X81088536Y-116652035D01*
X81213965Y-116777464D01*
X81263127Y-116810313D01*
X81361449Y-116876011D01*
X81361453Y-116876013D01*
X81525334Y-116943894D01*
X81699309Y-116978500D01*
X81699312Y-116978500D01*
X81876687Y-116978500D01*
X81876691Y-116978500D01*
X82050666Y-116943894D01*
X82214547Y-116876013D01*
X82362035Y-116777464D01*
X82487464Y-116652035D01*
X82586013Y-116504547D01*
X82653894Y-116340666D01*
X82688500Y-116166691D01*
X82688500Y-115989309D01*
X82653894Y-115815334D01*
X82586013Y-115651453D01*
X82584826Y-115649676D01*
X85821500Y-115649676D01*
X85821500Y-116849692D01*
X85832000Y-116952477D01*
X85832000Y-116952480D01*
X85887185Y-117119017D01*
X85887187Y-117119022D01*
X85931154Y-117190303D01*
X85979288Y-117268341D01*
X86103344Y-117392397D01*
X86180622Y-117440062D01*
X86252662Y-117484497D01*
X86252664Y-117484498D01*
X86252666Y-117484499D01*
X86392797Y-117530934D01*
X86419203Y-117539684D01*
X86419209Y-117539685D01*
X86447188Y-117542543D01*
X86521991Y-117550185D01*
X87722008Y-117550184D01*
X87824797Y-117539684D01*
X87991334Y-117484499D01*
X88140656Y-117392397D01*
X88264712Y-117268341D01*
X88356814Y-117119019D01*
X88411999Y-116952482D01*
X88412877Y-116943894D01*
X88417077Y-116902772D01*
X88422500Y-116849694D01*
X88422499Y-115649677D01*
X88411999Y-115546888D01*
X88356814Y-115380351D01*
X88346945Y-115364351D01*
X88306784Y-115299239D01*
X88264712Y-115231029D01*
X88140656Y-115106973D01*
X88108476Y-115087124D01*
X87991337Y-115014872D01*
X87991335Y-115014871D01*
X87824796Y-114959685D01*
X87824790Y-114959684D01*
X87729578Y-114949958D01*
X87722009Y-114949185D01*
X87722008Y-114949185D01*
X87617466Y-114949185D01*
X87536604Y-114929254D01*
X87474267Y-114874028D01*
X87444735Y-114796158D01*
X87454773Y-114713484D01*
X87502083Y-114644944D01*
X87550881Y-114614429D01*
X87595675Y-114595875D01*
X87595682Y-114595871D01*
X87694600Y-114529774D01*
X87253410Y-114088584D01*
X87276394Y-114082426D01*
X87367606Y-114029765D01*
X87442080Y-113955291D01*
X87494741Y-113864079D01*
X87500899Y-113841095D01*
X87942089Y-114282285D01*
X88008186Y-114183367D01*
X88008193Y-114183355D01*
X88083569Y-114001377D01*
X88083570Y-114001373D01*
X88121999Y-113808174D01*
X88122000Y-113808173D01*
X88122000Y-113611197D01*
X88121999Y-113611195D01*
X88083570Y-113417996D01*
X88083569Y-113417992D01*
X88008191Y-113236012D01*
X88008186Y-113236003D01*
X87942089Y-113137082D01*
X87500898Y-113578272D01*
X87494741Y-113555291D01*
X87442080Y-113464079D01*
X87367606Y-113389605D01*
X87276394Y-113336944D01*
X87253409Y-113330785D01*
X87694601Y-112889595D01*
X87595679Y-112823497D01*
X87595668Y-112823491D01*
X87413692Y-112748115D01*
X87413688Y-112748114D01*
X87220489Y-112709685D01*
X87023510Y-112709685D01*
X86830311Y-112748114D01*
X86830307Y-112748115D01*
X86648324Y-112823494D01*
X86648318Y-112823497D01*
X86549397Y-112889595D01*
X86990588Y-113330785D01*
X86967606Y-113336944D01*
X86876394Y-113389605D01*
X86801920Y-113464079D01*
X86749259Y-113555291D01*
X86743101Y-113578273D01*
X86301910Y-113137082D01*
X86235812Y-113236003D01*
X86235809Y-113236009D01*
X86160430Y-113417992D01*
X86160429Y-113417996D01*
X86122000Y-113611195D01*
X86122000Y-113808174D01*
X86160429Y-114001373D01*
X86160430Y-114001377D01*
X86235806Y-114183353D01*
X86235812Y-114183364D01*
X86301910Y-114282286D01*
X86743100Y-113841095D01*
X86749259Y-113864079D01*
X86801920Y-113955291D01*
X86876394Y-114029765D01*
X86967606Y-114082426D01*
X86990587Y-114088583D01*
X86549397Y-114529774D01*
X86648318Y-114595871D01*
X86648322Y-114595873D01*
X86693120Y-114614429D01*
X86760200Y-114663786D01*
X86796659Y-114738663D01*
X86794145Y-114821907D01*
X86753233Y-114894448D01*
X86683296Y-114939666D01*
X86626537Y-114949185D01*
X86521992Y-114949185D01*
X86419207Y-114959685D01*
X86419204Y-114959685D01*
X86252667Y-115014870D01*
X86252662Y-115014872D01*
X86103345Y-115106972D01*
X85979287Y-115231030D01*
X85887187Y-115380347D01*
X85887186Y-115380349D01*
X85832000Y-115546888D01*
X85831999Y-115546894D01*
X85821500Y-115649676D01*
X82584826Y-115649676D01*
X82514307Y-115544138D01*
X82511179Y-115538627D01*
X82501555Y-115504468D01*
X82489472Y-115471095D01*
X82488851Y-115459377D01*
X82488595Y-115458466D01*
X82488761Y-115457678D01*
X82488500Y-115452732D01*
X82488500Y-112385266D01*
X82508431Y-112304404D01*
X82517816Y-112288608D01*
X82586013Y-112186547D01*
X82653894Y-112022666D01*
X82688500Y-111848691D01*
X82688500Y-111671309D01*
X82653894Y-111497334D01*
X82586013Y-111333453D01*
X82586011Y-111333449D01*
X82520313Y-111235127D01*
X82487464Y-111185965D01*
X82362035Y-111060536D01*
X82315051Y-111029142D01*
X82214550Y-110961988D01*
X82214544Y-110961985D01*
X82050667Y-110894106D01*
X82007172Y-110885454D01*
X81876691Y-110859500D01*
X81699309Y-110859500D01*
X81594924Y-110880263D01*
X81525332Y-110894106D01*
X81361455Y-110961985D01*
X81361449Y-110961988D01*
X81213967Y-111060534D01*
X81088534Y-111185967D01*
X80989988Y-111333449D01*
X80989985Y-111333455D01*
X80922106Y-111497332D01*
X80916280Y-111526621D01*
X80887500Y-111671309D01*
X80387260Y-111671309D01*
X80402500Y-111594691D01*
X80402500Y-111417309D01*
X80367894Y-111243334D01*
X80307840Y-111098350D01*
X80300014Y-111079455D01*
X80300011Y-111079449D01*
X80227991Y-110971665D01*
X80201464Y-110931965D01*
X80076035Y-110806536D01*
X80024548Y-110772133D01*
X79928550Y-110707988D01*
X79928544Y-110707985D01*
X79764667Y-110640106D01*
X79764662Y-110640105D01*
X79763330Y-110639840D01*
X79762486Y-110639444D01*
X79756481Y-110637623D01*
X79756744Y-110636755D01*
X79687911Y-110604516D01*
X79637547Y-110538189D01*
X79623775Y-110456053D01*
X79649751Y-110376926D01*
X79709524Y-110318934D01*
X79789400Y-110295362D01*
X79797267Y-110295184D01*
X80102008Y-110295184D01*
X80204797Y-110284684D01*
X80371334Y-110229499D01*
X80520656Y-110137397D01*
X80644712Y-110013341D01*
X80736814Y-109864019D01*
X80791999Y-109697482D01*
X80802500Y-109594694D01*
X80802499Y-108394677D01*
X80791999Y-108291888D01*
X80736814Y-108125351D01*
X80727220Y-108109797D01*
X80669226Y-108015773D01*
X80644712Y-107976029D01*
X80520656Y-107851973D01*
X80371334Y-107759871D01*
X80371331Y-107759869D01*
X80363001Y-107755985D01*
X80298138Y-107703749D01*
X80264980Y-107627353D01*
X80271123Y-107544298D01*
X80315160Y-107473611D01*
X80334250Y-107457525D01*
X80349219Y-107446651D01*
X80493966Y-107301904D01*
X80614287Y-107136295D01*
X80707220Y-106953904D01*
X80770477Y-106759219D01*
X80802500Y-106557037D01*
X80802500Y-106352333D01*
X80770477Y-106150151D01*
X80707220Y-105955466D01*
X80648490Y-105840203D01*
X80614286Y-105773073D01*
X80614281Y-105773067D01*
X80493970Y-105607471D01*
X80493968Y-105607469D01*
X80493966Y-105607466D01*
X80349219Y-105462719D01*
X80349215Y-105462716D01*
X80349213Y-105462714D01*
X80183617Y-105342403D01*
X80183611Y-105342398D01*
X80001222Y-105249466D01*
X80001219Y-105249465D01*
X79979300Y-105242343D01*
X79806534Y-105186208D01*
X79806532Y-105186207D01*
X79806530Y-105186207D01*
X79799885Y-105184612D01*
X79800201Y-105183292D01*
X79730730Y-105154024D01*
X79677799Y-105089727D01*
X79660811Y-105008196D01*
X79683659Y-104928109D01*
X79741107Y-104867814D01*
X79819996Y-104841122D01*
X79834697Y-104840500D01*
X87004732Y-104840500D01*
X87085594Y-104860431D01*
X87101401Y-104869824D01*
X87203453Y-104938013D01*
X87367334Y-105005894D01*
X87541309Y-105040500D01*
X87541312Y-105040500D01*
X87718687Y-105040500D01*
X87718691Y-105040500D01*
X87892666Y-105005894D01*
X88056547Y-104938013D01*
X88204035Y-104839464D01*
X88329464Y-104714035D01*
X88428013Y-104566547D01*
X88495894Y-104402666D01*
X88530500Y-104228691D01*
X88530500Y-104051309D01*
X88495894Y-103877334D01*
X88428013Y-103713453D01*
X88428011Y-103713449D01*
X88329465Y-103565967D01*
X88329464Y-103565965D01*
X88204035Y-103440536D01*
X88172656Y-103419569D01*
X88056550Y-103341988D01*
X88056544Y-103341985D01*
X87892667Y-103274106D01*
X87849172Y-103265454D01*
X87718691Y-103239500D01*
X87541309Y-103239500D01*
X87436924Y-103260263D01*
X87367332Y-103274106D01*
X87203455Y-103341985D01*
X87203452Y-103341987D01*
X87101401Y-103410176D01*
X87023095Y-103438528D01*
X87004732Y-103439500D01*
X71745268Y-103439500D01*
X71664406Y-103419569D01*
X71648599Y-103410176D01*
X71546547Y-103341987D01*
X71546544Y-103341985D01*
X71382667Y-103274106D01*
X71339172Y-103265454D01*
X71208691Y-103239500D01*
X71031309Y-103239500D01*
X70926924Y-103260263D01*
X70857332Y-103274106D01*
X70693455Y-103341985D01*
X70693449Y-103341988D01*
X70545967Y-103440534D01*
X70420534Y-103565967D01*
X70321988Y-103713449D01*
X70321985Y-103713455D01*
X70254106Y-103877332D01*
X70254106Y-103877334D01*
X70219500Y-104051309D01*
X66527611Y-104051309D01*
X69918454Y-100660466D01*
X69963008Y-100615913D01*
X70103100Y-100440242D01*
X70222644Y-100249990D01*
X70320133Y-100047550D01*
X70394344Y-99835468D01*
X70444343Y-99616410D01*
X70469500Y-99393131D01*
X70469500Y-99280785D01*
X70469500Y-99218500D01*
X70489431Y-99137638D01*
X70544657Y-99075301D01*
X70622527Y-99045769D01*
X70643500Y-99044500D01*
X74642027Y-99044500D01*
X74722889Y-99064431D01*
X74785226Y-99119657D01*
X74814758Y-99197527D01*
X74804720Y-99280201D01*
X74757410Y-99348741D01*
X74729028Y-99369188D01*
X74562826Y-99465145D01*
X74562819Y-99465149D01*
X74421259Y-99573771D01*
X75136590Y-100289102D01*
X75055030Y-100343599D01*
X74943599Y-100455030D01*
X74889102Y-100536590D01*
X74173771Y-99821259D01*
X74065149Y-99962819D01*
X74065141Y-99962832D01*
X73947171Y-100167161D01*
X73947162Y-100167179D01*
X73856869Y-100385167D01*
X73856867Y-100385171D01*
X73795800Y-100613076D01*
X73795796Y-100613098D01*
X73765001Y-100847009D01*
X73765000Y-100847028D01*
X73765000Y-101082971D01*
X73765001Y-101082990D01*
X73795796Y-101316901D01*
X73795800Y-101316923D01*
X73856867Y-101544828D01*
X73856869Y-101544832D01*
X73947162Y-101762820D01*
X73947171Y-101762838D01*
X74065140Y-101967165D01*
X74065144Y-101967171D01*
X74173771Y-102108739D01*
X74889101Y-101393408D01*
X74943599Y-101474970D01*
X75055030Y-101586401D01*
X75136589Y-101640896D01*
X74421259Y-102356227D01*
X74562828Y-102464855D01*
X74562834Y-102464859D01*
X74767161Y-102582828D01*
X74767179Y-102582837D01*
X74985167Y-102673130D01*
X74985171Y-102673132D01*
X75213076Y-102734199D01*
X75213098Y-102734203D01*
X75447009Y-102764998D01*
X75447029Y-102765000D01*
X75682971Y-102765000D01*
X75682990Y-102764998D01*
X75916901Y-102734203D01*
X75916923Y-102734199D01*
X76144828Y-102673132D01*
X76144832Y-102673130D01*
X76362820Y-102582837D01*
X76362838Y-102582828D01*
X76567173Y-102464855D01*
X76708739Y-102356227D01*
X75993409Y-101640897D01*
X76074970Y-101586401D01*
X76186401Y-101474970D01*
X76240897Y-101393409D01*
X76956227Y-102108739D01*
X77064855Y-101967173D01*
X77182828Y-101762838D01*
X77182837Y-101762820D01*
X77273130Y-101544832D01*
X77273132Y-101544828D01*
X77334199Y-101316923D01*
X77334203Y-101316901D01*
X77364998Y-101082990D01*
X77365000Y-101082971D01*
X77365000Y-100847028D01*
X77364998Y-100847009D01*
X77334203Y-100613098D01*
X77334199Y-100613076D01*
X77273132Y-100385171D01*
X77273130Y-100385167D01*
X77182837Y-100167179D01*
X77182828Y-100167161D01*
X77064859Y-99962834D01*
X77064855Y-99962828D01*
X76956227Y-99821259D01*
X76240896Y-100536589D01*
X76186401Y-100455030D01*
X76074970Y-100343599D01*
X75993408Y-100289101D01*
X76708739Y-99573771D01*
X76567171Y-99465144D01*
X76400972Y-99369188D01*
X76340910Y-99311496D01*
X76314537Y-99232501D01*
X76327897Y-99150297D01*
X76377928Y-99083718D01*
X76453169Y-99048016D01*
X76487973Y-99044500D01*
X90141537Y-99044500D01*
X90141541Y-99044500D01*
X90334835Y-99006051D01*
X90516914Y-98930632D01*
X90680782Y-98821139D01*
X90820139Y-98681782D01*
X90929632Y-98517914D01*
X91005051Y-98335835D01*
X91043500Y-98142541D01*
X91043500Y-97945459D01*
X91005051Y-97752165D01*
X90929632Y-97570086D01*
X90820139Y-97406218D01*
X90680782Y-97266861D01*
X90680778Y-97266858D01*
X90680777Y-97266857D01*
X90516915Y-97157368D01*
X90516911Y-97157366D01*
X90334836Y-97081949D01*
X90286511Y-97072336D01*
X90141541Y-97043500D01*
X90141538Y-97043500D01*
X70643500Y-97043500D01*
X70562638Y-97023569D01*
X70500301Y-96968343D01*
X70470769Y-96890473D01*
X70469500Y-96869500D01*
X70469500Y-92579991D01*
X73464500Y-92579991D01*
X73464500Y-95380007D01*
X73475000Y-95482792D01*
X73475000Y-95482795D01*
X73530185Y-95649332D01*
X73530187Y-95649337D01*
X73594204Y-95753125D01*
X73622288Y-95798656D01*
X73746344Y-95922712D01*
X73828353Y-95973295D01*
X73895662Y-96014812D01*
X73895664Y-96014813D01*
X73895666Y-96014814D01*
X74062203Y-96069999D01*
X74062209Y-96070000D01*
X74090888Y-96072929D01*
X74164991Y-96080500D01*
X76965008Y-96080499D01*
X77067797Y-96069999D01*
X77234334Y-96014814D01*
X77383656Y-95922712D01*
X77507712Y-95798656D01*
X77599814Y-95649334D01*
X77654999Y-95482797D01*
X77661894Y-95415309D01*
X79490500Y-95415309D01*
X79490500Y-95592691D01*
X79501768Y-95649337D01*
X79525106Y-95766667D01*
X79592985Y-95930544D01*
X79592988Y-95930550D01*
X79669169Y-96044561D01*
X79691536Y-96078035D01*
X79816965Y-96203464D01*
X79848344Y-96224431D01*
X79964449Y-96302011D01*
X79964453Y-96302013D01*
X80128334Y-96369894D01*
X80302309Y-96404500D01*
X80302312Y-96404500D01*
X80479687Y-96404500D01*
X80479691Y-96404500D01*
X80653666Y-96369894D01*
X80817547Y-96302013D01*
X80919599Y-96233824D01*
X80997905Y-96205472D01*
X81016268Y-96204500D01*
X89671732Y-96204500D01*
X89752594Y-96224431D01*
X89768401Y-96233824D01*
X89870453Y-96302013D01*
X90034334Y-96369894D01*
X90208309Y-96404500D01*
X90208312Y-96404500D01*
X90385687Y-96404500D01*
X90385691Y-96404500D01*
X90559666Y-96369894D01*
X90723547Y-96302013D01*
X90871035Y-96203464D01*
X90996464Y-96078035D01*
X91095013Y-95930547D01*
X91162894Y-95766666D01*
X91197500Y-95592691D01*
X91197500Y-95415309D01*
X91162894Y-95241334D01*
X91095013Y-95077453D01*
X91095011Y-95077449D01*
X90996465Y-94929967D01*
X90996464Y-94929965D01*
X90871035Y-94804536D01*
X90839656Y-94783569D01*
X90723550Y-94705988D01*
X90723544Y-94705985D01*
X90559667Y-94638106D01*
X90516172Y-94629454D01*
X90385691Y-94603500D01*
X90208309Y-94603500D01*
X90103924Y-94624263D01*
X90034332Y-94638106D01*
X89870455Y-94705985D01*
X89870452Y-94705987D01*
X89768401Y-94774176D01*
X89690095Y-94802528D01*
X89671732Y-94803500D01*
X81016268Y-94803500D01*
X80935406Y-94783569D01*
X80919599Y-94774176D01*
X80817547Y-94705987D01*
X80817544Y-94705985D01*
X80653667Y-94638106D01*
X80610172Y-94629454D01*
X80479691Y-94603500D01*
X80302309Y-94603500D01*
X80197924Y-94624263D01*
X80128332Y-94638106D01*
X79964455Y-94705985D01*
X79964449Y-94705988D01*
X79816967Y-94804534D01*
X79691534Y-94929967D01*
X79592988Y-95077449D01*
X79592985Y-95077455D01*
X79525106Y-95241332D01*
X79513298Y-95300697D01*
X79490500Y-95415309D01*
X77661894Y-95415309D01*
X77665500Y-95380009D01*
X77665499Y-92579992D01*
X77654999Y-92477203D01*
X77599814Y-92310666D01*
X77507712Y-92161344D01*
X77383656Y-92037288D01*
X77351476Y-92017439D01*
X77234337Y-91945187D01*
X77234335Y-91945186D01*
X77067796Y-91890000D01*
X77067790Y-91889999D01*
X76972578Y-91880273D01*
X76965009Y-91879500D01*
X76965008Y-91879500D01*
X74164992Y-91879500D01*
X74062207Y-91890000D01*
X74062204Y-91890000D01*
X73895667Y-91945185D01*
X73895662Y-91945187D01*
X73746345Y-92037287D01*
X73622287Y-92161345D01*
X73530187Y-92310662D01*
X73530186Y-92310664D01*
X73475000Y-92477203D01*
X73474999Y-92477209D01*
X73464500Y-92579991D01*
X70469500Y-92579991D01*
X70469500Y-88797690D01*
X71942818Y-88797690D01*
X71942818Y-89002309D01*
X71974828Y-89204415D01*
X72038061Y-89399027D01*
X72038065Y-89399035D01*
X72130956Y-89581347D01*
X72207974Y-89687353D01*
X72749602Y-89145725D01*
X72802708Y-89237708D01*
X72905110Y-89340110D01*
X72997090Y-89393214D01*
X72455463Y-89934842D01*
X72561470Y-90011861D01*
X72743782Y-90104752D01*
X72743790Y-90104756D01*
X72938402Y-90167989D01*
X73140509Y-90200000D01*
X73345127Y-90200000D01*
X73547233Y-90167989D01*
X73741845Y-90104756D01*
X73741853Y-90104752D01*
X73924164Y-90011861D01*
X73977244Y-89973296D01*
X74054377Y-89941889D01*
X74137271Y-89949926D01*
X74206934Y-89995564D01*
X74244687Y-90059325D01*
X74248004Y-90069335D01*
X74248005Y-90069336D01*
X74248006Y-90069340D01*
X74328599Y-90200000D01*
X74340106Y-90218656D01*
X74464162Y-90342712D01*
X74464164Y-90342713D01*
X74613477Y-90434811D01*
X74613481Y-90434813D01*
X74613483Y-90434814D01*
X74692776Y-90461089D01*
X74780020Y-90489999D01*
X74780026Y-90490000D01*
X74861344Y-90498307D01*
X74882808Y-90500500D01*
X74882809Y-90500500D01*
X76682827Y-90500500D01*
X76682828Y-90500500D01*
X76709957Y-90497728D01*
X76785609Y-90490000D01*
X76785613Y-90489999D01*
X76785616Y-90489999D01*
X76952153Y-90434814D01*
X77101474Y-90342712D01*
X77225530Y-90218656D01*
X77317632Y-90069335D01*
X77372817Y-89902798D01*
X77383318Y-89800010D01*
X77383318Y-87999990D01*
X77379496Y-87962581D01*
X77372818Y-87897208D01*
X77372817Y-87897202D01*
X77351129Y-87831752D01*
X77317632Y-87730665D01*
X77317631Y-87730663D01*
X77317629Y-87730659D01*
X77225531Y-87581346D01*
X77225530Y-87581344D01*
X77101474Y-87457288D01*
X77101471Y-87457286D01*
X76952158Y-87365188D01*
X76952154Y-87365186D01*
X76785615Y-87310000D01*
X76785609Y-87309999D01*
X76690397Y-87300273D01*
X76682828Y-87299500D01*
X74882808Y-87299500D01*
X74875757Y-87300220D01*
X74780026Y-87309999D01*
X74780020Y-87310000D01*
X74613481Y-87365186D01*
X74613477Y-87365188D01*
X74464164Y-87457286D01*
X74340104Y-87581346D01*
X74248006Y-87730659D01*
X74248003Y-87730667D01*
X74244687Y-87740674D01*
X74200330Y-87811161D01*
X74128297Y-87852960D01*
X74045090Y-87856495D01*
X73977246Y-87826705D01*
X73924162Y-87788137D01*
X73741853Y-87695247D01*
X73741845Y-87695243D01*
X73547233Y-87632010D01*
X73345127Y-87600000D01*
X73140509Y-87600000D01*
X72938402Y-87632010D01*
X72743790Y-87695243D01*
X72743782Y-87695247D01*
X72561473Y-87788137D01*
X72561464Y-87788142D01*
X72455463Y-87865156D01*
X72997091Y-88406785D01*
X72905110Y-88459890D01*
X72802708Y-88562292D01*
X72749602Y-88654273D01*
X72207974Y-88112645D01*
X72130960Y-88218646D01*
X72130955Y-88218655D01*
X72038065Y-88400964D01*
X72038061Y-88400972D01*
X71974828Y-88595584D01*
X71942818Y-88797690D01*
X70469500Y-88797690D01*
X70469500Y-88370494D01*
X70489431Y-88289632D01*
X70520463Y-88247457D01*
X71073436Y-87694484D01*
X71706640Y-87061281D01*
X71706641Y-87061278D01*
X76563458Y-82204463D01*
X76634730Y-82161379D01*
X76686495Y-82153500D01*
X90141537Y-82153500D01*
X90141541Y-82153500D01*
X90334835Y-82115051D01*
X90516914Y-82039632D01*
X90680782Y-81930139D01*
X90820139Y-81790782D01*
X90929632Y-81626914D01*
X91005051Y-81444835D01*
X91043500Y-81251541D01*
X91043500Y-81054459D01*
X91005051Y-80861165D01*
X90929632Y-80679086D01*
X90922728Y-80668754D01*
X90820142Y-80515222D01*
X90820141Y-80515221D01*
X90820139Y-80515218D01*
X90680782Y-80375861D01*
X90680778Y-80375858D01*
X90680777Y-80375857D01*
X90516915Y-80266368D01*
X90516911Y-80266366D01*
X90334836Y-80190949D01*
X90268012Y-80177657D01*
X90141541Y-80152500D01*
X90141538Y-80152500D01*
X79406500Y-80152500D01*
X79325638Y-80132569D01*
X79263301Y-80077343D01*
X79233769Y-79999473D01*
X79232500Y-79978500D01*
X79232500Y-77668061D01*
X79252431Y-77587199D01*
X79307657Y-77524862D01*
X79315155Y-77519966D01*
X79450656Y-77436389D01*
X79574712Y-77312333D01*
X79666814Y-77163011D01*
X79721999Y-76996474D01*
X79732500Y-76893686D01*
X79732499Y-75385991D01*
X88415500Y-75385991D01*
X88415500Y-76986007D01*
X88426000Y-77088792D01*
X88426000Y-77088795D01*
X88481185Y-77255332D01*
X88481187Y-77255337D01*
X88516343Y-77312333D01*
X88573288Y-77404656D01*
X88697344Y-77528712D01*
X88758338Y-77566333D01*
X88846662Y-77620812D01*
X88846664Y-77620813D01*
X88846666Y-77620814D01*
X88989248Y-77668061D01*
X89013203Y-77675999D01*
X89013209Y-77676000D01*
X89041888Y-77678929D01*
X89115991Y-77686500D01*
X90716008Y-77686499D01*
X90818797Y-77675999D01*
X90985334Y-77620814D01*
X91134656Y-77528712D01*
X91258712Y-77404656D01*
X91350814Y-77255334D01*
X91405999Y-77088797D01*
X91416500Y-76986009D01*
X91416499Y-75385992D01*
X91405999Y-75283203D01*
X91350814Y-75116666D01*
X91258712Y-74967344D01*
X91134656Y-74843288D01*
X91102476Y-74823439D01*
X90985337Y-74751187D01*
X90985335Y-74751186D01*
X90818796Y-74696000D01*
X90818790Y-74695999D01*
X90723578Y-74686273D01*
X90716009Y-74685500D01*
X90716008Y-74685500D01*
X89115992Y-74685500D01*
X89013207Y-74696000D01*
X89013204Y-74696000D01*
X88846667Y-74751185D01*
X88846662Y-74751187D01*
X88697345Y-74843287D01*
X88573287Y-74967345D01*
X88481187Y-75116662D01*
X88481186Y-75116664D01*
X88426000Y-75283203D01*
X88425999Y-75283209D01*
X88415500Y-75385991D01*
X79732499Y-75385991D01*
X79732499Y-75293669D01*
X79721999Y-75190880D01*
X79666814Y-75024343D01*
X79574712Y-74875021D01*
X79450656Y-74750965D01*
X79361545Y-74696001D01*
X79301337Y-74658864D01*
X79301335Y-74658863D01*
X79134796Y-74603677D01*
X79134790Y-74603676D01*
X79039578Y-74593950D01*
X79032009Y-74593177D01*
X79032008Y-74593177D01*
X77431992Y-74593177D01*
X77329207Y-74603677D01*
X77329204Y-74603677D01*
X77162667Y-74658862D01*
X77162662Y-74658864D01*
X77013345Y-74750964D01*
X76889287Y-74875022D01*
X76797187Y-75024339D01*
X76797186Y-75024341D01*
X76742000Y-75190880D01*
X76741999Y-75190886D01*
X76731500Y-75293668D01*
X76731500Y-76893684D01*
X76742000Y-76996469D01*
X76742000Y-76996472D01*
X76797185Y-77163009D01*
X76797187Y-77163014D01*
X76854133Y-77255337D01*
X76889288Y-77312333D01*
X77013344Y-77436389D01*
X77148845Y-77519966D01*
X77207205Y-77579380D01*
X77231270Y-77659109D01*
X77231500Y-77668061D01*
X77231500Y-79978500D01*
X77211569Y-80059362D01*
X77156343Y-80121699D01*
X77078473Y-80151231D01*
X77057500Y-80152500D01*
X76501861Y-80152500D01*
X76300605Y-80175176D01*
X76278590Y-80177657D01*
X76278589Y-80177657D01*
X76278582Y-80177658D01*
X76278581Y-80177658D01*
X76059539Y-80227653D01*
X75948900Y-80266368D01*
X75847450Y-80301867D01*
X75847448Y-80301867D01*
X75847445Y-80301869D01*
X75645017Y-80399352D01*
X75645016Y-80399352D01*
X75454757Y-80518900D01*
X75279082Y-80658995D01*
X75279081Y-80658997D01*
X75244862Y-80693212D01*
X75244852Y-80693226D01*
X70316042Y-85622037D01*
X70244771Y-85665121D01*
X70193005Y-85673000D01*
X59484597Y-85673000D01*
X59405716Y-85673000D01*
X59290982Y-85673000D01*
X59290978Y-85673000D01*
X59290966Y-85673001D01*
X59063486Y-85702949D01*
X59063463Y-85702953D01*
X58841830Y-85762339D01*
X58841827Y-85762340D01*
X58629835Y-85850151D01*
X58629818Y-85850159D01*
X58431107Y-85964885D01*
X58431101Y-85964889D01*
X58249056Y-86104576D01*
X58249051Y-86104580D01*
X58249051Y-86104581D01*
X58167922Y-86185710D01*
X58167921Y-86185710D01*
X58132135Y-86221498D01*
X58132133Y-86221500D01*
X56885522Y-87468108D01*
X56814251Y-87511192D01*
X56735268Y-87516929D01*
X56647541Y-87503035D01*
X56625222Y-87499500D01*
X56404778Y-87499500D01*
X56187049Y-87533985D01*
X56187043Y-87533986D01*
X55977390Y-87602106D01*
X55780977Y-87702185D01*
X55780972Y-87702188D01*
X55602641Y-87831752D01*
X55597445Y-87836191D01*
X55523012Y-87873550D01*
X55439744Y-87872040D01*
X55366716Y-87832006D01*
X55321413Y-87764687D01*
X55318796Y-87757669D01*
X55318793Y-87757664D01*
X55232551Y-87642460D01*
X55232548Y-87642457D01*
X55232546Y-87642454D01*
X55232542Y-87642451D01*
X55232539Y-87642448D01*
X55117335Y-87556206D01*
X55117328Y-87556202D01*
X54982490Y-87505911D01*
X54982485Y-87505910D01*
X54982483Y-87505909D01*
X54922873Y-87499500D01*
X54922870Y-87499500D01*
X53027126Y-87499500D01*
X52967525Y-87505907D01*
X52967519Y-87505908D01*
X52832665Y-87556205D01*
X52832664Y-87556206D01*
X52717460Y-87642448D01*
X52717448Y-87642460D01*
X52631206Y-87757664D01*
X52631202Y-87757671D01*
X52580911Y-87892509D01*
X52580909Y-87892518D01*
X52574500Y-87952129D01*
X51300500Y-87952129D01*
X51300500Y-82872129D01*
X52574500Y-82872129D01*
X52574500Y-84767873D01*
X52580907Y-84827474D01*
X52580908Y-84827480D01*
X52631205Y-84962334D01*
X52631206Y-84962335D01*
X52717448Y-85077539D01*
X52717451Y-85077542D01*
X52717454Y-85077546D01*
X52717457Y-85077548D01*
X52717460Y-85077551D01*
X52832664Y-85163793D01*
X52832671Y-85163797D01*
X52892236Y-85186013D01*
X52967517Y-85214091D01*
X53027127Y-85220500D01*
X54922872Y-85220499D01*
X54922873Y-85220499D01*
X54982474Y-85214092D01*
X54982474Y-85214091D01*
X54982483Y-85214091D01*
X55117331Y-85163796D01*
X55232546Y-85077546D01*
X55318796Y-84962331D01*
X55321413Y-84955313D01*
X55368342Y-84886518D01*
X55441870Y-84847408D01*
X55525150Y-84846949D01*
X55597452Y-84883814D01*
X55602631Y-84888238D01*
X55602635Y-84888242D01*
X55602639Y-84888245D01*
X55602645Y-84888250D01*
X55780972Y-85017811D01*
X55780978Y-85017815D01*
X55977394Y-85117895D01*
X56187049Y-85186015D01*
X56404778Y-85220500D01*
X56404782Y-85220500D01*
X56625218Y-85220500D01*
X56625222Y-85220500D01*
X56842951Y-85186015D01*
X57052606Y-85117895D01*
X57249022Y-85017815D01*
X57427365Y-84888242D01*
X57583242Y-84732365D01*
X57712815Y-84554022D01*
X57812895Y-84357606D01*
X57881015Y-84147951D01*
X57915500Y-83930222D01*
X57915500Y-83709778D01*
X57881015Y-83492049D01*
X57812895Y-83282394D01*
X57712815Y-83085978D01*
X57583242Y-82907635D01*
X57427365Y-82751758D01*
X57427361Y-82751755D01*
X57427359Y-82751753D01*
X57249027Y-82622188D01*
X57249022Y-82622185D01*
X57052609Y-82522106D01*
X56842956Y-82453986D01*
X56842952Y-82453985D01*
X56842951Y-82453985D01*
X56625222Y-82419500D01*
X56404778Y-82419500D01*
X56187049Y-82453985D01*
X56187043Y-82453986D01*
X55977390Y-82522106D01*
X55780977Y-82622185D01*
X55780972Y-82622188D01*
X55602641Y-82751752D01*
X55597445Y-82756191D01*
X55523012Y-82793550D01*
X55439744Y-82792040D01*
X55366716Y-82752006D01*
X55321413Y-82684687D01*
X55318796Y-82677669D01*
X55318793Y-82677664D01*
X55232551Y-82562460D01*
X55232548Y-82562457D01*
X55232546Y-82562454D01*
X55232542Y-82562451D01*
X55232539Y-82562448D01*
X55117335Y-82476206D01*
X55117328Y-82476202D01*
X54982490Y-82425911D01*
X54982485Y-82425910D01*
X54982483Y-82425909D01*
X54922873Y-82419500D01*
X54922870Y-82419500D01*
X53027126Y-82419500D01*
X52967525Y-82425907D01*
X52967519Y-82425908D01*
X52832665Y-82476205D01*
X52832664Y-82476206D01*
X52717460Y-82562448D01*
X52717448Y-82562460D01*
X52631206Y-82677664D01*
X52631202Y-82677671D01*
X52580911Y-82812509D01*
X52580909Y-82812518D01*
X52574500Y-82872129D01*
X51300500Y-82872129D01*
X51300500Y-76189992D01*
X53979500Y-76189992D01*
X53979500Y-78590007D01*
X53989999Y-78692790D01*
X53990000Y-78692796D01*
X54045186Y-78859334D01*
X54045188Y-78859337D01*
X54137287Y-79008653D01*
X54261346Y-79132712D01*
X54323813Y-79171242D01*
X54410666Y-79224814D01*
X54577203Y-79279999D01*
X54577209Y-79280000D01*
X54658528Y-79288307D01*
X54679992Y-79290500D01*
X54679993Y-79290500D01*
X57080007Y-79290500D01*
X57080008Y-79290500D01*
X57107137Y-79287728D01*
X57182790Y-79280000D01*
X57182794Y-79279999D01*
X57182797Y-79279999D01*
X57349334Y-79224814D01*
X57498655Y-79132711D01*
X57622711Y-79008655D01*
X57714814Y-78859334D01*
X57769999Y-78692797D01*
X57780500Y-78590008D01*
X57780500Y-76189992D01*
X57769999Y-76087203D01*
X57714814Y-75920666D01*
X57622711Y-75771345D01*
X57498655Y-75647289D01*
X57498653Y-75647287D01*
X57349337Y-75555188D01*
X57349334Y-75555186D01*
X57182796Y-75500000D01*
X57182790Y-75499999D01*
X57087577Y-75490273D01*
X57080008Y-75489500D01*
X54679992Y-75489500D01*
X54672941Y-75490220D01*
X54577209Y-75499999D01*
X54577203Y-75500000D01*
X54410665Y-75555186D01*
X54410662Y-75555188D01*
X54261346Y-75647287D01*
X54137287Y-75771346D01*
X54045188Y-75920662D01*
X54045186Y-75920665D01*
X53990000Y-76087203D01*
X53989999Y-76087209D01*
X53979500Y-76189992D01*
X51300500Y-76189992D01*
X51300500Y-72265441D01*
X53979500Y-72265441D01*
X53979500Y-72514558D01*
X53979501Y-72514580D01*
X54012015Y-72761553D01*
X54012017Y-72761563D01*
X54012018Y-72761565D01*
X54026461Y-72815469D01*
X54076496Y-73002203D01*
X54140056Y-73155651D01*
X54171836Y-73232373D01*
X54296401Y-73448127D01*
X54448062Y-73645776D01*
X54624224Y-73821938D01*
X54821873Y-73973599D01*
X55037627Y-74098164D01*
X55267793Y-74193502D01*
X55267794Y-74193502D01*
X55267796Y-74193503D01*
X55307257Y-74204076D01*
X55508435Y-74257982D01*
X55508442Y-74257982D01*
X55508446Y-74257984D01*
X55755419Y-74290498D01*
X55755421Y-74290498D01*
X55755435Y-74290500D01*
X55755442Y-74290500D01*
X56004558Y-74290500D01*
X56004565Y-74290500D01*
X56018565Y-74288656D01*
X56251553Y-74257984D01*
X56251555Y-74257983D01*
X56251565Y-74257982D01*
X56492207Y-74193502D01*
X56722373Y-74098164D01*
X56938127Y-73973599D01*
X57135776Y-73821938D01*
X57311938Y-73645776D01*
X57463599Y-73448127D01*
X57588164Y-73232373D01*
X57683502Y-73002207D01*
X57747982Y-72761565D01*
X57780500Y-72514565D01*
X57780500Y-72265435D01*
X57773509Y-72212331D01*
X57747984Y-72018446D01*
X57747982Y-72018442D01*
X57747982Y-72018435D01*
X57683502Y-71777793D01*
X57588164Y-71547627D01*
X57463599Y-71331873D01*
X57334531Y-71163668D01*
X65301500Y-71163668D01*
X65301500Y-72763684D01*
X65312000Y-72866469D01*
X65312000Y-72866472D01*
X65367185Y-73033009D01*
X65367187Y-73033014D01*
X65439439Y-73150153D01*
X65459288Y-73182333D01*
X65583344Y-73306389D01*
X65668306Y-73358794D01*
X65732662Y-73398489D01*
X65732664Y-73398490D01*
X65732666Y-73398491D01*
X65882442Y-73448122D01*
X65899203Y-73453676D01*
X65899209Y-73453677D01*
X65927888Y-73456606D01*
X66001991Y-73464177D01*
X67602008Y-73464176D01*
X67704797Y-73453676D01*
X67871334Y-73398491D01*
X68020656Y-73306389D01*
X68144712Y-73182333D01*
X68236814Y-73033011D01*
X68291999Y-72866474D01*
X68302500Y-72763686D01*
X68302499Y-71901761D01*
X68302499Y-71163669D01*
X68292591Y-71066676D01*
X68291999Y-71060880D01*
X68271573Y-70999238D01*
X77032000Y-70999238D01*
X77032000Y-71188115D01*
X77061548Y-71374677D01*
X77119916Y-71554317D01*
X77119917Y-71554319D01*
X77205668Y-71722614D01*
X77205671Y-71722619D01*
X77268749Y-71809438D01*
X77775387Y-71302799D01*
X77831901Y-71400684D01*
X77924993Y-71493776D01*
X78022875Y-71550288D01*
X77516238Y-72056926D01*
X77603063Y-72120008D01*
X77771357Y-72205759D01*
X77771359Y-72205760D01*
X77950999Y-72264128D01*
X78137562Y-72293677D01*
X78326438Y-72293677D01*
X78513000Y-72264128D01*
X78692640Y-72205760D01*
X78692642Y-72205759D01*
X78860941Y-72120006D01*
X78947761Y-72056926D01*
X78441123Y-71550288D01*
X78539007Y-71493776D01*
X78632099Y-71400684D01*
X78688611Y-71302800D01*
X79195249Y-71809438D01*
X79258329Y-71722618D01*
X79344082Y-71554319D01*
X79344083Y-71554317D01*
X79402451Y-71374677D01*
X79432000Y-71188115D01*
X79432000Y-71091561D01*
X88716000Y-71091561D01*
X88716000Y-71280438D01*
X88745548Y-71467000D01*
X88803916Y-71646640D01*
X88803917Y-71646642D01*
X88889668Y-71814937D01*
X88889671Y-71814942D01*
X88952749Y-71901761D01*
X89459387Y-71395122D01*
X89515901Y-71493007D01*
X89608993Y-71586099D01*
X89706875Y-71642611D01*
X89200238Y-72149249D01*
X89287063Y-72212331D01*
X89455357Y-72298082D01*
X89455359Y-72298083D01*
X89634999Y-72356451D01*
X89821562Y-72386000D01*
X90010438Y-72386000D01*
X90197000Y-72356451D01*
X90376640Y-72298083D01*
X90376642Y-72298082D01*
X90544940Y-72212329D01*
X90631761Y-72149249D01*
X90125123Y-71642611D01*
X90223007Y-71586099D01*
X90316099Y-71493007D01*
X90372611Y-71395123D01*
X90879249Y-71901761D01*
X90942329Y-71814941D01*
X91028082Y-71646642D01*
X91028083Y-71646640D01*
X91086451Y-71467000D01*
X91116000Y-71280438D01*
X91116000Y-71253238D01*
X100400000Y-71253238D01*
X100400000Y-71442115D01*
X100429548Y-71628677D01*
X100487916Y-71808317D01*
X100487917Y-71808319D01*
X100573668Y-71976614D01*
X100573671Y-71976619D01*
X100636749Y-72063438D01*
X101143387Y-71556799D01*
X101199901Y-71654684D01*
X101292993Y-71747776D01*
X101390875Y-71804288D01*
X100884238Y-72310926D01*
X100971063Y-72374008D01*
X101139357Y-72459759D01*
X101139359Y-72459760D01*
X101318999Y-72518128D01*
X101505562Y-72547677D01*
X101694438Y-72547677D01*
X101881000Y-72518128D01*
X102060640Y-72459760D01*
X102060642Y-72459759D01*
X102228941Y-72374006D01*
X102315761Y-72310926D01*
X101809123Y-71804288D01*
X101907007Y-71747776D01*
X102000099Y-71654684D01*
X102056611Y-71556800D01*
X102563249Y-72063438D01*
X102626329Y-71976618D01*
X102712082Y-71808319D01*
X102712083Y-71808317D01*
X102770451Y-71628677D01*
X102800000Y-71442115D01*
X102800000Y-71253238D01*
X102770451Y-71066676D01*
X102712083Y-70887036D01*
X102712082Y-70887034D01*
X102626331Y-70718740D01*
X102563249Y-70631915D01*
X102056611Y-71138552D01*
X102000099Y-71040670D01*
X101907007Y-70947578D01*
X101809122Y-70891064D01*
X102315761Y-70384426D01*
X102228942Y-70321348D01*
X102228937Y-70321345D01*
X102060642Y-70235594D01*
X102060640Y-70235593D01*
X101881000Y-70177225D01*
X101694438Y-70147677D01*
X101505562Y-70147677D01*
X101318999Y-70177225D01*
X101139359Y-70235593D01*
X101139357Y-70235594D01*
X100971062Y-70321345D01*
X100971055Y-70321350D01*
X100884237Y-70384426D01*
X101390876Y-70891065D01*
X101292993Y-70947578D01*
X101199901Y-71040670D01*
X101143388Y-71138553D01*
X100636749Y-70631914D01*
X100573673Y-70718732D01*
X100573668Y-70718739D01*
X100487917Y-70887034D01*
X100487916Y-70887036D01*
X100429548Y-71066676D01*
X100400000Y-71253238D01*
X91116000Y-71253238D01*
X91116000Y-71091561D01*
X91086451Y-70904999D01*
X91028083Y-70725359D01*
X91028082Y-70725357D01*
X90942331Y-70557062D01*
X90939390Y-70553014D01*
X90939388Y-70553010D01*
X90879249Y-70470237D01*
X90372611Y-70976874D01*
X90316099Y-70878993D01*
X90223007Y-70785901D01*
X90125122Y-70729387D01*
X90631761Y-70222749D01*
X90544942Y-70159671D01*
X90544937Y-70159668D01*
X90376642Y-70073917D01*
X90376640Y-70073916D01*
X90197000Y-70015548D01*
X90010438Y-69986000D01*
X89821562Y-69986000D01*
X89634999Y-70015548D01*
X89455359Y-70073916D01*
X89455357Y-70073917D01*
X89287062Y-70159668D01*
X89287055Y-70159673D01*
X89200237Y-70222749D01*
X89706876Y-70729388D01*
X89608993Y-70785901D01*
X89515901Y-70878993D01*
X89459388Y-70976876D01*
X88952749Y-70470237D01*
X88889673Y-70557055D01*
X88889668Y-70557062D01*
X88803917Y-70725357D01*
X88803916Y-70725359D01*
X88745548Y-70904999D01*
X88716000Y-71091561D01*
X79432000Y-71091561D01*
X79432000Y-70999238D01*
X79402451Y-70812676D01*
X79344083Y-70633036D01*
X79344082Y-70633034D01*
X79258331Y-70464740D01*
X79205004Y-70391341D01*
X79205002Y-70391337D01*
X79195249Y-70377914D01*
X78688611Y-70884551D01*
X78632099Y-70786670D01*
X78539007Y-70693578D01*
X78441122Y-70637064D01*
X78947761Y-70130426D01*
X78860942Y-70067348D01*
X78860937Y-70067345D01*
X78692642Y-69981594D01*
X78692640Y-69981593D01*
X78513000Y-69923225D01*
X78326438Y-69893677D01*
X78137562Y-69893677D01*
X77950999Y-69923225D01*
X77771359Y-69981593D01*
X77771357Y-69981594D01*
X77603062Y-70067345D01*
X77603055Y-70067350D01*
X77516237Y-70130426D01*
X78022876Y-70637065D01*
X77924993Y-70693578D01*
X77831901Y-70786670D01*
X77775388Y-70884553D01*
X77268749Y-70377914D01*
X77205673Y-70464732D01*
X77205668Y-70464739D01*
X77119917Y-70633034D01*
X77119916Y-70633036D01*
X77061548Y-70812676D01*
X77032000Y-70999238D01*
X68271573Y-70999238D01*
X68236814Y-70894343D01*
X68144712Y-70745021D01*
X68020656Y-70620965D01*
X67964773Y-70586496D01*
X67871337Y-70528864D01*
X67871335Y-70528863D01*
X67704796Y-70473677D01*
X67704790Y-70473676D01*
X67609578Y-70463950D01*
X67602009Y-70463177D01*
X67602008Y-70463177D01*
X66001992Y-70463177D01*
X65899207Y-70473677D01*
X65899204Y-70473677D01*
X65732667Y-70528862D01*
X65732662Y-70528864D01*
X65583345Y-70620964D01*
X65459287Y-70745022D01*
X65367187Y-70894339D01*
X65367186Y-70894341D01*
X65312000Y-71060880D01*
X65311999Y-71060886D01*
X65301500Y-71163668D01*
X57334531Y-71163668D01*
X57311938Y-71134224D01*
X57135776Y-70958062D01*
X56938127Y-70806401D01*
X56831813Y-70745021D01*
X56722375Y-70681837D01*
X56492203Y-70586496D01*
X56305469Y-70536461D01*
X56251565Y-70522018D01*
X56251563Y-70522017D01*
X56251553Y-70522015D01*
X56004580Y-70489501D01*
X56004568Y-70489500D01*
X56004565Y-70489500D01*
X55755435Y-70489500D01*
X55755431Y-70489500D01*
X55755419Y-70489501D01*
X55508446Y-70522015D01*
X55508435Y-70522018D01*
X55267796Y-70586496D01*
X55037624Y-70681837D01*
X54821877Y-70806398D01*
X54821874Y-70806400D01*
X54624226Y-70958060D01*
X54448060Y-71134226D01*
X54296400Y-71331874D01*
X54296398Y-71331877D01*
X54171837Y-71547624D01*
X54076496Y-71777796D01*
X54012018Y-72018435D01*
X54012015Y-72018446D01*
X53979501Y-72265419D01*
X53979500Y-72265441D01*
X51300500Y-72265441D01*
X51300500Y-66869238D01*
X65602000Y-66869238D01*
X65602000Y-67058115D01*
X65631548Y-67244677D01*
X65689916Y-67424317D01*
X65689917Y-67424319D01*
X65775668Y-67592614D01*
X65775671Y-67592619D01*
X65838749Y-67679438D01*
X66345387Y-67172799D01*
X66401901Y-67270684D01*
X66494993Y-67363776D01*
X66592875Y-67420288D01*
X66086238Y-67926926D01*
X66173063Y-67990008D01*
X66341357Y-68075759D01*
X66341359Y-68075760D01*
X66520999Y-68134128D01*
X66707562Y-68163677D01*
X66896438Y-68163677D01*
X67083000Y-68134128D01*
X67262640Y-68075760D01*
X67262642Y-68075759D01*
X67430941Y-67990006D01*
X67517761Y-67926926D01*
X67011123Y-67420288D01*
X67109007Y-67363776D01*
X67202099Y-67270684D01*
X67258611Y-67172800D01*
X67765249Y-67679438D01*
X67828329Y-67592618D01*
X67914082Y-67424319D01*
X67914083Y-67424317D01*
X67972451Y-67244677D01*
X68002000Y-67058115D01*
X68002000Y-66869238D01*
X67972451Y-66682676D01*
X67914083Y-66503036D01*
X67914082Y-66503034D01*
X67828331Y-66334740D01*
X67765249Y-66247915D01*
X67258611Y-66754552D01*
X67202099Y-66656670D01*
X67109007Y-66563578D01*
X67011122Y-66507064D01*
X67517761Y-66000426D01*
X67430942Y-65937348D01*
X67430937Y-65937345D01*
X67262642Y-65851594D01*
X67262640Y-65851593D01*
X67083000Y-65793225D01*
X66896438Y-65763677D01*
X66707562Y-65763677D01*
X66520999Y-65793225D01*
X66341359Y-65851593D01*
X66341357Y-65851594D01*
X66173062Y-65937345D01*
X66173055Y-65937350D01*
X66086237Y-66000426D01*
X66592876Y-66507065D01*
X66494993Y-66563578D01*
X66401901Y-66656670D01*
X66345388Y-66754553D01*
X65838749Y-66247914D01*
X65775673Y-66334732D01*
X65775668Y-66334739D01*
X65689917Y-66503034D01*
X65689916Y-66503036D01*
X65631548Y-66682676D01*
X65602000Y-66869238D01*
X51300500Y-66869238D01*
X51300500Y-64890425D01*
X51300835Y-64879638D01*
X51301916Y-64862231D01*
X51308974Y-64835892D01*
X51308974Y-64770000D01*
X51315330Y-64648718D01*
X52759500Y-64648718D01*
X52759500Y-64891281D01*
X52759501Y-64891303D01*
X52791159Y-65131773D01*
X52791163Y-65131792D01*
X52853945Y-65366098D01*
X52946778Y-65590216D01*
X52946781Y-65590223D01*
X53024611Y-65725027D01*
X53068064Y-65800289D01*
X53215735Y-65992738D01*
X53387262Y-66164265D01*
X53579711Y-66311936D01*
X53619195Y-66334732D01*
X53789776Y-66433218D01*
X53789782Y-66433220D01*
X53789788Y-66433224D01*
X54013900Y-66526054D01*
X54248211Y-66588838D01*
X54248225Y-66588839D01*
X54248226Y-66588840D01*
X54488696Y-66620498D01*
X54488698Y-66620498D01*
X54488712Y-66620500D01*
X54488719Y-66620500D01*
X54731281Y-66620500D01*
X54731288Y-66620500D01*
X54971789Y-66588838D01*
X55206100Y-66526054D01*
X55430212Y-66433224D01*
X55430220Y-66433219D01*
X55430223Y-66433218D01*
X55519733Y-66381539D01*
X55640289Y-66311936D01*
X55832738Y-66164265D01*
X56004265Y-65992738D01*
X56151936Y-65800289D01*
X56273224Y-65590212D01*
X56366054Y-65366100D01*
X56428838Y-65131789D01*
X56460500Y-64891288D01*
X56460500Y-64648712D01*
X56428838Y-64408211D01*
X56366054Y-64173900D01*
X56306421Y-64029934D01*
X56290209Y-63990794D01*
X56284135Y-63976129D01*
X74239000Y-63976129D01*
X74239000Y-66071873D01*
X74245407Y-66131474D01*
X74245408Y-66131480D01*
X74295705Y-66266334D01*
X74295706Y-66266335D01*
X74381948Y-66381539D01*
X74381951Y-66381542D01*
X74381954Y-66381546D01*
X74381957Y-66381548D01*
X74381960Y-66381551D01*
X74497164Y-66467793D01*
X74497171Y-66467797D01*
X74577485Y-66497752D01*
X74632017Y-66518091D01*
X74691627Y-66524500D01*
X76692372Y-66524499D01*
X76692373Y-66524499D01*
X76751974Y-66518092D01*
X76751974Y-66518091D01*
X76751983Y-66518091D01*
X76886831Y-66467796D01*
X77002046Y-66381546D01*
X77088296Y-66266331D01*
X77138591Y-66131483D01*
X77145000Y-66071873D01*
X77144999Y-66034454D01*
X77164928Y-65953596D01*
X77220152Y-65891257D01*
X77298022Y-65861723D01*
X77380696Y-65871760D01*
X77442036Y-65911417D01*
X77481204Y-65950585D01*
X77627952Y-66057203D01*
X77627957Y-66057206D01*
X77789589Y-66139562D01*
X77789592Y-66139563D01*
X77962123Y-66195621D01*
X78141299Y-66224000D01*
X78322701Y-66224000D01*
X78501876Y-66195621D01*
X78674407Y-66139563D01*
X78674410Y-66139562D01*
X78836042Y-66057206D01*
X78836049Y-66057202D01*
X78941267Y-65980755D01*
X78941267Y-65980754D01*
X78477727Y-65517214D01*
X78569708Y-65464110D01*
X78672110Y-65361708D01*
X78725214Y-65269726D01*
X79181232Y-65725744D01*
X79186780Y-65718108D01*
X79250433Y-65664404D01*
X79331753Y-65646433D01*
X79412110Y-65668311D01*
X79473095Y-65725027D01*
X79482584Y-65741386D01*
X79529283Y-65833038D01*
X79663714Y-66018066D01*
X79825434Y-66179786D01*
X80010462Y-66314217D01*
X80214242Y-66418048D01*
X80431755Y-66488722D01*
X80657646Y-66524500D01*
X80657649Y-66524500D01*
X80886351Y-66524500D01*
X80886354Y-66524500D01*
X81112245Y-66488722D01*
X81329758Y-66418048D01*
X81533538Y-66314217D01*
X81718566Y-66179786D01*
X81880286Y-66018066D01*
X82014717Y-65833038D01*
X82118548Y-65629258D01*
X82189222Y-65411745D01*
X82225000Y-65185854D01*
X82225000Y-64862146D01*
X82189222Y-64636255D01*
X82118548Y-64418742D01*
X82014717Y-64214962D01*
X81880286Y-64029934D01*
X81826481Y-63976129D01*
X85923000Y-63976129D01*
X85923000Y-66071873D01*
X85929407Y-66131474D01*
X85929408Y-66131480D01*
X85979705Y-66266334D01*
X85979706Y-66266335D01*
X86065948Y-66381539D01*
X86065951Y-66381542D01*
X86065954Y-66381546D01*
X86065957Y-66381548D01*
X86065960Y-66381551D01*
X86181164Y-66467793D01*
X86181171Y-66467797D01*
X86261485Y-66497752D01*
X86316017Y-66518091D01*
X86375627Y-66524500D01*
X88376372Y-66524499D01*
X88376373Y-66524499D01*
X88435974Y-66518092D01*
X88435974Y-66518091D01*
X88435983Y-66518091D01*
X88570831Y-66467796D01*
X88686046Y-66381546D01*
X88772296Y-66266331D01*
X88822591Y-66131483D01*
X88829000Y-66071873D01*
X88828999Y-66034454D01*
X88848928Y-65953596D01*
X88904152Y-65891257D01*
X88982022Y-65861723D01*
X89064696Y-65871760D01*
X89126036Y-65911417D01*
X89165204Y-65950585D01*
X89311952Y-66057203D01*
X89311957Y-66057206D01*
X89473589Y-66139562D01*
X89473592Y-66139563D01*
X89646123Y-66195621D01*
X89825299Y-66224000D01*
X90006701Y-66224000D01*
X90185876Y-66195621D01*
X90358407Y-66139563D01*
X90358410Y-66139562D01*
X90520042Y-66057206D01*
X90520049Y-66057202D01*
X90625267Y-65980755D01*
X90625267Y-65980754D01*
X90161727Y-65517214D01*
X90253708Y-65464110D01*
X90356110Y-65361708D01*
X90409214Y-65269726D01*
X90865232Y-65725744D01*
X90870780Y-65718108D01*
X90934433Y-65664404D01*
X91015753Y-65646433D01*
X91096110Y-65668311D01*
X91157095Y-65725027D01*
X91166584Y-65741386D01*
X91213283Y-65833038D01*
X91347714Y-66018066D01*
X91509434Y-66179786D01*
X91694462Y-66314217D01*
X91898242Y-66418048D01*
X92115755Y-66488722D01*
X92341646Y-66524500D01*
X92341649Y-66524500D01*
X92570351Y-66524500D01*
X92570354Y-66524500D01*
X92796245Y-66488722D01*
X93013758Y-66418048D01*
X93217538Y-66314217D01*
X93402566Y-66179786D01*
X93564286Y-66018066D01*
X93698717Y-65833038D01*
X93802548Y-65629258D01*
X93873222Y-65411745D01*
X93909000Y-65185854D01*
X93909000Y-64862146D01*
X93873222Y-64636255D01*
X93802548Y-64418742D01*
X93698717Y-64214962D01*
X93564286Y-64029934D01*
X93510481Y-63976129D01*
X97607000Y-63976129D01*
X97607000Y-66071873D01*
X97613407Y-66131474D01*
X97613408Y-66131480D01*
X97663705Y-66266334D01*
X97663706Y-66266335D01*
X97749948Y-66381539D01*
X97749951Y-66381542D01*
X97749954Y-66381546D01*
X97749957Y-66381548D01*
X97749960Y-66381551D01*
X97865164Y-66467793D01*
X97865171Y-66467797D01*
X97945485Y-66497752D01*
X98000017Y-66518091D01*
X98059627Y-66524500D01*
X100060372Y-66524499D01*
X100060373Y-66524499D01*
X100119974Y-66518092D01*
X100119974Y-66518091D01*
X100119983Y-66518091D01*
X100254831Y-66467796D01*
X100370046Y-66381546D01*
X100456296Y-66266331D01*
X100506591Y-66131483D01*
X100513000Y-66071873D01*
X100512999Y-66034454D01*
X100532928Y-65953596D01*
X100588152Y-65891257D01*
X100666022Y-65861723D01*
X100748696Y-65871760D01*
X100810036Y-65911417D01*
X100849204Y-65950585D01*
X100995952Y-66057203D01*
X100995957Y-66057206D01*
X101157589Y-66139562D01*
X101157592Y-66139563D01*
X101330123Y-66195621D01*
X101509299Y-66224000D01*
X101690701Y-66224000D01*
X101869876Y-66195621D01*
X102042407Y-66139563D01*
X102042410Y-66139562D01*
X102204042Y-66057206D01*
X102204049Y-66057202D01*
X102309267Y-65980755D01*
X102309267Y-65980754D01*
X101845727Y-65517214D01*
X101937708Y-65464110D01*
X102040110Y-65361708D01*
X102093214Y-65269726D01*
X102549232Y-65725744D01*
X102554780Y-65718108D01*
X102618433Y-65664404D01*
X102699753Y-65646433D01*
X102780110Y-65668311D01*
X102841095Y-65725027D01*
X102850584Y-65741386D01*
X102897283Y-65833038D01*
X103031714Y-66018066D01*
X103193434Y-66179786D01*
X103378462Y-66314217D01*
X103582242Y-66418048D01*
X103799755Y-66488722D01*
X104025646Y-66524500D01*
X104025649Y-66524500D01*
X104254351Y-66524500D01*
X104254354Y-66524500D01*
X104480245Y-66488722D01*
X104697758Y-66418048D01*
X104901538Y-66314217D01*
X105086566Y-66179786D01*
X105248286Y-66018066D01*
X105382717Y-65833038D01*
X105486548Y-65629258D01*
X105557222Y-65411745D01*
X105593000Y-65185854D01*
X105593000Y-64862146D01*
X105559195Y-64648718D01*
X109909500Y-64648718D01*
X109909500Y-64891281D01*
X109909501Y-64891303D01*
X109941159Y-65131773D01*
X109941163Y-65131792D01*
X110003945Y-65366098D01*
X110096778Y-65590216D01*
X110096781Y-65590223D01*
X110174611Y-65725027D01*
X110218064Y-65800289D01*
X110365735Y-65992738D01*
X110537262Y-66164265D01*
X110729711Y-66311936D01*
X110769195Y-66334732D01*
X110939776Y-66433218D01*
X110939782Y-66433220D01*
X110939788Y-66433224D01*
X111163900Y-66526054D01*
X111398211Y-66588838D01*
X111398225Y-66588839D01*
X111398226Y-66588840D01*
X111638696Y-66620498D01*
X111638698Y-66620498D01*
X111638712Y-66620500D01*
X111638719Y-66620500D01*
X111881281Y-66620500D01*
X111881288Y-66620500D01*
X112121789Y-66588838D01*
X112356100Y-66526054D01*
X112580212Y-66433224D01*
X112580220Y-66433219D01*
X112580223Y-66433218D01*
X112669733Y-66381539D01*
X112790289Y-66311936D01*
X112982738Y-66164265D01*
X113154265Y-65992738D01*
X113301936Y-65800289D01*
X113423224Y-65590212D01*
X113516054Y-65366100D01*
X113578838Y-65131789D01*
X113610500Y-64891288D01*
X113610500Y-64648712D01*
X113578838Y-64408211D01*
X113516054Y-64173900D01*
X113423224Y-63949788D01*
X113423220Y-63949782D01*
X113423218Y-63949776D01*
X113342365Y-63809736D01*
X113301936Y-63739711D01*
X113154265Y-63547262D01*
X112982738Y-63375735D01*
X112790289Y-63228064D01*
X112784028Y-63224449D01*
X112580223Y-63106781D01*
X112580216Y-63106778D01*
X112580214Y-63106777D01*
X112580212Y-63106776D01*
X112430804Y-63044889D01*
X112356098Y-63013945D01*
X112191399Y-62969814D01*
X112121789Y-62951162D01*
X112121784Y-62951161D01*
X112121773Y-62951159D01*
X111881303Y-62919501D01*
X111881291Y-62919500D01*
X111881288Y-62919500D01*
X111638712Y-62919500D01*
X111638708Y-62919500D01*
X111638696Y-62919501D01*
X111398226Y-62951159D01*
X111398213Y-62951161D01*
X111398211Y-62951162D01*
X111398208Y-62951162D01*
X111398207Y-62951163D01*
X111163901Y-63013945D01*
X110939783Y-63106778D01*
X110939776Y-63106781D01*
X110729717Y-63228060D01*
X110729711Y-63228064D01*
X110537264Y-63375733D01*
X110365733Y-63547264D01*
X110218064Y-63739711D01*
X110218060Y-63739717D01*
X110096781Y-63949776D01*
X110096778Y-63949783D01*
X110003945Y-64173901D01*
X109941163Y-64408207D01*
X109941159Y-64408226D01*
X109909501Y-64648696D01*
X109909500Y-64648718D01*
X105559195Y-64648718D01*
X105559192Y-64648696D01*
X105557223Y-64636261D01*
X105557222Y-64636257D01*
X105557222Y-64636255D01*
X105486548Y-64418742D01*
X105382717Y-64214962D01*
X105248286Y-64029934D01*
X105086566Y-63868214D01*
X104901538Y-63733783D01*
X104769409Y-63666460D01*
X104697761Y-63629953D01*
X104697758Y-63629952D01*
X104480245Y-63559278D01*
X104254354Y-63523500D01*
X104025646Y-63523500D01*
X103799755Y-63559278D01*
X103582241Y-63629952D01*
X103582238Y-63629953D01*
X103378462Y-63733783D01*
X103193435Y-63868213D01*
X103031713Y-64029935D01*
X102897283Y-64214962D01*
X102850585Y-64306612D01*
X102796116Y-64369612D01*
X102718608Y-64400082D01*
X102635818Y-64391043D01*
X102566712Y-64344565D01*
X102554781Y-64329891D01*
X102549232Y-64322254D01*
X102093214Y-64778272D01*
X102040110Y-64686292D01*
X101937708Y-64583890D01*
X101845725Y-64530784D01*
X102309267Y-64067243D01*
X102204044Y-63990794D01*
X102204032Y-63990786D01*
X102042415Y-63908440D01*
X102042407Y-63908436D01*
X101869876Y-63852378D01*
X101690701Y-63824000D01*
X101509299Y-63824000D01*
X101330123Y-63852378D01*
X101157592Y-63908436D01*
X101157589Y-63908437D01*
X100995957Y-63990793D01*
X100995952Y-63990796D01*
X100849204Y-64097414D01*
X100810036Y-64136583D01*
X100738765Y-64179667D01*
X100655635Y-64184696D01*
X100579690Y-64150516D01*
X100528328Y-64084958D01*
X100512999Y-64013546D01*
X100512999Y-63976126D01*
X100506592Y-63916525D01*
X100506591Y-63916519D01*
X100506591Y-63916518D01*
X100506591Y-63916517D01*
X100456296Y-63781669D01*
X100456294Y-63781667D01*
X100456294Y-63781665D01*
X100456293Y-63781664D01*
X100370051Y-63666460D01*
X100370048Y-63666457D01*
X100370046Y-63666454D01*
X100370042Y-63666451D01*
X100370039Y-63666448D01*
X100254835Y-63580206D01*
X100254828Y-63580202D01*
X100119990Y-63529911D01*
X100119985Y-63529910D01*
X100119983Y-63529909D01*
X100060373Y-63523500D01*
X100060370Y-63523500D01*
X98059626Y-63523500D01*
X98000025Y-63529907D01*
X98000019Y-63529908D01*
X97865165Y-63580205D01*
X97865164Y-63580206D01*
X97749960Y-63666448D01*
X97749948Y-63666460D01*
X97663706Y-63781664D01*
X97663702Y-63781671D01*
X97613411Y-63916509D01*
X97613409Y-63916515D01*
X97613409Y-63916517D01*
X97609833Y-63949783D01*
X97607000Y-63976129D01*
X93510481Y-63976129D01*
X93402566Y-63868214D01*
X93217538Y-63733783D01*
X93085409Y-63666460D01*
X93013761Y-63629953D01*
X93013758Y-63629952D01*
X92796245Y-63559278D01*
X92570354Y-63523500D01*
X92341646Y-63523500D01*
X92115755Y-63559278D01*
X91898241Y-63629952D01*
X91898238Y-63629953D01*
X91694462Y-63733783D01*
X91509435Y-63868213D01*
X91347713Y-64029935D01*
X91213283Y-64214962D01*
X91166585Y-64306612D01*
X91112116Y-64369612D01*
X91034608Y-64400082D01*
X90951818Y-64391043D01*
X90882712Y-64344565D01*
X90870781Y-64329891D01*
X90865232Y-64322254D01*
X90409214Y-64778272D01*
X90356110Y-64686292D01*
X90253708Y-64583890D01*
X90161725Y-64530784D01*
X90625267Y-64067243D01*
X90520044Y-63990794D01*
X90520032Y-63990786D01*
X90358415Y-63908440D01*
X90358407Y-63908436D01*
X90185876Y-63852378D01*
X90006701Y-63824000D01*
X89825299Y-63824000D01*
X89646123Y-63852378D01*
X89473592Y-63908436D01*
X89473589Y-63908437D01*
X89311957Y-63990793D01*
X89311952Y-63990796D01*
X89165204Y-64097414D01*
X89126036Y-64136583D01*
X89054765Y-64179667D01*
X88971635Y-64184696D01*
X88895690Y-64150516D01*
X88844328Y-64084958D01*
X88828999Y-64013546D01*
X88828999Y-63976126D01*
X88822592Y-63916525D01*
X88822591Y-63916519D01*
X88822591Y-63916518D01*
X88822591Y-63916517D01*
X88772296Y-63781669D01*
X88772294Y-63781667D01*
X88772294Y-63781665D01*
X88772293Y-63781664D01*
X88686051Y-63666460D01*
X88686048Y-63666457D01*
X88686046Y-63666454D01*
X88686042Y-63666451D01*
X88686039Y-63666448D01*
X88570835Y-63580206D01*
X88570828Y-63580202D01*
X88435990Y-63529911D01*
X88435985Y-63529910D01*
X88435983Y-63529909D01*
X88376373Y-63523500D01*
X88376370Y-63523500D01*
X86375626Y-63523500D01*
X86316025Y-63529907D01*
X86316019Y-63529908D01*
X86181165Y-63580205D01*
X86181164Y-63580206D01*
X86065960Y-63666448D01*
X86065948Y-63666460D01*
X85979706Y-63781664D01*
X85979702Y-63781671D01*
X85929411Y-63916509D01*
X85929409Y-63916515D01*
X85929409Y-63916517D01*
X85925833Y-63949783D01*
X85923000Y-63976129D01*
X81826481Y-63976129D01*
X81718566Y-63868214D01*
X81533538Y-63733783D01*
X81401409Y-63666460D01*
X81329761Y-63629953D01*
X81329758Y-63629952D01*
X81112245Y-63559278D01*
X80886354Y-63523500D01*
X80657646Y-63523500D01*
X80431755Y-63559278D01*
X80214241Y-63629952D01*
X80214238Y-63629953D01*
X80010462Y-63733783D01*
X79825435Y-63868213D01*
X79663713Y-64029935D01*
X79529283Y-64214962D01*
X79482585Y-64306612D01*
X79428116Y-64369612D01*
X79350608Y-64400082D01*
X79267818Y-64391043D01*
X79198712Y-64344565D01*
X79186781Y-64329891D01*
X79181232Y-64322254D01*
X78725214Y-64778272D01*
X78672110Y-64686292D01*
X78569708Y-64583890D01*
X78477725Y-64530784D01*
X78941267Y-64067243D01*
X78836044Y-63990794D01*
X78836032Y-63990786D01*
X78674415Y-63908440D01*
X78674407Y-63908436D01*
X78501876Y-63852378D01*
X78322701Y-63824000D01*
X78141299Y-63824000D01*
X77962123Y-63852378D01*
X77789592Y-63908436D01*
X77789589Y-63908437D01*
X77627957Y-63990793D01*
X77627952Y-63990796D01*
X77481204Y-64097414D01*
X77442036Y-64136583D01*
X77370765Y-64179667D01*
X77287635Y-64184696D01*
X77211690Y-64150516D01*
X77160328Y-64084958D01*
X77144999Y-64013546D01*
X77144999Y-63976126D01*
X77138592Y-63916525D01*
X77138591Y-63916519D01*
X77138591Y-63916518D01*
X77138591Y-63916517D01*
X77088296Y-63781669D01*
X77088294Y-63781667D01*
X77088294Y-63781665D01*
X77088293Y-63781664D01*
X77002051Y-63666460D01*
X77002048Y-63666457D01*
X77002046Y-63666454D01*
X77002042Y-63666451D01*
X77002039Y-63666448D01*
X76886835Y-63580206D01*
X76886828Y-63580202D01*
X76751990Y-63529911D01*
X76751985Y-63529910D01*
X76751983Y-63529909D01*
X76692373Y-63523500D01*
X76692370Y-63523500D01*
X74691626Y-63523500D01*
X74632025Y-63529907D01*
X74632019Y-63529908D01*
X74497165Y-63580205D01*
X74497164Y-63580206D01*
X74381960Y-63666448D01*
X74381948Y-63666460D01*
X74295706Y-63781664D01*
X74295702Y-63781671D01*
X74245411Y-63916509D01*
X74245409Y-63916515D01*
X74245409Y-63916517D01*
X74241833Y-63949783D01*
X74239000Y-63976129D01*
X56284135Y-63976129D01*
X56273224Y-63949788D01*
X56273220Y-63949782D01*
X56273219Y-63949778D01*
X56273218Y-63949776D01*
X56192365Y-63809736D01*
X56151936Y-63739711D01*
X56004265Y-63547262D01*
X55832738Y-63375735D01*
X55640289Y-63228064D01*
X55634028Y-63224449D01*
X55430223Y-63106781D01*
X55430216Y-63106778D01*
X55430214Y-63106777D01*
X55430212Y-63106776D01*
X55280804Y-63044889D01*
X55206098Y-63013945D01*
X55041399Y-62969814D01*
X54971789Y-62951162D01*
X54971784Y-62951161D01*
X54971773Y-62951159D01*
X54731303Y-62919501D01*
X54731291Y-62919500D01*
X54731288Y-62919500D01*
X54488712Y-62919500D01*
X54488708Y-62919500D01*
X54488696Y-62919501D01*
X54248226Y-62951159D01*
X54248213Y-62951161D01*
X54248211Y-62951162D01*
X54248208Y-62951162D01*
X54248207Y-62951163D01*
X54013901Y-63013945D01*
X53789783Y-63106778D01*
X53789776Y-63106781D01*
X53579717Y-63228060D01*
X53579711Y-63228064D01*
X53387264Y-63375733D01*
X53215733Y-63547264D01*
X53068064Y-63739711D01*
X53068060Y-63739717D01*
X52946781Y-63949776D01*
X52946778Y-63949783D01*
X52853945Y-64173901D01*
X52791163Y-64408207D01*
X52791159Y-64408226D01*
X52759501Y-64648696D01*
X52759500Y-64648718D01*
X51315330Y-64648718D01*
X51326580Y-64434038D01*
X51328481Y-64415956D01*
X51379685Y-64092665D01*
X51383465Y-64074883D01*
X51468183Y-63758713D01*
X51473798Y-63741433D01*
X51591098Y-63435856D01*
X51598504Y-63419224D01*
X51747090Y-63127606D01*
X51756185Y-63111852D01*
X51934456Y-62837338D01*
X51945150Y-62822621D01*
X52151121Y-62568268D01*
X52163297Y-62554743D01*
X52394743Y-62323297D01*
X52408268Y-62311121D01*
X52455616Y-62272778D01*
X52662626Y-62105145D01*
X52677338Y-62094456D01*
X52951852Y-61916185D01*
X52967606Y-61907090D01*
X53259230Y-61758501D01*
X53275856Y-61751098D01*
X53581433Y-61633798D01*
X53598713Y-61628183D01*
X53914883Y-61543465D01*
X53932665Y-61539685D01*
X54255956Y-61488481D01*
X54274038Y-61486580D01*
X54605454Y-61469212D01*
X54614560Y-61468974D01*
X54687907Y-61468974D01*
X54688073Y-61468962D01*
X111639616Y-61460517D01*
X111684677Y-61466447D01*
G37*
%TD.AperFunction*%
%TD*%
M02*
