%TF.GenerationSoftware,KiCad,Pcbnew,10.0.6*%
%TF.CreationDate,2026-09-12T10:57:16+02:00*%
%TF.ProjectId,controller,636f6e74-726f-46c6-9c65-722e6b696361,rev?*%
%TF.SameCoordinates,Original*%
%TF.FileFunction,Soldermask,Bot*%
%TF.FilePolarity,Negative*%
%FSLAX46Y46*%
G04 Gerber Fmt 4.6, Leading zero omitted, Abs format (unit mm)*
G04 Created by KiCad (PCBNEW 10.0.6) date 2026-09-12 10:57:16*
%MOMM*%
%LPD*%
G01*
G04 APERTURE LIST*
G04 Aperture macros list*
%AMRoundRect*
0 Rectangle with rounded corners*
0 $1 Rounding radius*
0 $2 $3 $4 $5 $6 $7 $8 $9 X,Y pos of 4 corners*
0 Add a 4 corners polygon primitive as box body*
4,1,4,$2,$3,$4,$5,$6,$7,$8,$9,$2,$3,0*
0 Add four circle primitives for the rounded corners*
1,1,$1+$1,$2,$3*
1,1,$1+$1,$4,$5*
1,1,$1+$1,$6,$7*
1,1,$1+$1,$8,$9*
0 Add four rect primitives between the rounded corners*
20,1,$1+$1,$2,$3,$4,$5,0*
20,1,$1+$1,$4,$5,$6,$7,0*
20,1,$1+$1,$6,$7,$8,$9,0*
20,1,$1+$1,$8,$9,$2,$3,0*%
G04 Aperture macros list end*
%ADD10RoundRect,0.249999X0.850001X0.850001X-0.850001X0.850001X-0.850001X-0.850001X0.850001X-0.850001X0*%
%ADD11C,2.200000*%
%ADD12RoundRect,0.250001X1.149999X-1.149999X1.149999X1.149999X-1.149999X1.149999X-1.149999X-1.149999X0*%
%ADD13C,2.800000*%
%ADD14R,1.800000X1.800000*%
%ADD15C,1.800000*%
%ADD16RoundRect,0.250000X0.750000X-0.750000X0.750000X0.750000X-0.750000X0.750000X-0.750000X-0.750000X0*%
%ADD17C,2.000000*%
%ADD18C,3.200000*%
%ADD19R,1.905000X2.000000*%
%ADD20O,1.905000X2.000000*%
%ADD21RoundRect,0.250000X-0.550000X-0.550000X0.550000X-0.550000X0.550000X0.550000X-0.550000X0.550000X0*%
%ADD22C,1.600000*%
%ADD23RoundRect,0.250000X0.550000X-0.550000X0.550000X0.550000X-0.550000X0.550000X-0.550000X-0.550000X0*%
%ADD24RoundRect,0.250001X-1.149999X1.149999X-1.149999X-1.149999X1.149999X-1.149999X1.149999X1.149999X0*%
%ADD25RoundRect,0.250000X-1.350000X-1.350000X1.350000X-1.350000X1.350000X1.350000X-1.350000X1.350000X0*%
%ADD26C,1.440000*%
%ADD27RoundRect,0.250000X1.350000X1.350000X-1.350000X1.350000X-1.350000X-1.350000X1.350000X-1.350000X0*%
G04 APERTURE END LIST*
D10*
%TO.C,D9*%
X72517000Y-112141000D03*
D11*
X69977000Y-112141000D03*
%TD*%
D12*
%TO.C,J5*%
X55880000Y-77390000D03*
D13*
X55880000Y-72390000D03*
%TD*%
D10*
%TO.C,D8*%
X66294000Y-107061000D03*
D11*
X63754000Y-107061000D03*
%TD*%
D12*
%TO.C,J1*%
X55880000Y-99695000D03*
D13*
X55880000Y-94695000D03*
%TD*%
D14*
%TO.C,D17*%
X53975000Y-88900000D03*
D15*
X56515000Y-88900000D03*
%TD*%
D16*
%TO.C,C12*%
X66802000Y-71963677D03*
D17*
X66802000Y-66963677D03*
%TD*%
D12*
%TO.C,J3*%
X55880000Y-123872000D03*
D13*
X55880000Y-118872000D03*
%TD*%
D18*
%TO.C,H4*%
X111760000Y-133350000D03*
%TD*%
D19*
%TO.C,U10*%
X99060000Y-65024000D03*
D20*
X101600000Y-65024000D03*
X104140000Y-65024000D03*
%TD*%
D21*
%TO.C,D13*%
X99009815Y-106807000D03*
D22*
X101549815Y-106807000D03*
%TD*%
D14*
%TO.C,D16*%
X53975000Y-83820000D03*
D15*
X56515000Y-83820000D03*
%TD*%
D23*
%TO.C,D5*%
X87122000Y-116249685D03*
D22*
X87122000Y-113709685D03*
%TD*%
D18*
%TO.C,H2*%
X111760000Y-64770000D03*
%TD*%
D24*
%TO.C,J4*%
X110490000Y-106807000D03*
D13*
X110490000Y-111807000D03*
%TD*%
D23*
%TO.C,D6*%
X90932000Y-116233685D03*
D22*
X90932000Y-113693685D03*
%TD*%
D16*
%TO.C,C13*%
X78232000Y-76093677D03*
D17*
X78232000Y-71093677D03*
%TD*%
D12*
%TO.C,J2*%
X55880000Y-111760000D03*
D13*
X55880000Y-106760000D03*
%TD*%
D25*
%TO.C,D18*%
X62865000Y-100965000D03*
D18*
X75565000Y-100965000D03*
%TD*%
D17*
%TO.C,TP3*%
X101219000Y-113919000D03*
%TD*%
D16*
%TO.C,C15*%
X101600000Y-76347677D03*
D17*
X101600000Y-71347677D03*
%TD*%
D23*
%TO.C,D12*%
X79502000Y-108994685D03*
D22*
X79502000Y-106454685D03*
%TD*%
D10*
%TO.C,D4*%
X75782818Y-88900000D03*
D11*
X73242818Y-88900000D03*
%TD*%
D18*
%TO.C,H3*%
X54610000Y-133350000D03*
%TD*%
D26*
%TO.C,RV1*%
X60706000Y-133096000D03*
X63246000Y-133096000D03*
X65786000Y-133096000D03*
%TD*%
D16*
%TO.C,C14*%
X89916000Y-76186000D03*
D17*
X89916000Y-71186000D03*
%TD*%
D10*
%TO.C,D7*%
X72517001Y-107061000D03*
D11*
X69977001Y-107061000D03*
%TD*%
D19*
%TO.C,U3*%
X87376000Y-65024000D03*
D20*
X89916000Y-65024000D03*
X92456000Y-65024000D03*
%TD*%
D21*
%TO.C,D15*%
X99028315Y-126821750D03*
D22*
X101568315Y-126821750D03*
%TD*%
D18*
%TO.C,H1*%
X54610000Y-64770000D03*
%TD*%
D10*
%TO.C,D10*%
X66294000Y-112141000D03*
D11*
X63754000Y-112141000D03*
%TD*%
D27*
%TO.C,D19*%
X75565000Y-93980000D03*
D18*
X62865000Y-93980000D03*
%TD*%
D17*
%TO.C,TP1*%
X101219000Y-94361000D03*
%TD*%
D14*
%TO.C,D11*%
X112014000Y-118110000D03*
D15*
X112014000Y-120650000D03*
%TD*%
D10*
%TO.C,D1*%
X65622818Y-88900000D03*
D11*
X63082818Y-88900000D03*
%TD*%
D19*
%TO.C,U8*%
X75692000Y-65024000D03*
D20*
X78232000Y-65024000D03*
X80772000Y-65024000D03*
%TD*%
M02*
