%TF.GenerationSoftware,KiCad,Pcbnew,10.0.6*%
%TF.CreationDate,2026-09-12T10:57:15+02:00*%
%TF.ProjectId,controller,636f6e74-726f-46c6-9c65-722e6b696361,rev?*%
%TF.SameCoordinates,Original*%
%TF.FileFunction,Legend,Bot*%
%TF.FilePolarity,Positive*%
%FSLAX46Y46*%
G04 Gerber Fmt 4.6, Leading zero omitted, Abs format (unit mm)*
G04 Created by KiCad (PCBNEW 10.0.6) date 2026-09-12 10:57:15*
%MOMM*%
%LPD*%
G01*
G04 APERTURE LIST*
%ADD10C,0.150000*%
%ADD11C,0.160000*%
G04 APERTURE END LIST*
D10*
X53504180Y-124150142D02*
X53504180Y-123959666D01*
X53504180Y-123959666D02*
X53456561Y-123864428D01*
X53456561Y-123864428D02*
X53361323Y-123769190D01*
X53361323Y-123769190D02*
X53170847Y-123721571D01*
X53170847Y-123721571D02*
X52837514Y-123721571D01*
X52837514Y-123721571D02*
X52647038Y-123769190D01*
X52647038Y-123769190D02*
X52551800Y-123864428D01*
X52551800Y-123864428D02*
X52504180Y-123959666D01*
X52504180Y-123959666D02*
X52504180Y-124150142D01*
X52504180Y-124150142D02*
X52551800Y-124245380D01*
X52551800Y-124245380D02*
X52647038Y-124340618D01*
X52647038Y-124340618D02*
X52837514Y-124388237D01*
X52837514Y-124388237D02*
X53170847Y-124388237D01*
X53170847Y-124388237D02*
X53361323Y-124340618D01*
X53361323Y-124340618D02*
X53456561Y-124245380D01*
X53456561Y-124245380D02*
X53504180Y-124150142D01*
X52599419Y-122721571D02*
X52551800Y-122769190D01*
X52551800Y-122769190D02*
X52504180Y-122912047D01*
X52504180Y-122912047D02*
X52504180Y-123007285D01*
X52504180Y-123007285D02*
X52551800Y-123150142D01*
X52551800Y-123150142D02*
X52647038Y-123245380D01*
X52647038Y-123245380D02*
X52742276Y-123292999D01*
X52742276Y-123292999D02*
X52932752Y-123340618D01*
X52932752Y-123340618D02*
X53075609Y-123340618D01*
X53075609Y-123340618D02*
X53266085Y-123292999D01*
X53266085Y-123292999D02*
X53361323Y-123245380D01*
X53361323Y-123245380D02*
X53456561Y-123150142D01*
X53456561Y-123150142D02*
X53504180Y-123007285D01*
X53504180Y-123007285D02*
X53504180Y-122912047D01*
X53504180Y-122912047D02*
X53456561Y-122769190D01*
X53456561Y-122769190D02*
X53408942Y-122721571D01*
X52504180Y-122292999D02*
X53504180Y-122292999D01*
X53504180Y-122292999D02*
X53504180Y-122054904D01*
X53504180Y-122054904D02*
X53456561Y-121912047D01*
X53456561Y-121912047D02*
X53361323Y-121816809D01*
X53361323Y-121816809D02*
X53266085Y-121769190D01*
X53266085Y-121769190D02*
X53075609Y-121721571D01*
X53075609Y-121721571D02*
X52932752Y-121721571D01*
X52932752Y-121721571D02*
X52742276Y-121769190D01*
X52742276Y-121769190D02*
X52647038Y-121816809D01*
X52647038Y-121816809D02*
X52551800Y-121912047D01*
X52551800Y-121912047D02*
X52504180Y-122054904D01*
X52504180Y-122054904D02*
X52504180Y-122292999D01*
X52599419Y-119959666D02*
X52551800Y-120007285D01*
X52551800Y-120007285D02*
X52504180Y-120150142D01*
X52504180Y-120150142D02*
X52504180Y-120245380D01*
X52504180Y-120245380D02*
X52551800Y-120388237D01*
X52551800Y-120388237D02*
X52647038Y-120483475D01*
X52647038Y-120483475D02*
X52742276Y-120531094D01*
X52742276Y-120531094D02*
X52932752Y-120578713D01*
X52932752Y-120578713D02*
X53075609Y-120578713D01*
X53075609Y-120578713D02*
X53266085Y-120531094D01*
X53266085Y-120531094D02*
X53361323Y-120483475D01*
X53361323Y-120483475D02*
X53456561Y-120388237D01*
X53456561Y-120388237D02*
X53504180Y-120245380D01*
X53504180Y-120245380D02*
X53504180Y-120150142D01*
X53504180Y-120150142D02*
X53456561Y-120007285D01*
X53456561Y-120007285D02*
X53408942Y-119959666D01*
X53504180Y-119673951D02*
X53504180Y-119102523D01*
X52504180Y-119388237D02*
X53504180Y-119388237D01*
X53154990Y-101988381D02*
X53154990Y-102321714D01*
X52631180Y-102321714D02*
X53631180Y-102321714D01*
X53631180Y-102321714D02*
X53631180Y-101845524D01*
X53154990Y-101464571D02*
X53154990Y-101131238D01*
X52631180Y-100988381D02*
X52631180Y-101464571D01*
X52631180Y-101464571D02*
X53631180Y-101464571D01*
X53631180Y-101464571D02*
X53631180Y-100988381D01*
X53154990Y-100559809D02*
X53154990Y-100226476D01*
X52631180Y-100083619D02*
X52631180Y-100559809D01*
X52631180Y-100559809D02*
X53631180Y-100559809D01*
X53631180Y-100559809D02*
X53631180Y-100083619D01*
X52631180Y-99655047D02*
X53631180Y-99655047D01*
X53631180Y-99655047D02*
X53631180Y-99416952D01*
X53631180Y-99416952D02*
X53583561Y-99274095D01*
X53583561Y-99274095D02*
X53488323Y-99178857D01*
X53488323Y-99178857D02*
X53393085Y-99131238D01*
X53393085Y-99131238D02*
X53202609Y-99083619D01*
X53202609Y-99083619D02*
X53059752Y-99083619D01*
X53059752Y-99083619D02*
X52869276Y-99131238D01*
X52869276Y-99131238D02*
X52774038Y-99178857D01*
X52774038Y-99178857D02*
X52678800Y-99274095D01*
X52678800Y-99274095D02*
X52631180Y-99416952D01*
X52631180Y-99416952D02*
X52631180Y-99655047D01*
X53154990Y-98321714D02*
X53107371Y-98178857D01*
X53107371Y-98178857D02*
X53059752Y-98131238D01*
X53059752Y-98131238D02*
X52964514Y-98083619D01*
X52964514Y-98083619D02*
X52821657Y-98083619D01*
X52821657Y-98083619D02*
X52726419Y-98131238D01*
X52726419Y-98131238D02*
X52678800Y-98178857D01*
X52678800Y-98178857D02*
X52631180Y-98274095D01*
X52631180Y-98274095D02*
X52631180Y-98655047D01*
X52631180Y-98655047D02*
X53631180Y-98655047D01*
X53631180Y-98655047D02*
X53631180Y-98321714D01*
X53631180Y-98321714D02*
X53583561Y-98226476D01*
X53583561Y-98226476D02*
X53535942Y-98178857D01*
X53535942Y-98178857D02*
X53440704Y-98131238D01*
X53440704Y-98131238D02*
X53345466Y-98131238D01*
X53345466Y-98131238D02*
X53250228Y-98178857D01*
X53250228Y-98178857D02*
X53202609Y-98226476D01*
X53202609Y-98226476D02*
X53154990Y-98321714D01*
X53154990Y-98321714D02*
X53154990Y-98655047D01*
X52916895Y-97702666D02*
X52916895Y-97226476D01*
X52631180Y-97797904D02*
X53631180Y-97464571D01*
X53631180Y-97464571D02*
X52631180Y-97131238D01*
X52726419Y-96226476D02*
X52678800Y-96274095D01*
X52678800Y-96274095D02*
X52631180Y-96416952D01*
X52631180Y-96416952D02*
X52631180Y-96512190D01*
X52631180Y-96512190D02*
X52678800Y-96655047D01*
X52678800Y-96655047D02*
X52774038Y-96750285D01*
X52774038Y-96750285D02*
X52869276Y-96797904D01*
X52869276Y-96797904D02*
X53059752Y-96845523D01*
X53059752Y-96845523D02*
X53202609Y-96845523D01*
X53202609Y-96845523D02*
X53393085Y-96797904D01*
X53393085Y-96797904D02*
X53488323Y-96750285D01*
X53488323Y-96750285D02*
X53583561Y-96655047D01*
X53583561Y-96655047D02*
X53631180Y-96512190D01*
X53631180Y-96512190D02*
X53631180Y-96416952D01*
X53631180Y-96416952D02*
X53583561Y-96274095D01*
X53583561Y-96274095D02*
X53535942Y-96226476D01*
X52631180Y-95797904D02*
X53631180Y-95797904D01*
X52631180Y-95226476D02*
X53202609Y-95655047D01*
X53631180Y-95226476D02*
X53059752Y-95797904D01*
X52726419Y-93464571D02*
X52678800Y-93512190D01*
X52678800Y-93512190D02*
X52631180Y-93655047D01*
X52631180Y-93655047D02*
X52631180Y-93750285D01*
X52631180Y-93750285D02*
X52678800Y-93893142D01*
X52678800Y-93893142D02*
X52774038Y-93988380D01*
X52774038Y-93988380D02*
X52869276Y-94035999D01*
X52869276Y-94035999D02*
X53059752Y-94083618D01*
X53059752Y-94083618D02*
X53202609Y-94083618D01*
X53202609Y-94083618D02*
X53393085Y-94035999D01*
X53393085Y-94035999D02*
X53488323Y-93988380D01*
X53488323Y-93988380D02*
X53583561Y-93893142D01*
X53583561Y-93893142D02*
X53631180Y-93750285D01*
X53631180Y-93750285D02*
X53631180Y-93655047D01*
X53631180Y-93655047D02*
X53583561Y-93512190D01*
X53583561Y-93512190D02*
X53535942Y-93464571D01*
X53631180Y-93178856D02*
X53631180Y-92607428D01*
X52631180Y-92893142D02*
X53631180Y-92893142D01*
X52631180Y-114315285D02*
X53631180Y-114315285D01*
X52631180Y-113839095D02*
X53631180Y-113839095D01*
X53631180Y-113839095D02*
X52631180Y-113267667D01*
X52631180Y-113267667D02*
X53631180Y-113267667D01*
X53631180Y-112934333D02*
X53631180Y-112362905D01*
X52631180Y-112648619D02*
X53631180Y-112648619D01*
X53154990Y-112029571D02*
X53154990Y-111696238D01*
X52631180Y-111553381D02*
X52631180Y-112029571D01*
X52631180Y-112029571D02*
X53631180Y-112029571D01*
X53631180Y-112029571D02*
X53631180Y-111553381D01*
X52631180Y-110553381D02*
X53107371Y-110886714D01*
X52631180Y-111124809D02*
X53631180Y-111124809D01*
X53631180Y-111124809D02*
X53631180Y-110743857D01*
X53631180Y-110743857D02*
X53583561Y-110648619D01*
X53583561Y-110648619D02*
X53535942Y-110601000D01*
X53535942Y-110601000D02*
X53440704Y-110553381D01*
X53440704Y-110553381D02*
X53297847Y-110553381D01*
X53297847Y-110553381D02*
X53202609Y-110601000D01*
X53202609Y-110601000D02*
X53154990Y-110648619D01*
X53154990Y-110648619D02*
X53107371Y-110743857D01*
X53107371Y-110743857D02*
X53107371Y-111124809D01*
X52631180Y-109553381D02*
X53107371Y-109886714D01*
X52631180Y-110124809D02*
X53631180Y-110124809D01*
X53631180Y-110124809D02*
X53631180Y-109743857D01*
X53631180Y-109743857D02*
X53583561Y-109648619D01*
X53583561Y-109648619D02*
X53535942Y-109601000D01*
X53535942Y-109601000D02*
X53440704Y-109553381D01*
X53440704Y-109553381D02*
X53297847Y-109553381D01*
X53297847Y-109553381D02*
X53202609Y-109601000D01*
X53202609Y-109601000D02*
X53154990Y-109648619D01*
X53154990Y-109648619D02*
X53107371Y-109743857D01*
X53107371Y-109743857D02*
X53107371Y-110124809D01*
X53631180Y-109124809D02*
X52821657Y-109124809D01*
X52821657Y-109124809D02*
X52726419Y-109077190D01*
X52726419Y-109077190D02*
X52678800Y-109029571D01*
X52678800Y-109029571D02*
X52631180Y-108934333D01*
X52631180Y-108934333D02*
X52631180Y-108743857D01*
X52631180Y-108743857D02*
X52678800Y-108648619D01*
X52678800Y-108648619D02*
X52726419Y-108601000D01*
X52726419Y-108601000D02*
X52821657Y-108553381D01*
X52821657Y-108553381D02*
X53631180Y-108553381D01*
X52631180Y-108077190D02*
X53631180Y-108077190D01*
X53631180Y-108077190D02*
X53631180Y-107696238D01*
X53631180Y-107696238D02*
X53583561Y-107601000D01*
X53583561Y-107601000D02*
X53535942Y-107553381D01*
X53535942Y-107553381D02*
X53440704Y-107505762D01*
X53440704Y-107505762D02*
X53297847Y-107505762D01*
X53297847Y-107505762D02*
X53202609Y-107553381D01*
X53202609Y-107553381D02*
X53154990Y-107601000D01*
X53154990Y-107601000D02*
X53107371Y-107696238D01*
X53107371Y-107696238D02*
X53107371Y-108077190D01*
X53631180Y-107220047D02*
X53631180Y-106648619D01*
X52631180Y-106934333D02*
X53631180Y-106934333D01*
X53154990Y-106315285D02*
X53154990Y-105981952D01*
X52631180Y-105839095D02*
X52631180Y-106315285D01*
X52631180Y-106315285D02*
X53631180Y-106315285D01*
X53631180Y-106315285D02*
X53631180Y-105839095D01*
X52631180Y-104839095D02*
X53107371Y-105172428D01*
X52631180Y-105410523D02*
X53631180Y-105410523D01*
X53631180Y-105410523D02*
X53631180Y-105029571D01*
X53631180Y-105029571D02*
X53583561Y-104934333D01*
X53583561Y-104934333D02*
X53535942Y-104886714D01*
X53535942Y-104886714D02*
X53440704Y-104839095D01*
X53440704Y-104839095D02*
X53297847Y-104839095D01*
X53297847Y-104839095D02*
X53202609Y-104886714D01*
X53202609Y-104886714D02*
X53154990Y-104934333D01*
X53154990Y-104934333D02*
X53107371Y-105029571D01*
X53107371Y-105029571D02*
X53107371Y-105410523D01*
X113781561Y-113132666D02*
X113829180Y-113227904D01*
X113829180Y-113227904D02*
X113829180Y-113370761D01*
X113829180Y-113370761D02*
X113781561Y-113513618D01*
X113781561Y-113513618D02*
X113686323Y-113608856D01*
X113686323Y-113608856D02*
X113591085Y-113656475D01*
X113591085Y-113656475D02*
X113400609Y-113704094D01*
X113400609Y-113704094D02*
X113257752Y-113704094D01*
X113257752Y-113704094D02*
X113067276Y-113656475D01*
X113067276Y-113656475D02*
X112972038Y-113608856D01*
X112972038Y-113608856D02*
X112876800Y-113513618D01*
X112876800Y-113513618D02*
X112829180Y-113370761D01*
X112829180Y-113370761D02*
X112829180Y-113275523D01*
X112829180Y-113275523D02*
X112876800Y-113132666D01*
X112876800Y-113132666D02*
X112924419Y-113085047D01*
X112924419Y-113085047D02*
X113257752Y-113085047D01*
X113257752Y-113085047D02*
X113257752Y-113275523D01*
X112829180Y-112656475D02*
X113829180Y-112656475D01*
X113829180Y-112656475D02*
X113829180Y-112418380D01*
X113829180Y-112418380D02*
X113781561Y-112275523D01*
X113781561Y-112275523D02*
X113686323Y-112180285D01*
X113686323Y-112180285D02*
X113591085Y-112132666D01*
X113591085Y-112132666D02*
X113400609Y-112085047D01*
X113400609Y-112085047D02*
X113257752Y-112085047D01*
X113257752Y-112085047D02*
X113067276Y-112132666D01*
X113067276Y-112132666D02*
X112972038Y-112180285D01*
X112972038Y-112180285D02*
X112876800Y-112275523D01*
X112876800Y-112275523D02*
X112829180Y-112418380D01*
X112829180Y-112418380D02*
X112829180Y-112656475D01*
X113829180Y-111799332D02*
X113829180Y-111227904D01*
X112829180Y-111513618D02*
X113829180Y-111513618D01*
X112829180Y-110132665D02*
X113829180Y-110132665D01*
X113829180Y-110132665D02*
X113829180Y-109751713D01*
X113829180Y-109751713D02*
X113781561Y-109656475D01*
X113781561Y-109656475D02*
X113733942Y-109608856D01*
X113733942Y-109608856D02*
X113638704Y-109561237D01*
X113638704Y-109561237D02*
X113495847Y-109561237D01*
X113495847Y-109561237D02*
X113400609Y-109608856D01*
X113400609Y-109608856D02*
X113352990Y-109656475D01*
X113352990Y-109656475D02*
X113305371Y-109751713D01*
X113305371Y-109751713D02*
X113305371Y-110132665D01*
X112829180Y-108561237D02*
X113305371Y-108894570D01*
X112829180Y-109132665D02*
X113829180Y-109132665D01*
X113829180Y-109132665D02*
X113829180Y-108751713D01*
X113829180Y-108751713D02*
X113781561Y-108656475D01*
X113781561Y-108656475D02*
X113733942Y-108608856D01*
X113733942Y-108608856D02*
X113638704Y-108561237D01*
X113638704Y-108561237D02*
X113495847Y-108561237D01*
X113495847Y-108561237D02*
X113400609Y-108608856D01*
X113400609Y-108608856D02*
X113352990Y-108656475D01*
X113352990Y-108656475D02*
X113305371Y-108751713D01*
X113305371Y-108751713D02*
X113305371Y-109132665D01*
X112829180Y-108132665D02*
X113829180Y-108132665D01*
X112829180Y-107656475D02*
X113829180Y-107656475D01*
X113829180Y-107656475D02*
X113114895Y-107323142D01*
X113114895Y-107323142D02*
X113829180Y-106989809D01*
X113829180Y-106989809D02*
X112829180Y-106989809D01*
X113114895Y-106561237D02*
X113114895Y-106085047D01*
X112829180Y-106656475D02*
X113829180Y-106323142D01*
X113829180Y-106323142D02*
X112829180Y-105989809D01*
X112829180Y-105085047D02*
X113305371Y-105418380D01*
X112829180Y-105656475D02*
X113829180Y-105656475D01*
X113829180Y-105656475D02*
X113829180Y-105275523D01*
X113829180Y-105275523D02*
X113781561Y-105180285D01*
X113781561Y-105180285D02*
X113733942Y-105132666D01*
X113733942Y-105132666D02*
X113638704Y-105085047D01*
X113638704Y-105085047D02*
X113495847Y-105085047D01*
X113495847Y-105085047D02*
X113400609Y-105132666D01*
X113400609Y-105132666D02*
X113352990Y-105180285D01*
X113352990Y-105180285D02*
X113305371Y-105275523D01*
X113305371Y-105275523D02*
X113305371Y-105656475D01*
X113305371Y-104465999D02*
X112829180Y-104465999D01*
X113829180Y-104799332D02*
X113305371Y-104465999D01*
X113305371Y-104465999D02*
X113829180Y-104132666D01*
D11*
X52631700Y-78509380D02*
X53631700Y-78509380D01*
X53631700Y-78509380D02*
X53631700Y-78128428D01*
X53631700Y-78128428D02*
X53584081Y-78033190D01*
X53584081Y-78033190D02*
X53536462Y-77985571D01*
X53536462Y-77985571D02*
X53441224Y-77937952D01*
X53441224Y-77937952D02*
X53298367Y-77937952D01*
X53298367Y-77937952D02*
X53203129Y-77985571D01*
X53203129Y-77985571D02*
X53155510Y-78033190D01*
X53155510Y-78033190D02*
X53107891Y-78128428D01*
X53107891Y-78128428D02*
X53107891Y-78509380D01*
X53631700Y-77318904D02*
X53631700Y-77128428D01*
X53631700Y-77128428D02*
X53584081Y-77033190D01*
X53584081Y-77033190D02*
X53488843Y-76937952D01*
X53488843Y-76937952D02*
X53298367Y-76890333D01*
X53298367Y-76890333D02*
X52965034Y-76890333D01*
X52965034Y-76890333D02*
X52774558Y-76937952D01*
X52774558Y-76937952D02*
X52679320Y-77033190D01*
X52679320Y-77033190D02*
X52631700Y-77128428D01*
X52631700Y-77128428D02*
X52631700Y-77318904D01*
X52631700Y-77318904D02*
X52679320Y-77414142D01*
X52679320Y-77414142D02*
X52774558Y-77509380D01*
X52774558Y-77509380D02*
X52965034Y-77556999D01*
X52965034Y-77556999D02*
X53298367Y-77556999D01*
X53298367Y-77556999D02*
X53488843Y-77509380D01*
X53488843Y-77509380D02*
X53584081Y-77414142D01*
X53584081Y-77414142D02*
X53631700Y-77318904D01*
X53631700Y-76556999D02*
X52631700Y-76318904D01*
X52631700Y-76318904D02*
X53345986Y-76128428D01*
X53345986Y-76128428D02*
X52631700Y-75937952D01*
X52631700Y-75937952D02*
X53631700Y-75699857D01*
X53155510Y-75318904D02*
X53155510Y-74985571D01*
X52631700Y-74842714D02*
X52631700Y-75318904D01*
X52631700Y-75318904D02*
X53631700Y-75318904D01*
X53631700Y-75318904D02*
X53631700Y-74842714D01*
X52631700Y-73842714D02*
X53107891Y-74176047D01*
X52631700Y-74414142D02*
X53631700Y-74414142D01*
X53631700Y-74414142D02*
X53631700Y-74033190D01*
X53631700Y-74033190D02*
X53584081Y-73937952D01*
X53584081Y-73937952D02*
X53536462Y-73890333D01*
X53536462Y-73890333D02*
X53441224Y-73842714D01*
X53441224Y-73842714D02*
X53298367Y-73842714D01*
X53298367Y-73842714D02*
X53203129Y-73890333D01*
X53203129Y-73890333D02*
X53155510Y-73937952D01*
X53155510Y-73937952D02*
X53107891Y-74033190D01*
X53107891Y-74033190D02*
X53107891Y-74414142D01*
X52631700Y-72652237D02*
X53631700Y-72652237D01*
X52631700Y-72176047D02*
X53631700Y-72176047D01*
X53631700Y-72176047D02*
X52631700Y-71604619D01*
X52631700Y-71604619D02*
X53631700Y-71604619D01*
M02*
