%TF.GenerationSoftware,KiCad,Pcbnew,10.0.6*%
%TF.CreationDate,2026-09-12T10:57:15+02:00*%
%TF.ProjectId,controller,636f6e74-726f-46c6-9c65-722e6b696361,rev?*%
%TF.SameCoordinates,Original*%
%TF.FileFunction,Paste,Top*%
%TF.FilePolarity,Positive*%
%FSLAX46Y46*%
G04 Gerber Fmt 4.6, Leading zero omitted, Abs format (unit mm)*
G04 Created by KiCad (PCBNEW 10.0.6) date 2026-09-12 10:57:15*
%MOMM*%
%LPD*%
G01*
G04 APERTURE LIST*
G04 Aperture macros list*
%AMRoundRect*
0 Rectangle with rounded corners*
0 $1 Rounding radius*
0 $2 $3 $4 $5 $6 $7 $8 $9 X,Y pos of 4 corners*
0 Add a 4 corners polygon primitive as box body*
4,1,4,$2,$3,$4,$5,$6,$7,$8,$9,$2,$3,0*
0 Add four circle primitives for the rounded corners*
1,1,$1+$1,$2,$3*
1,1,$1+$1,$4,$5*
1,1,$1+$1,$6,$7*
1,1,$1+$1,$8,$9*
0 Add four rect primitives between the rounded corners*
20,1,$1+$1,$2,$3,$4,$5,0*
20,1,$1+$1,$4,$5,$6,$7,0*
20,1,$1+$1,$6,$7,$8,$9,0*
20,1,$1+$1,$8,$9,$2,$3,0*%
G04 Aperture macros list end*
%ADD10RoundRect,0.250000X0.475000X-0.337500X0.475000X0.337500X-0.475000X0.337500X-0.475000X-0.337500X0*%
%ADD11RoundRect,0.250000X0.350000X0.450000X-0.350000X0.450000X-0.350000X-0.450000X0.350000X-0.450000X0*%
%ADD12RoundRect,0.150000X-0.825000X-0.150000X0.825000X-0.150000X0.825000X0.150000X-0.825000X0.150000X0*%
%ADD13RoundRect,0.250000X-0.400000X-0.625000X0.400000X-0.625000X0.400000X0.625000X-0.400000X0.625000X0*%
%ADD14RoundRect,0.250000X0.450000X-0.350000X0.450000X0.350000X-0.450000X0.350000X-0.450000X-0.350000X0*%
%ADD15RoundRect,0.250000X-0.350000X-0.450000X0.350000X-0.450000X0.350000X0.450000X-0.350000X0.450000X0*%
%ADD16RoundRect,0.250000X-0.337500X-0.475000X0.337500X-0.475000X0.337500X0.475000X-0.337500X0.475000X0*%
%ADD17RoundRect,0.250000X-0.650000X0.412500X-0.650000X-0.412500X0.650000X-0.412500X0.650000X0.412500X0*%
%ADD18RoundRect,0.250000X-0.412500X-0.650000X0.412500X-0.650000X0.412500X0.650000X-0.412500X0.650000X0*%
%ADD19RoundRect,0.250000X-0.475000X0.337500X-0.475000X-0.337500X0.475000X-0.337500X0.475000X0.337500X0*%
%ADD20RoundRect,0.250000X0.400000X0.625000X-0.400000X0.625000X-0.400000X-0.625000X0.400000X-0.625000X0*%
%ADD21RoundRect,0.150000X-0.150000X0.825000X-0.150000X-0.825000X0.150000X-0.825000X0.150000X0.825000X0*%
%ADD22RoundRect,0.150000X-0.850000X-0.350000X0.850000X-0.350000X0.850000X0.350000X-0.850000X0.350000X0*%
%ADD23RoundRect,0.250000X0.412500X0.650000X-0.412500X0.650000X-0.412500X-0.650000X0.412500X-0.650000X0*%
G04 APERTURE END LIST*
D10*
%TO.C,C6*%
X80010000Y-101621500D03*
X80010000Y-99546500D03*
%TD*%
D11*
%TO.C,R12*%
X97647000Y-82677000D03*
X95647000Y-82677000D03*
%TD*%
D10*
%TO.C,C20*%
X74041000Y-126029499D03*
X74041000Y-123954499D03*
%TD*%
D12*
%TO.C,U1*%
X84517000Y-102870000D03*
X84517000Y-104140000D03*
X84517000Y-105410000D03*
X84517000Y-106680000D03*
X84517000Y-107950000D03*
X84517000Y-109220000D03*
X84517000Y-110490000D03*
X89467000Y-110490000D03*
X89467000Y-109220000D03*
X89467000Y-107950000D03*
X89467000Y-106680000D03*
X89467000Y-105410000D03*
X89467000Y-104140000D03*
X89467000Y-102870000D03*
%TD*%
D13*
%TO.C,R10*%
X110529000Y-100584000D03*
X113629000Y-100584000D03*
%TD*%
D10*
%TO.C,C5*%
X64973200Y-124430700D03*
X64973200Y-122355700D03*
%TD*%
D14*
%TO.C,R4*%
X112014000Y-126222000D03*
X112014000Y-124222000D03*
%TD*%
D15*
%TO.C,R5*%
X79010000Y-103886000D03*
X81010000Y-103886000D03*
%TD*%
D16*
%TO.C,C8*%
X101684000Y-103251000D03*
X103759000Y-103251000D03*
%TD*%
D12*
%TO.C,Q2*%
X101157000Y-117094000D03*
X101157000Y-118364000D03*
X101157000Y-119634000D03*
X101157000Y-120904000D03*
X106107000Y-120904000D03*
X106107000Y-119634000D03*
X106107000Y-118364000D03*
X106107000Y-117094000D03*
%TD*%
D16*
%TO.C,C1*%
X76051500Y-113792000D03*
X78126500Y-113792000D03*
%TD*%
D17*
%TO.C,C11*%
X107315000Y-86321500D03*
X107315000Y-89446500D03*
%TD*%
D18*
%TO.C,C16*%
X86445500Y-100330000D03*
X89570500Y-100330000D03*
%TD*%
D15*
%TO.C,R6*%
X97657500Y-103251000D03*
X99657500Y-103251000D03*
%TD*%
D12*
%TO.C,Q1*%
X101197500Y-97155000D03*
X101197500Y-98425000D03*
X101197500Y-99695000D03*
X101197500Y-100965000D03*
X106147500Y-100965000D03*
X106147500Y-99695000D03*
X106147500Y-98425000D03*
X106147500Y-97155000D03*
%TD*%
D19*
%TO.C,C19*%
X76835000Y-131169500D03*
X76835000Y-133244500D03*
%TD*%
D20*
%TO.C,R2*%
X72325183Y-115824000D03*
X69225183Y-115824000D03*
%TD*%
D12*
%TO.C,U7*%
X84393000Y-124206000D03*
X84393000Y-125476000D03*
X84393000Y-126746000D03*
X84393000Y-128016000D03*
X84393000Y-129286000D03*
X84393000Y-130556000D03*
X84393000Y-131826000D03*
X89343000Y-131826000D03*
X89343000Y-130556000D03*
X89343000Y-129286000D03*
X89343000Y-128016000D03*
X89343000Y-126746000D03*
X89343000Y-125476000D03*
X89343000Y-124206000D03*
%TD*%
D15*
%TO.C,R8*%
X59325000Y-85217000D03*
X61325000Y-85217000D03*
%TD*%
D17*
%TO.C,C4*%
X97914000Y-116877250D03*
X97914000Y-120002250D03*
%TD*%
D15*
%TO.C,R7*%
X97679000Y-123063000D03*
X99679000Y-123063000D03*
%TD*%
D14*
%TO.C,R9*%
X62103000Y-128254000D03*
X62103000Y-126254000D03*
%TD*%
D15*
%TO.C,R1*%
X80788000Y-113792000D03*
X82788000Y-113792000D03*
%TD*%
D16*
%TO.C,C9*%
X101705500Y-123063000D03*
X103780500Y-123063000D03*
%TD*%
D21*
%TO.C,U5*%
X71374000Y-122493000D03*
X70104000Y-122493000D03*
X68834000Y-122493000D03*
X67564000Y-122493000D03*
X67564000Y-127443000D03*
X68834000Y-127443000D03*
X70104000Y-127443000D03*
X71374000Y-127443000D03*
%TD*%
D18*
%TO.C,C18*%
X86321500Y-121412000D03*
X89446500Y-121412000D03*
%TD*%
D17*
%TO.C,C10*%
X110236000Y-86321500D03*
X110236000Y-89446500D03*
%TD*%
%TO.C,C3*%
X97827500Y-96989500D03*
X97827500Y-100114500D03*
%TD*%
D14*
%TO.C,R3*%
X76835000Y-128000000D03*
X76835000Y-126000000D03*
%TD*%
D22*
%TO.C,D14*%
X63956000Y-76994000D03*
X63956000Y-80994000D03*
X70156000Y-80994000D03*
X70156000Y-76994000D03*
%TD*%
D23*
%TO.C,C21*%
X113641500Y-97790000D03*
X110516500Y-97790000D03*
%TD*%
D12*
%TO.C,U6*%
X84393000Y-85852000D03*
X84393000Y-87122000D03*
X84393000Y-88392000D03*
X84393000Y-89662000D03*
X84393000Y-90932000D03*
X84393000Y-92202000D03*
X84393000Y-93472000D03*
X89343000Y-93472000D03*
X89343000Y-92202000D03*
X89343000Y-90932000D03*
X89343000Y-89662000D03*
X89343000Y-88392000D03*
X89343000Y-87122000D03*
X89343000Y-85852000D03*
%TD*%
D14*
%TO.C,R13*%
X59690000Y-89900000D03*
X59690000Y-87900000D03*
%TD*%
D12*
%TO.C,U2*%
X99060000Y-87630000D03*
X99060000Y-88900000D03*
X99060000Y-90170000D03*
X99060000Y-91440000D03*
X104010000Y-91440000D03*
X104010000Y-90170000D03*
X104010000Y-88900000D03*
X104010000Y-87630000D03*
%TD*%
D23*
%TO.C,C7*%
X113641500Y-94996000D03*
X110516500Y-94996000D03*
%TD*%
D18*
%TO.C,C17*%
X86067500Y-83312000D03*
X89192500Y-83312000D03*
%TD*%
D16*
%TO.C,C2*%
X70245683Y-118745000D03*
X72320683Y-118745000D03*
%TD*%
D11*
%TO.C,R11*%
X97644000Y-85090000D03*
X95644000Y-85090000D03*
%TD*%
M02*
